M48
; DRILL file {KiCad 5.1.9-73d0e3b20d~88~ubuntu20.04.1} date Sat Feb 13 16:05:54 2021
; FORMAT={-:-/ absolute / inch / decimal}
; #@! TF.CreationDate,2021-02-13T16:05:54-05:00
; #@! TF.GenerationSoftware,Kicad,Pcbnew,5.1.9-73d0e3b20d~88~ubuntu20.04.1
FMAT,2
INCH
T1C0.0157
T2C0.0300
T3C0.0315
T4C0.0354
T5C0.0394
T6C0.0433
T7C0.0827
T8C0.0906
T9C0.0866
%
G90
G05
T1
X1.19Y2.04
X1.27Y2.24
X1.31Y2.84
X1.3198Y2.2002
X1.5225Y3.8425
X1.62Y3.16
T2
X0.75Y3.73
X0.75Y3.63
X0.75Y3.53
X0.75Y3.43
X0.75Y3.33
X0.75Y3.23
X0.75Y3.13
X0.75Y3.03
X0.75Y2.93
X0.75Y2.83
X0.75Y2.73
X0.75Y2.63
X0.75Y2.53
X0.75Y2.43
X0.75Y2.33
X0.75Y2.23
X0.75Y2.13
X0.75Y2.03
X0.75Y1.93
X0.75Y1.83
X1.45Y3.73
X1.45Y3.63
X1.45Y3.53
X1.45Y3.43
X1.45Y3.33
X1.45Y3.23
X1.45Y3.13
X1.45Y3.03
X1.45Y2.93
X1.45Y2.83
X1.45Y2.73
X1.45Y2.63
X1.45Y2.53
X1.45Y2.43
X1.45Y2.33
X1.45Y2.23
X1.45Y2.13
X1.45Y2.03
X1.45Y1.93
X1.45Y1.83
T3
X0.9Y1.14
X0.9Y0.94
X0.9Y0.74
X0.9Y0.54
X0.9Y0.34
X1.3Y1.14
X1.3Y0.94
X1.3Y0.74
X1.3Y0.54
X1.3Y0.34
X1.5Y0.94
X1.5Y0.74
X1.5Y0.54
X1.6969Y0.94
X1.6969Y0.74
X1.6969Y0.54
X1.7Y3.73
X1.7Y3.33
X1.95Y3.73
X1.95Y3.6119
X2.2Y3.73
X2.2Y3.33
X2.2356Y1.86
X2.3231Y2.64
X2.3285Y2.43
X2.3285Y2.33
X2.3285Y2.23
X2.3285Y2.13
X2.4Y3.73
X2.4Y3.33
X2.4325Y1.86
X2.52Y2.64
X2.6Y3.73
X2.6Y3.33
X2.6285Y2.43
X2.6285Y2.33
X2.6285Y2.23
X2.6285Y2.13
X2.8Y3.73
X2.8Y3.33
X2.81Y2.6
X2.81Y2.4
X2.81Y2.2
X2.81Y2.0
X3.0Y3.73
X3.0Y3.33
X3.2Y3.7269
X3.2Y3.53
X3.21Y2.6
X3.21Y2.4
X3.21Y2.2
X3.21Y2.0
X3.25Y0.74
X3.25Y0.54
X3.25Y0.34
X3.65Y0.74
X3.65Y0.54
X3.65Y0.34
T4
X0.355Y3.73
X0.355Y3.63
X0.935Y1.54
X0.935Y1.44
X1.265Y1.54
X1.265Y1.44
T5
X0.2Y3.345
X0.2Y3.245
X0.2Y3.145
X0.2Y3.045
X0.2Y2.645
X0.2Y2.545
X0.2Y2.445
X0.2Y2.045
X0.2Y1.945
X0.2Y1.845
X0.2Y1.745
X0.2Y1.645
X0.2Y1.545
X0.2Y1.145
X0.2Y1.045
X0.2Y0.945
X0.2Y0.845
X0.2Y0.745
X0.2Y0.645
X0.2Y0.545
X0.2Y0.445
X0.3Y3.345
X0.3Y3.245
X0.3Y3.145
X0.3Y3.045
X1.875Y2.33
X1.875Y2.23
X2.075Y2.33
X2.075Y2.23
X2.3325Y1.6882
X2.4325Y1.6882
X2.5325Y1.6882
X2.54Y3.12
X2.54Y3.02
X2.6325Y1.6882
X2.74Y3.12
X2.74Y3.02
X3.74Y2.92
X3.74Y2.82
X3.74Y2.72
X3.74Y2.32
X3.74Y2.22
X3.74Y2.12
X3.74Y1.72
X3.74Y1.62
X3.74Y1.52
X3.74Y1.42
X3.74Y1.32
X3.74Y1.22
X3.74Y1.12
X3.74Y1.02
X3.74Y0.92
T6
X1.8841Y0.3672
X1.8841Y0.19
X2.14Y0.3672
X2.14Y0.19
X2.3541Y0.3672
X2.3541Y0.19
X2.61Y0.3672
X2.61Y0.19
X2.8241Y0.3672
X2.8241Y0.19
X3.08Y0.3672
X3.08Y0.19
X3.39Y3.7275
X3.39Y3.4716
X3.5672Y3.7275
X3.5672Y3.4716
T7
X0.8756Y3.7052
X0.8756Y1.8548
X1.3244Y3.7052
X1.3244Y1.8548
T8
X2.0238Y1.6685
X2.0238Y0.7315
X2.9412Y1.6685
X2.9412Y0.7315
T9
X0.1181Y3.8189
X0.1181Y0.1181
X3.8189Y3.8189
X3.8189Y0.1181
T0
M30
