%TF.GenerationSoftware,KiCad,Pcbnew,5.1.9-73d0e3b20d~88~ubuntu20.04.1*%
%TF.CreationDate,2021-02-13T16:05:57-05:00*%
%TF.ProjectId,kiwikit-rpi-pico,6b697769-6b69-4742-9d72-70692d706963,rev?*%
%TF.SameCoordinates,PX2faf080PY8f0d180*%
%TF.FileFunction,Soldermask,Top*%
%TF.FilePolarity,Negative*%
%FSLAX46Y46*%
G04 Gerber Fmt 4.6, Leading zero omitted, Abs format (unit mm)*
G04 Created by KiCad (PCBNEW 5.1.9-73d0e3b20d~88~ubuntu20.04.1) date 2021-02-13 16:05:57*
%MOMM*%
%LPD*%
G01*
G04 APERTURE LIST*
%ADD10O,1.700000X1.700000*%
%ADD11R,1.700000X1.700000*%
%ADD12C,2.000000*%
%ADD13O,1.600000X1.600000*%
%ADD14C,1.600000*%
%ADD15C,1.800000*%
%ADD16R,1.800000X1.800000*%
%ADD17C,3.800000*%
%ADD18C,1.524000*%
%ADD19R,1.524000X1.524000*%
%ADD20C,2.200000*%
%ADD21R,1.600000X1.600000*%
%ADD22C,1.700000*%
%ADD23C,3.500000*%
G04 APERTURE END LIST*
D10*
%TO.C,J5*%
X94996000Y23368000D03*
X94996000Y25908000D03*
X94996000Y28448000D03*
X94996000Y30988000D03*
X94996000Y33528000D03*
X94996000Y36068000D03*
X94996000Y38608000D03*
X94996000Y41148000D03*
D11*
X94996000Y43688000D03*
%TD*%
D10*
%TO.C,J2*%
X5080000Y62103000D03*
X5080000Y64643000D03*
D11*
X5080000Y67183000D03*
%TD*%
D10*
%TO.C,J1*%
X7620000Y77343000D03*
X5080000Y77343000D03*
X7620000Y79883000D03*
X5080000Y79883000D03*
X7620000Y82423000D03*
X5080000Y82423000D03*
X7620000Y84963000D03*
D11*
X5080000Y84963000D03*
%TD*%
D12*
%TO.C,SW1*%
X59794000Y4826000D03*
X59794000Y9326000D03*
X66294000Y4826000D03*
X66294000Y9326000D03*
%TD*%
D13*
%TO.C,R5*%
X71120000Y84582000D03*
D14*
X71120000Y94742000D03*
%TD*%
D13*
%TO.C,R18*%
X22860000Y18796000D03*
D14*
X33020000Y18796000D03*
%TD*%
D13*
%TO.C,R17*%
X22860000Y13716000D03*
D14*
X33020000Y13716000D03*
%TD*%
D13*
%TO.C,R16*%
X22860000Y8636000D03*
D14*
X33020000Y8636000D03*
%TD*%
D13*
%TO.C,R15*%
X76200000Y94742000D03*
D14*
X76200000Y84582000D03*
%TD*%
D13*
%TO.C,R14*%
X81534000Y50800000D03*
D14*
X71374000Y50800000D03*
%TD*%
D13*
%TO.C,R13*%
X81534000Y55880000D03*
D14*
X71374000Y55880000D03*
%TD*%
D13*
%TO.C,R12*%
X81534000Y60960000D03*
D14*
X71374000Y60960000D03*
%TD*%
D13*
%TO.C,R11*%
X81534000Y66040000D03*
D14*
X71374000Y66040000D03*
%TD*%
D13*
%TO.C,R9*%
X55880000Y94742000D03*
D14*
X55880000Y84582000D03*
%TD*%
D13*
%TO.C,R8*%
X43180000Y84582000D03*
D14*
X43180000Y94742000D03*
%TD*%
D13*
%TO.C,R7*%
X33020000Y28956000D03*
D14*
X22860000Y28956000D03*
%TD*%
D13*
%TO.C,R6*%
X33020000Y23876000D03*
D14*
X22860000Y23876000D03*
%TD*%
D13*
%TO.C,R4*%
X66040000Y94742000D03*
D14*
X66040000Y84582000D03*
%TD*%
D13*
%TO.C,R3*%
X60960000Y94742000D03*
D14*
X60960000Y84582000D03*
%TD*%
D13*
%TO.C,R2*%
X92710000Y18796000D03*
D14*
X82550000Y18796000D03*
%TD*%
D13*
%TO.C,R1*%
X92710000Y13716000D03*
D14*
X82550000Y13716000D03*
%TD*%
D13*
%TO.C,R0*%
X92710000Y8636000D03*
D14*
X82550000Y8636000D03*
%TD*%
D15*
%TO.C,D2*%
X9017000Y94742000D03*
D16*
X9017000Y92202000D03*
%TD*%
D15*
%TO.C,D1*%
X23749000Y39116000D03*
D16*
X23749000Y36576000D03*
%TD*%
D15*
%TO.C,D0*%
X32131000Y39116000D03*
D16*
X32131000Y36576000D03*
%TD*%
D14*
%TO.C,C8*%
X59008000Y67056000D03*
X64008000Y67056000D03*
%TD*%
%TO.C,C6*%
X56785500Y47244000D03*
X61785500Y47244000D03*
%TD*%
%TO.C,C5*%
X81280000Y94662000D03*
X81280000Y89662000D03*
%TD*%
%TO.C,C2*%
X43100000Y23876000D03*
X38100000Y23876000D03*
%TD*%
%TO.C,C1*%
X43100000Y18796000D03*
X38100000Y18796000D03*
%TD*%
%TO.C,C0*%
X43100000Y13716000D03*
X38100000Y13716000D03*
%TD*%
D17*
%TO.C,U1*%
X33640000Y47112000D03*
X22240000Y47112000D03*
X33640000Y94112000D03*
X22240000Y94112000D03*
D18*
X36830000Y94742000D03*
X36830000Y92202000D03*
X36830000Y89662000D03*
X36830000Y87122000D03*
X36830000Y84582000D03*
X36830000Y82042000D03*
X36830000Y79502000D03*
X36830000Y76962000D03*
X36830000Y74422000D03*
X36830000Y71882000D03*
X36830000Y69342000D03*
X36830000Y66802000D03*
X36830000Y64262000D03*
X36830000Y61722000D03*
X36830000Y59182000D03*
X36830000Y56642000D03*
X36830000Y54102000D03*
X36830000Y51562000D03*
X36830000Y49022000D03*
X36830000Y46482000D03*
X19050000Y46482000D03*
X19050000Y49022000D03*
X19050000Y51562000D03*
X19050000Y54102000D03*
X19050000Y56642000D03*
X19050000Y59182000D03*
X19050000Y61722000D03*
X19050000Y64262000D03*
X19050000Y66802000D03*
X19050000Y69342000D03*
X19050000Y71882000D03*
X19050000Y74422000D03*
X19050000Y76962000D03*
X19050000Y79502000D03*
X19050000Y82042000D03*
X19050000Y84582000D03*
X19050000Y87122000D03*
X19050000Y89662000D03*
X19050000Y92202000D03*
D19*
X19050000Y94742000D03*
%TD*%
D12*
%TO.C,SW2*%
X47856000Y4826000D03*
X47856000Y9326000D03*
X54356000Y4826000D03*
X54356000Y9326000D03*
%TD*%
%TO.C,SW0*%
X71732000Y4826000D03*
X71732000Y9326000D03*
X78232000Y4826000D03*
X78232000Y9326000D03*
%TD*%
D20*
%TO.C,H4*%
X97000000Y3000000D03*
%TD*%
%TO.C,H3*%
X3000000Y3000000D03*
%TD*%
%TO.C,H2*%
X97000000Y97000000D03*
%TD*%
%TO.C,H1*%
X3000000Y97000000D03*
%TD*%
D10*
%TO.C,JP2*%
X69596000Y76708000D03*
D11*
X69596000Y79248000D03*
%TD*%
D10*
%TO.C,JP1*%
X64516000Y76708000D03*
D11*
X64516000Y79248000D03*
%TD*%
D10*
%TO.C,J6*%
X94996000Y53848000D03*
X94996000Y56388000D03*
D11*
X94996000Y58928000D03*
%TD*%
D10*
%TO.C,J7*%
X94996000Y69088000D03*
X94996000Y71628000D03*
D11*
X94996000Y74168000D03*
%TD*%
D10*
%TO.C,J4*%
X5080000Y11303000D03*
X5080000Y13843000D03*
X5080000Y16383000D03*
X5080000Y18923000D03*
X5080000Y21463000D03*
X5080000Y24003000D03*
X5080000Y26543000D03*
D11*
X5080000Y29083000D03*
%TD*%
D14*
%TO.C,R10*%
X49530000Y91742000D03*
X49530000Y94742000D03*
%TD*%
D10*
%TO.C,J3*%
X5080000Y39243000D03*
X5080000Y41783000D03*
X5080000Y44323000D03*
X5080000Y46863000D03*
X5080000Y49403000D03*
D11*
X5080000Y51943000D03*
%TD*%
D12*
%TO.C,SW5*%
X90606000Y88178500D03*
X86106000Y88178500D03*
X90606000Y94678500D03*
X86106000Y94678500D03*
%TD*%
D13*
%TO.C,U3*%
X66764000Y61722000D03*
X59144000Y54102000D03*
X66764000Y59182000D03*
X59144000Y56642000D03*
X66764000Y56642000D03*
X59144000Y59182000D03*
X66764000Y54102000D03*
D21*
X59144000Y61722000D03*
%TD*%
D10*
%TO.C,JP3*%
X47625000Y56642000D03*
D11*
X47625000Y59182000D03*
%TD*%
D10*
%TO.C,JP4*%
X52705000Y56642000D03*
D11*
X52705000Y59182000D03*
%TD*%
D22*
%TO.C,U2*%
X66865500Y42880000D03*
X64325500Y42880000D03*
X61785500Y42880000D03*
D11*
X59245500Y42880000D03*
D23*
X74705500Y18580000D03*
X51405500Y18580000D03*
X74705500Y42380000D03*
X51405500Y42380000D03*
%TD*%
M02*
