%TF.GenerationSoftware,KiCad,Pcbnew,5.1.9-73d0e3b20d~88~ubuntu20.04.1*%
%TF.CreationDate,2021-02-13T16:05:57-05:00*%
%TF.ProjectId,kiwikit-rpi-pico,6b697769-6b69-4742-9d72-70692d706963,rev?*%
%TF.SameCoordinates,PX2faf080PY8f0d180*%
%TF.FileFunction,Copper,L1,Top*%
%TF.FilePolarity,Positive*%
%FSLAX46Y46*%
G04 Gerber Fmt 4.6, Leading zero omitted, Abs format (unit mm)*
G04 Created by KiCad (PCBNEW 5.1.9-73d0e3b20d~88~ubuntu20.04.1) date 2021-02-13 16:05:57*
%MOMM*%
%LPD*%
G01*
G04 APERTURE LIST*
%TA.AperFunction,ComponentPad*%
%ADD10O,1.700000X1.700000*%
%TD*%
%TA.AperFunction,ComponentPad*%
%ADD11R,1.700000X1.700000*%
%TD*%
%TA.AperFunction,ComponentPad*%
%ADD12C,2.000000*%
%TD*%
%TA.AperFunction,ComponentPad*%
%ADD13O,1.600000X1.600000*%
%TD*%
%TA.AperFunction,ComponentPad*%
%ADD14C,1.600000*%
%TD*%
%TA.AperFunction,ComponentPad*%
%ADD15C,1.800000*%
%TD*%
%TA.AperFunction,ComponentPad*%
%ADD16R,1.800000X1.800000*%
%TD*%
%TA.AperFunction,ComponentPad*%
%ADD17C,3.800000*%
%TD*%
%TA.AperFunction,ComponentPad*%
%ADD18C,1.524000*%
%TD*%
%TA.AperFunction,ComponentPad*%
%ADD19R,1.524000X1.524000*%
%TD*%
%TA.AperFunction,ComponentPad*%
%ADD20R,1.600000X1.600000*%
%TD*%
%TA.AperFunction,ComponentPad*%
%ADD21C,1.700000*%
%TD*%
%TA.AperFunction,ComponentPad*%
%ADD22C,3.500000*%
%TD*%
%TA.AperFunction,ViaPad*%
%ADD23C,0.600000*%
%TD*%
%TA.AperFunction,Conductor*%
%ADD24C,0.400000*%
%TD*%
G04 APERTURE END LIST*
D10*
%TO.P,J5,9*%
%TO.N,/GP13_SPI1_CS*%
X94996000Y23368000D03*
%TO.P,J5,8*%
%TO.N,/GP12_SPI1_MISO*%
X94996000Y25908000D03*
%TO.P,J5,7*%
%TO.N,/GP11_SPI1_MOSI*%
X94996000Y28448000D03*
%TO.P,J5,6*%
%TO.N,/GP10_SPI1_SCK*%
X94996000Y30988000D03*
%TO.P,J5,5*%
%TO.N,GND*%
X94996000Y33528000D03*
%TO.P,J5,4*%
%TO.N,/GP9_UART1_RX*%
X94996000Y36068000D03*
%TO.P,J5,3*%
%TO.N,/GP8_UART1_TX*%
X94996000Y38608000D03*
%TO.P,J5,2*%
%TO.N,+5V*%
X94996000Y41148000D03*
D11*
%TO.P,J5,1*%
%TO.N,GND*%
X94996000Y43688000D03*
%TD*%
D10*
%TO.P,J2,3*%
%TO.N,/GP1_UART0_RX*%
X5080000Y62103000D03*
%TO.P,J2,2*%
%TO.N,/GP0_UART0_TX*%
X5080000Y64643000D03*
D11*
%TO.P,J2,1*%
%TO.N,GND*%
X5080000Y67183000D03*
%TD*%
D10*
%TO.P,J1,8*%
%TO.N,+3V3*%
X7620000Y77343000D03*
%TO.P,J1,7*%
X5080000Y77343000D03*
%TO.P,J1,6*%
%TO.N,+5V*%
X7620000Y79883000D03*
%TO.P,J1,5*%
X5080000Y79883000D03*
%TO.P,J1,4*%
%TO.N,VBUS*%
X7620000Y82423000D03*
%TO.P,J1,3*%
X5080000Y82423000D03*
%TO.P,J1,2*%
%TO.N,GND*%
X7620000Y84963000D03*
D11*
%TO.P,J1,1*%
X5080000Y84963000D03*
%TD*%
D12*
%TO.P,SW1,1*%
%TO.N,GND*%
X59794000Y4826000D03*
%TO.P,SW1,2*%
%TO.N,/SW1*%
X59794000Y9326000D03*
%TO.P,SW1,1*%
%TO.N,GND*%
X66294000Y4826000D03*
%TO.P,SW1,2*%
%TO.N,/SW1*%
X66294000Y9326000D03*
%TD*%
D13*
%TO.P,R5,2*%
%TO.N,/~RST*%
X71120000Y84582000D03*
D14*
%TO.P,R5,1*%
%TO.N,+3V3*%
X71120000Y94742000D03*
%TD*%
D13*
%TO.P,R18,2*%
%TO.N,GND*%
X22860000Y18796000D03*
D14*
%TO.P,R18,1*%
%TO.N,Net-(C2-Pad1)*%
X33020000Y18796000D03*
%TD*%
D13*
%TO.P,R17,2*%
%TO.N,GND*%
X22860000Y13716000D03*
D14*
%TO.P,R17,1*%
%TO.N,Net-(C1-Pad1)*%
X33020000Y13716000D03*
%TD*%
D13*
%TO.P,R16,2*%
%TO.N,GND*%
X22860000Y8636000D03*
D14*
%TO.P,R16,1*%
%TO.N,Net-(C0-Pad1)*%
X33020000Y8636000D03*
%TD*%
D13*
%TO.P,R15,2*%
%TO.N,GND*%
X76200000Y94742000D03*
D14*
%TO.P,R15,1*%
%TO.N,Net-(C5-Pad1)*%
X76200000Y84582000D03*
%TD*%
D13*
%TO.P,R14,2*%
%TO.N,+3V3*%
X81534000Y50800000D03*
D14*
%TO.P,R14,1*%
%TO.N,/I2C1_SDA*%
X71374000Y50800000D03*
%TD*%
D13*
%TO.P,R13,2*%
%TO.N,+3V3*%
X81534000Y55880000D03*
D14*
%TO.P,R13,1*%
%TO.N,/I2C1_SCL*%
X71374000Y55880000D03*
%TD*%
D13*
%TO.P,R12,2*%
%TO.N,GND*%
X81534000Y60960000D03*
D14*
%TO.P,R12,1*%
%TO.N,Net-(JP4-Pad2)*%
X71374000Y60960000D03*
%TD*%
D13*
%TO.P,R11,2*%
%TO.N,GND*%
X81534000Y66040000D03*
D14*
%TO.P,R11,1*%
%TO.N,Net-(JP3-Pad2)*%
X71374000Y66040000D03*
%TD*%
D13*
%TO.P,R9,2*%
%TO.N,/ADC2*%
X55880000Y94742000D03*
D14*
%TO.P,R9,1*%
%TO.N,VDDA*%
X55880000Y84582000D03*
%TD*%
D13*
%TO.P,R8,2*%
%TO.N,GND*%
X43180000Y84582000D03*
D14*
%TO.P,R8,1*%
%TO.N,Net-(D2-Pad1)*%
X43180000Y94742000D03*
%TD*%
D13*
%TO.P,R7,2*%
%TO.N,GND*%
X33020000Y28956000D03*
D14*
%TO.P,R7,1*%
%TO.N,Net-(D1-Pad1)*%
X22860000Y28956000D03*
%TD*%
D13*
%TO.P,R6,2*%
%TO.N,GND*%
X33020000Y23876000D03*
D14*
%TO.P,R6,1*%
%TO.N,Net-(D0-Pad1)*%
X22860000Y23876000D03*
%TD*%
D13*
%TO.P,R4,2*%
%TO.N,VDDA*%
X66040000Y94742000D03*
D14*
%TO.P,R4,1*%
%TO.N,Net-(JP2-Pad1)*%
X66040000Y84582000D03*
%TD*%
D13*
%TO.P,R3,2*%
%TO.N,VDDA*%
X60960000Y94742000D03*
D14*
%TO.P,R3,1*%
%TO.N,Net-(JP1-Pad1)*%
X60960000Y84582000D03*
%TD*%
D13*
%TO.P,R2,2*%
%TO.N,+3V3*%
X92710000Y18796000D03*
D14*
%TO.P,R2,1*%
%TO.N,/SW2*%
X82550000Y18796000D03*
%TD*%
D13*
%TO.P,R1,2*%
%TO.N,+3V3*%
X92710000Y13716000D03*
D14*
%TO.P,R1,1*%
%TO.N,/SW1*%
X82550000Y13716000D03*
%TD*%
D13*
%TO.P,R0,2*%
%TO.N,+3V3*%
X92710000Y8636000D03*
D14*
%TO.P,R0,1*%
%TO.N,/SW0*%
X82550000Y8636000D03*
%TD*%
D15*
%TO.P,D2,2*%
%TO.N,+3V3*%
X9017000Y94742000D03*
D16*
%TO.P,D2,1*%
%TO.N,Net-(D2-Pad1)*%
X9017000Y92202000D03*
%TD*%
D15*
%TO.P,D1,2*%
%TO.N,/LED1*%
X23749000Y39116000D03*
D16*
%TO.P,D1,1*%
%TO.N,Net-(D1-Pad1)*%
X23749000Y36576000D03*
%TD*%
D15*
%TO.P,D0,2*%
%TO.N,/LED0*%
X32131000Y39116000D03*
D16*
%TO.P,D0,1*%
%TO.N,Net-(D0-Pad1)*%
X32131000Y36576000D03*
%TD*%
D14*
%TO.P,C8,2*%
%TO.N,GND*%
X59008000Y67056000D03*
%TO.P,C8,1*%
%TO.N,+3V3*%
X64008000Y67056000D03*
%TD*%
%TO.P,C6,2*%
%TO.N,GND*%
X56785500Y47244000D03*
%TO.P,C6,1*%
%TO.N,+3V3*%
X61785500Y47244000D03*
%TD*%
%TO.P,C5,2*%
%TO.N,/~RST*%
X81280000Y94662000D03*
%TO.P,C5,1*%
%TO.N,Net-(C5-Pad1)*%
X81280000Y89662000D03*
%TD*%
%TO.P,C2,2*%
%TO.N,/SW2*%
X43100000Y23876000D03*
%TO.P,C2,1*%
%TO.N,Net-(C2-Pad1)*%
X38100000Y23876000D03*
%TD*%
%TO.P,C1,2*%
%TO.N,/SW1*%
X43100000Y18796000D03*
%TO.P,C1,1*%
%TO.N,Net-(C1-Pad1)*%
X38100000Y18796000D03*
%TD*%
%TO.P,C0,2*%
%TO.N,/SW0*%
X43100000Y13716000D03*
%TO.P,C0,1*%
%TO.N,Net-(C0-Pad1)*%
X38100000Y13716000D03*
%TD*%
D17*
%TO.P,U1,*%
%TO.N,*%
X33640000Y47112000D03*
X22240000Y47112000D03*
X33640000Y94112000D03*
X22240000Y94112000D03*
D18*
%TO.P,U1,40*%
%TO.N,VBUS*%
X36830000Y94742000D03*
%TO.P,U1,39*%
%TO.N,+5V*%
X36830000Y92202000D03*
%TO.P,U1,38*%
%TO.N,GND*%
X36830000Y89662000D03*
%TO.P,U1,37*%
%TO.N,Net-(U1-Pad37)*%
X36830000Y87122000D03*
%TO.P,U1,36*%
%TO.N,+3V3*%
X36830000Y84582000D03*
%TO.P,U1,35*%
%TO.N,VDDA*%
X36830000Y82042000D03*
%TO.P,U1,34*%
%TO.N,/ADC2*%
X36830000Y79502000D03*
%TO.P,U1,33*%
%TO.N,GNDA*%
X36830000Y76962000D03*
%TO.P,U1,32*%
%TO.N,/GP27_ADC1*%
X36830000Y74422000D03*
%TO.P,U1,31*%
%TO.N,/GP26_ADC0*%
X36830000Y71882000D03*
%TO.P,U1,30*%
%TO.N,/~RST*%
X36830000Y69342000D03*
%TO.P,U1,29*%
%TO.N,/LED1*%
X36830000Y66802000D03*
%TO.P,U1,28*%
%TO.N,GND*%
X36830000Y64262000D03*
%TO.P,U1,27*%
%TO.N,/GP21_I2C0_SCL*%
X36830000Y61722000D03*
%TO.P,U1,26*%
%TO.N,/GP20_I2C0_SDA*%
X36830000Y59182000D03*
%TO.P,U1,25*%
%TO.N,/I2C1_SCL*%
X36830000Y56642000D03*
%TO.P,U1,24*%
%TO.N,/I2C1_SDA*%
X36830000Y54102000D03*
%TO.P,U1,23*%
%TO.N,GND*%
X36830000Y51562000D03*
%TO.P,U1,22*%
%TO.N,/LED0*%
X36830000Y49022000D03*
%TO.P,U1,21*%
%TO.N,/SW2*%
X36830000Y46482000D03*
%TO.P,U1,20*%
%TO.N,/SW1*%
X19050000Y46482000D03*
%TO.P,U1,19*%
%TO.N,/SW0*%
X19050000Y49022000D03*
%TO.P,U1,18*%
%TO.N,GND*%
X19050000Y51562000D03*
%TO.P,U1,17*%
%TO.N,/GP13_SPI1_CS*%
X19050000Y54102000D03*
%TO.P,U1,16*%
%TO.N,/GP12_SPI1_MISO*%
X19050000Y56642000D03*
%TO.P,U1,15*%
%TO.N,/GP11_SPI1_MOSI*%
X19050000Y59182000D03*
%TO.P,U1,14*%
%TO.N,/GP10_SPI1_SCK*%
X19050000Y61722000D03*
%TO.P,U1,13*%
%TO.N,GND*%
X19050000Y64262000D03*
%TO.P,U1,12*%
%TO.N,/GP9_UART1_RX*%
X19050000Y66802000D03*
%TO.P,U1,11*%
%TO.N,/GP8_UART1_TX*%
X19050000Y69342000D03*
%TO.P,U1,10*%
%TO.N,/GP7_AD0*%
X19050000Y71882000D03*
%TO.P,U1,9*%
%TO.N,/GP6_INT*%
X19050000Y74422000D03*
%TO.P,U1,8*%
%TO.N,GND*%
X19050000Y76962000D03*
%TO.P,U1,7*%
%TO.N,/GP5_SPI0_CS*%
X19050000Y79502000D03*
%TO.P,U1,6*%
%TO.N,/GP4_SPI0_MISO*%
X19050000Y82042000D03*
%TO.P,U1,5*%
%TO.N,/GP3_SPI0_MOSI*%
X19050000Y84582000D03*
%TO.P,U1,4*%
%TO.N,/GP2_SPI0_SCK*%
X19050000Y87122000D03*
%TO.P,U1,3*%
%TO.N,GND*%
X19050000Y89662000D03*
%TO.P,U1,2*%
%TO.N,/GP1_UART0_RX*%
X19050000Y92202000D03*
D19*
%TO.P,U1,1*%
%TO.N,/GP0_UART0_TX*%
X19050000Y94742000D03*
%TD*%
D12*
%TO.P,SW2,1*%
%TO.N,Net-(SW2-Pad1)*%
X47856000Y4826000D03*
%TO.P,SW2,2*%
%TO.N,/SW2*%
X47856000Y9326000D03*
%TO.P,SW2,1*%
%TO.N,Net-(SW2-Pad1)*%
X54356000Y4826000D03*
%TO.P,SW2,2*%
%TO.N,/SW2*%
X54356000Y9326000D03*
%TD*%
%TO.P,SW0,1*%
%TO.N,GND*%
X71732000Y4826000D03*
%TO.P,SW0,2*%
%TO.N,/SW0*%
X71732000Y9326000D03*
%TO.P,SW0,1*%
%TO.N,GND*%
X78232000Y4826000D03*
%TO.P,SW0,2*%
%TO.N,/SW0*%
X78232000Y9326000D03*
%TD*%
D10*
%TO.P,JP2,2*%
%TO.N,/GP27_ADC1*%
X69596000Y76708000D03*
D11*
%TO.P,JP2,1*%
%TO.N,Net-(JP2-Pad1)*%
X69596000Y79248000D03*
%TD*%
D10*
%TO.P,JP1,2*%
%TO.N,/GP26_ADC0*%
X64516000Y76708000D03*
D11*
%TO.P,JP1,1*%
%TO.N,Net-(JP1-Pad1)*%
X64516000Y79248000D03*
%TD*%
D10*
%TO.P,J6,3*%
%TO.N,GNDA*%
X94996000Y53848000D03*
%TO.P,J6,2*%
%TO.N,/GP26_ADC0*%
X94996000Y56388000D03*
D11*
%TO.P,J6,1*%
%TO.N,VDDA*%
X94996000Y58928000D03*
%TD*%
D10*
%TO.P,J7,3*%
%TO.N,GNDA*%
X94996000Y69088000D03*
%TO.P,J7,2*%
%TO.N,/GP27_ADC1*%
X94996000Y71628000D03*
D11*
%TO.P,J7,1*%
%TO.N,VDDA*%
X94996000Y74168000D03*
%TD*%
D10*
%TO.P,J4,8*%
%TO.N,+5V*%
X5080000Y11303000D03*
%TO.P,J4,7*%
%TO.N,GND*%
X5080000Y13843000D03*
%TO.P,J4,6*%
%TO.N,/GP21_I2C0_SCL*%
X5080000Y16383000D03*
%TO.P,J4,5*%
%TO.N,/GP20_I2C0_SDA*%
X5080000Y18923000D03*
%TO.P,J4,4*%
%TO.N,/XDA*%
X5080000Y21463000D03*
%TO.P,J4,3*%
%TO.N,/XCL*%
X5080000Y24003000D03*
%TO.P,J4,2*%
%TO.N,/GP7_AD0*%
X5080000Y26543000D03*
D11*
%TO.P,J4,1*%
%TO.N,/GP6_INT*%
X5080000Y29083000D03*
%TD*%
D14*
%TO.P,R10,2*%
%TO.N,GNDA*%
X49530000Y91742000D03*
%TO.P,R10,1*%
%TO.N,/ADC2*%
X49530000Y94742000D03*
%TD*%
D10*
%TO.P,J3,6*%
%TO.N,GND*%
X5080000Y39243000D03*
%TO.P,J3,5*%
%TO.N,+5V*%
X5080000Y41783000D03*
%TO.P,J3,4*%
%TO.N,/GP4_SPI0_MISO*%
X5080000Y44323000D03*
%TO.P,J3,3*%
%TO.N,/GP3_SPI0_MOSI*%
X5080000Y46863000D03*
%TO.P,J3,2*%
%TO.N,/GP2_SPI0_SCK*%
X5080000Y49403000D03*
D11*
%TO.P,J3,1*%
%TO.N,/GP5_SPI0_CS*%
X5080000Y51943000D03*
%TD*%
D12*
%TO.P,SW5,1*%
%TO.N,GND*%
X90606000Y88178500D03*
%TO.P,SW5,2*%
%TO.N,/~RST*%
X86106000Y88178500D03*
%TO.P,SW5,1*%
%TO.N,GND*%
X90606000Y94678500D03*
%TO.P,SW5,2*%
%TO.N,/~RST*%
X86106000Y94678500D03*
%TD*%
D13*
%TO.P,U3,8*%
%TO.N,+3V3*%
X66764000Y61722000D03*
%TO.P,U3,4*%
%TO.N,GND*%
X59144000Y54102000D03*
%TO.P,U3,7*%
%TO.N,Net-(JP3-Pad2)*%
X66764000Y59182000D03*
%TO.P,U3,3*%
%TO.N,Net-(JP4-Pad2)*%
X59144000Y56642000D03*
%TO.P,U3,6*%
%TO.N,/I2C1_SCL*%
X66764000Y56642000D03*
%TO.P,U3,2*%
%TO.N,N/C*%
X59144000Y59182000D03*
%TO.P,U3,5*%
%TO.N,/I2C1_SDA*%
X66764000Y54102000D03*
D20*
%TO.P,U3,1*%
%TO.N,N/C*%
X59144000Y61722000D03*
%TD*%
D10*
%TO.P,JP3,2*%
%TO.N,Net-(JP3-Pad2)*%
X47625000Y56642000D03*
D11*
%TO.P,JP3,1*%
%TO.N,+3V3*%
X47625000Y59182000D03*
%TD*%
D10*
%TO.P,JP4,2*%
%TO.N,Net-(JP4-Pad2)*%
X52705000Y56642000D03*
D11*
%TO.P,JP4,1*%
%TO.N,+3V3*%
X52705000Y59182000D03*
%TD*%
D21*
%TO.P,U2,4*%
%TO.N,/I2C1_SDA*%
X66865500Y42880000D03*
%TO.P,U2,3*%
%TO.N,/I2C1_SCL*%
X64325500Y42880000D03*
%TO.P,U2,2*%
%TO.N,+3V3*%
X61785500Y42880000D03*
D11*
%TO.P,U2,1*%
%TO.N,GND*%
X59245500Y42880000D03*
D22*
%TO.P,U2,*%
%TO.N,*%
X74705500Y18580000D03*
X51405500Y18580000D03*
X74705500Y42380000D03*
X51405500Y42380000D03*
%TD*%
D23*
%TO.N,+3V3*%
X33274000Y72136000D03*
%TO.N,Net-(D2-Pad1)*%
X38671500Y97599500D03*
%TO.N,/~RST*%
X41148000Y80264000D03*
%TO.N,/LED1*%
X30226000Y51816000D03*
%TO.N,/GP20_I2C0_SDA*%
X33522533Y55885467D03*
%TO.N,/GP21_I2C0_SCL*%
X32258000Y56896000D03*
%TD*%
D24*
%TO.N,GND*%
X59794000Y4826000D02*
X66294000Y4826000D01*
X71732000Y4826000D02*
X78232000Y4826000D01*
X90606000Y94678500D02*
X90606000Y88178500D01*
%TO.N,+3V3*%
X7610000Y77343000D02*
X5070000Y77343000D01*
X60585499Y48444001D02*
X61785500Y47244000D01*
X61785500Y47244000D02*
X61785500Y42880000D01*
X47625000Y59182000D02*
X52705000Y59182000D01*
X47625000Y59182000D02*
X46374999Y57931999D01*
X46374999Y57931999D02*
X46374999Y50526001D01*
X64008000Y64478000D02*
X66764000Y61722000D01*
X64008000Y67056000D02*
X64008000Y64478000D01*
X64008000Y67056000D02*
X61595000Y69469000D01*
X61595000Y69469000D02*
X57404000Y69469000D01*
X47625000Y59690000D02*
X47625000Y59182000D01*
X57404000Y69469000D02*
X47625000Y59690000D01*
X64008000Y67056000D02*
X69596000Y67056000D01*
X69596000Y67056000D02*
X70358000Y67818000D01*
X70358000Y67818000D02*
X72390000Y67818000D01*
X81534000Y50800000D02*
X81534000Y55880000D01*
X81534000Y58674000D02*
X74676000Y65532000D01*
X81534000Y55880000D02*
X81534000Y58674000D01*
X74676000Y65532000D02*
X75184000Y65024000D01*
X72390000Y67818000D02*
X74676000Y65532000D01*
X48456999Y48444001D02*
X46374999Y50526001D01*
X60585499Y48444001D02*
X48456999Y48444001D01*
X10252010Y83658010D02*
X10252010Y79985010D01*
X10252010Y79985010D02*
X7610000Y77343000D01*
X14244999Y87650999D02*
X10252010Y83658010D01*
X18583998Y96520000D02*
X14244999Y92181001D01*
X14244999Y92181001D02*
X14244999Y87650999D01*
X24892000Y96520000D02*
X18583998Y96520000D01*
X69434010Y96427990D02*
X68672010Y96427990D01*
X71120000Y94742000D02*
X69434010Y96427990D01*
X30572009Y90839991D02*
X42071991Y90839991D01*
X30353000Y91059000D02*
X30572009Y90839991D01*
X36830000Y84582000D02*
X30353000Y91059000D01*
X30353000Y91059000D02*
X24892000Y96520000D01*
X47659990Y96427990D02*
X52231990Y96427990D01*
X42071991Y90839991D02*
X47659990Y96427990D01*
X52231990Y96427990D02*
X68672010Y96427990D01*
X51215990Y96427990D02*
X52231990Y96427990D01*
X34798000Y84582000D02*
X36830000Y84582000D01*
X33274000Y83058000D02*
X34798000Y84582000D01*
X33274000Y72136000D02*
X33274000Y83058000D01*
X81534000Y29972000D02*
X92710000Y18796000D01*
X81534000Y50800000D02*
X81534000Y29972000D01*
X92710000Y18796000D02*
X92710000Y13716000D01*
X92710000Y13716000D02*
X92710000Y8636000D01*
%TO.N,+5V*%
X7610000Y79883000D02*
X5070000Y79883000D01*
X5070000Y79883000D02*
X2794000Y77607000D01*
X2794000Y77607000D02*
X2794000Y44831000D01*
X2794000Y44831000D02*
X2794000Y44323000D01*
X36068001Y91440001D02*
X30820541Y91440001D01*
X36830000Y92202000D02*
X36068001Y91440001D01*
X30820541Y91440001D02*
X25140532Y97120010D01*
X8337456Y79883000D02*
X7610000Y79883000D01*
X25140532Y97120010D02*
X18335465Y97120009D01*
X2794000Y43815000D02*
X2794000Y44323000D01*
X5080000Y41529000D02*
X2794000Y43815000D01*
X2794000Y13335000D02*
X2794000Y15113000D01*
X5080000Y11049000D02*
X2794000Y13335000D01*
X2794000Y15113000D02*
X2794000Y13843000D01*
X2794000Y44831000D02*
X2794000Y15113000D01*
X41656000Y97028000D02*
X36830000Y92202000D01*
X97198271Y92031729D02*
X92202000Y97028000D01*
X92202000Y97028000D02*
X41656000Y97028000D01*
X98136009Y77972533D02*
X97198271Y78910271D01*
X97198271Y78910271D02*
X97198271Y92031729D01*
X98136009Y44288009D02*
X98136009Y49622009D01*
X94996000Y41148000D02*
X98136009Y44288009D01*
X98136009Y49622009D02*
X98136009Y77972533D01*
X98136010Y48860010D02*
X98136009Y49622009D01*
X18335465Y97120009D02*
X13644989Y92429533D01*
X13644989Y92429533D02*
X13644989Y87899531D01*
X13644989Y87899531D02*
X9652000Y83906542D01*
X9652000Y81925000D02*
X7610000Y79883000D01*
X9652000Y83906542D02*
X9652000Y81925000D01*
%TO.N,VDDA*%
X96598261Y78661739D02*
X97536000Y77724000D01*
X91953468Y96427990D02*
X96598261Y91783197D01*
X96598261Y91783197D02*
X96598261Y78661739D01*
X95504000Y74168000D02*
X97536000Y76200000D01*
X94996000Y74168000D02*
X95504000Y74168000D01*
X97536000Y77724000D02*
X97536000Y76200000D01*
X94996000Y58928000D02*
X95758000Y58928000D01*
X97536000Y60706000D02*
X97536000Y66548000D01*
X95758000Y58928000D02*
X97536000Y60706000D01*
X97536000Y66548000D02*
X97536000Y66040000D01*
X97536000Y76200000D02*
X97536000Y66548000D01*
X78520990Y96427990D02*
X91953468Y96427990D01*
X78139990Y96427990D02*
X78520990Y96427990D01*
X53340000Y82042000D02*
X55880000Y84582000D01*
X36830000Y82042000D02*
X53340000Y82042000D01*
X55880000Y89662000D02*
X60960000Y94742000D01*
X55880000Y84582000D02*
X55880000Y89662000D01*
X60960000Y94742000D02*
X66040000Y94742000D01*
X66040000Y94742000D02*
X67818000Y94742000D01*
X67818000Y94742000D02*
X69596000Y92964000D01*
X74581992Y96427990D02*
X75530010Y96427990D01*
X71118002Y92964000D02*
X74581992Y96427990D01*
X69596000Y92964000D02*
X71118002Y92964000D01*
X75530010Y96427990D02*
X78520990Y96427990D01*
%TO.N,Net-(D1-Pad1)*%
X23749000Y29845000D02*
X22860000Y28956000D01*
X23749000Y36576000D02*
X23749000Y29845000D01*
%TO.N,Net-(D2-Pad1)*%
X9017000Y92202000D02*
X11720372Y92202000D01*
X17838400Y98320028D02*
X18490450Y98320028D01*
X11720372Y92202000D02*
X17838400Y98320028D01*
X18490450Y98320028D02*
X37950972Y98320028D01*
X37950972Y98320028D02*
X38671500Y97599500D01*
X38671500Y97599500D02*
X38735000Y97536000D01*
%TO.N,VBUS*%
X7610000Y82423000D02*
X5070000Y82423000D01*
X36830000Y94742000D02*
X33851982Y97720018D01*
X9051991Y83864991D02*
X9051991Y84155075D01*
X7610000Y82423000D02*
X9051991Y83864991D01*
X18086932Y97720018D02*
X18738982Y97720018D01*
X13044980Y92678066D02*
X18086932Y97720018D01*
X13044979Y88148063D02*
X13044980Y92678066D01*
X9051991Y84155075D02*
X13044979Y88148063D01*
X33851982Y97720018D02*
X18738982Y97720018D01*
%TO.N,Net-(JP4-Pad2)*%
X59144000Y56642000D02*
X52705000Y56642000D01*
%TO.N,/ADC2*%
X36830000Y79502000D02*
X36916542Y79502000D01*
X49530000Y94742000D02*
X55880000Y94742000D01*
X49530000Y93472000D02*
X49530000Y94742000D01*
X36272239Y83204001D02*
X39262001Y83204001D01*
X35667999Y82599761D02*
X36272239Y83204001D01*
X39262001Y83204001D02*
X49530000Y93472000D01*
X35667999Y80664001D02*
X35667999Y82599761D01*
X36830000Y79502000D02*
X35667999Y80664001D01*
%TO.N,/~RST*%
X41148000Y80264000D02*
X41148000Y80264000D01*
X84311500Y94662000D02*
X84328000Y94678500D01*
X84328000Y94678500D02*
X86106000Y94678500D01*
X86106000Y94678500D02*
X86106000Y88178500D01*
X42002010Y81118010D02*
X41592500Y80708500D01*
X41148000Y80264000D02*
X41592500Y80708500D01*
X54702010Y81118010D02*
X42002010Y81118010D01*
X69342000Y86360000D02*
X71120000Y84582000D01*
X59944000Y86360000D02*
X69342000Y86360000D01*
X54702010Y81118010D02*
X59944000Y86360000D01*
X81200000Y94662000D02*
X81280000Y94662000D01*
X71120000Y84582000D02*
X81200000Y94662000D01*
X86089500Y94662000D02*
X86106000Y94678500D01*
X81280000Y94662000D02*
X86089500Y94662000D01*
%TO.N,/LED0*%
X30988000Y40259000D02*
X32131000Y39116000D01*
X30988000Y48514000D02*
X30988000Y40259000D01*
X32512000Y50038000D02*
X30988000Y48514000D01*
X35814000Y50038000D02*
X32512000Y50038000D01*
X36830000Y49022000D02*
X35814000Y50038000D01*
%TO.N,/I2C1_SCL*%
X71064000Y56698000D02*
X71374000Y56388000D01*
X66764000Y56698000D02*
X71064000Y56698000D01*
X71374000Y56388000D02*
X72834500Y54927500D01*
X72834500Y54927500D02*
X72834500Y46545500D01*
X72834500Y46545500D02*
X67373500Y41084500D01*
X66121000Y41084500D02*
X64325500Y42880000D01*
X67373500Y41084500D02*
X66121000Y41084500D01*
%TO.N,/I2C1_SDA*%
X69286000Y54158000D02*
X71374000Y52070000D01*
X66764000Y54158000D02*
X69286000Y54158000D01*
X71374000Y47388500D02*
X66865500Y42880000D01*
X71374000Y52070000D02*
X71374000Y47388500D01*
%TO.N,/LED1*%
X30226000Y41402000D02*
X27940000Y39116000D01*
X30226000Y51816000D02*
X30226000Y41402000D01*
X27940000Y39116000D02*
X23749000Y39116000D01*
%TO.N,Net-(D0-Pad1)*%
X32131000Y36576000D02*
X29210000Y36576000D01*
X29210000Y36576000D02*
X24349010Y31715010D01*
X24349010Y25365010D02*
X22860000Y23876000D01*
X24349010Y31715010D02*
X24349010Y25365010D01*
%TO.N,/GP1_UART0_RX*%
X10633010Y67656010D02*
X5080000Y62103000D01*
X15445017Y88597017D02*
X15445017Y87153933D01*
X19050000Y92202000D02*
X15445017Y88597017D01*
X15445017Y87153933D02*
X11452030Y83160946D01*
X10633010Y78668926D02*
X10633010Y76292010D01*
X11452030Y79487946D02*
X10633010Y78668926D01*
X11452030Y83160946D02*
X11452030Y79487946D01*
X10633010Y76292010D02*
X10633010Y67656010D01*
X10633010Y76546010D02*
X10633010Y76292010D01*
%TO.N,/GP0_UART0_TX*%
X10033000Y69596000D02*
X5080000Y64643000D01*
X17888000Y94742000D02*
X14845009Y91699009D01*
X19050000Y94742000D02*
X17888000Y94742000D01*
X14845008Y87402466D02*
X10852020Y83409478D01*
X14845009Y91699009D02*
X14845008Y87402466D01*
X10852020Y79736478D02*
X10852020Y83409478D01*
X10033000Y78917458D02*
X10852020Y79736478D01*
X10033000Y69596000D02*
X10033000Y78917458D01*
%TO.N,/GP2_SPI0_SCK*%
X11233020Y55302020D02*
X5080000Y49149000D01*
X12052040Y79239414D02*
X11233020Y78420394D01*
X12052040Y80124040D02*
X12052040Y79239414D01*
X19050000Y87122000D02*
X12052040Y80124040D01*
X11233020Y78420394D02*
X11233020Y69907020D01*
X11233020Y69907020D02*
X11233020Y55302020D01*
X11233020Y72066020D02*
X11233020Y69907020D01*
%TO.N,/GP3_SPI0_MOSI*%
X11833030Y53362030D02*
X5080000Y46609000D01*
X19050000Y84582000D02*
X11833030Y77365030D01*
X11833030Y77365030D02*
X11833030Y69065970D01*
X11833030Y69065970D02*
X11833030Y53362030D01*
X11833030Y70126030D02*
X11833030Y69065970D01*
%TO.N,/GP4_SPI0_MISO*%
X12433040Y51422040D02*
X5080000Y44069000D01*
X12433040Y56527961D02*
X12433040Y51422040D01*
X12433039Y75425039D02*
X12433039Y67297039D01*
X19050000Y82042000D02*
X12433039Y75425039D01*
X12433039Y67297039D02*
X12433039Y56273961D01*
X12433039Y68186039D02*
X12433039Y67297039D01*
%TO.N,/GP13_SPI1_CS*%
X77722002Y71628000D02*
X84328000Y65022002D01*
X49530000Y71628000D02*
X77722002Y71628000D01*
X45720000Y67818000D02*
X49530000Y71628000D01*
X84328000Y65022002D02*
X84328000Y62484000D01*
X22860000Y57912000D02*
X37279762Y57912000D01*
X45720000Y66352238D02*
X45720000Y67818000D01*
X37279762Y57912000D02*
X45720000Y66352238D01*
X19050000Y54102000D02*
X22860000Y57912000D01*
X84328000Y34036000D02*
X94996000Y23368000D01*
X84328000Y62738000D02*
X84328000Y34036000D01*
%TO.N,/GP12_SPI1_MISO*%
X22967999Y60559999D02*
X39079219Y60559999D01*
X19050000Y56642000D02*
X22967999Y60559999D01*
X45119990Y66600770D02*
X45119991Y68066533D01*
X39079219Y60559999D02*
X45119990Y66600770D01*
X45119991Y68066533D02*
X49281468Y72228010D01*
X75276009Y72228009D02*
X77970534Y72228010D01*
X84928010Y65270534D02*
X84928010Y62391990D01*
X77970534Y72228010D02*
X84928010Y65270534D01*
X84928010Y62986532D02*
X84928010Y62391990D01*
X49281468Y72228010D02*
X75276009Y72228009D01*
X75276009Y72228009D02*
X75686533Y72228009D01*
X84928010Y35975990D02*
X94996000Y25908000D01*
X84928010Y62391990D02*
X84928010Y35975990D01*
%TO.N,/GP11_SPI1_MOSI*%
X22752001Y62884001D02*
X40554679Y62884001D01*
X19050000Y59182000D02*
X22752001Y62884001D01*
X44519981Y66849303D02*
X44519982Y68315066D01*
X40554679Y62884001D02*
X44519981Y66849303D01*
X44519982Y68315066D02*
X49032937Y72828019D01*
X85598000Y65449086D02*
X85598000Y62230000D01*
X78219067Y72828019D02*
X85598000Y65449086D01*
X75507981Y72828019D02*
X78219067Y72828019D01*
X85598000Y63165084D02*
X85598000Y62230000D01*
X49032937Y72828019D02*
X75507981Y72828019D01*
X75507981Y72828019D02*
X75935066Y72828018D01*
X85598000Y37846000D02*
X94996000Y28448000D01*
X85598000Y62230000D02*
X85598000Y37846000D01*
%TO.N,/GP10_SPI1_SCK*%
X86198010Y65697618D02*
X86198010Y63084010D01*
X48784406Y73428028D02*
X78467600Y73428028D01*
X43919973Y68563599D02*
X48784406Y73428028D01*
X43919972Y67097836D02*
X43919973Y68563599D01*
X42246137Y65424001D02*
X43919972Y67097836D01*
X22752001Y65424001D02*
X42246137Y65424001D01*
X78467600Y73428028D02*
X86198010Y65697618D01*
X19050000Y61722000D02*
X22752001Y65424001D01*
X86198010Y63413616D02*
X86198010Y63084010D01*
X86198010Y39785990D02*
X94996000Y30988000D01*
X86198010Y63084010D02*
X86198010Y39785990D01*
%TO.N,/GP9_UART1_RX*%
X78716133Y74028037D02*
X86798020Y65946150D01*
X86798020Y65946150D02*
X86798020Y62553980D01*
X48535875Y74028037D02*
X78716133Y74028037D01*
X44611833Y70104000D02*
X48535875Y74028037D01*
X38500001Y67964001D02*
X40640000Y70104000D01*
X20212001Y67964001D02*
X38500001Y67964001D01*
X19050000Y66802000D02*
X20212001Y67964001D01*
X40640000Y70104000D02*
X44611833Y70104000D01*
X86798020Y63662148D02*
X86798020Y62553980D01*
X86798020Y44265980D02*
X94996000Y36068000D01*
X86798020Y62553980D02*
X86798020Y44265980D01*
%TO.N,/GP8_UART1_TX*%
X20427999Y70719999D02*
X19050000Y69342000D01*
X32889988Y70704010D02*
X32873999Y70719999D01*
X44363302Y70704010D02*
X32889988Y70704010D01*
X32873999Y70719999D02*
X20427999Y70719999D01*
X48287344Y74628046D02*
X44363302Y70704010D01*
X75993954Y74628046D02*
X78964665Y74628047D01*
X87398030Y63014030D02*
X87398030Y63910680D01*
X78964665Y74628047D02*
X87398030Y66194682D01*
X87398030Y66194682D02*
X87398030Y63014030D01*
X71346665Y74628045D02*
X70659954Y74628046D01*
X75993954Y74628046D02*
X48287344Y74628046D01*
X87398030Y46205970D02*
X87398030Y51285970D01*
X94996000Y38608000D02*
X87398030Y46205970D01*
X87398030Y51285970D02*
X87398030Y63014030D01*
X87398030Y50777970D02*
X87398030Y51285970D01*
%TO.N,Net-(JP1-Pad1)*%
X60960000Y82804000D02*
X64516000Y79248000D01*
X60960000Y84582000D02*
X60960000Y82804000D01*
%TO.N,Net-(JP2-Pad1)*%
X66040000Y82804000D02*
X69596000Y79248000D01*
X66040000Y84582000D02*
X66040000Y82804000D01*
%TO.N,Net-(JP3-Pad2)*%
X59670001Y55391999D02*
X48875001Y55391999D01*
X63460002Y59182000D02*
X59670001Y55391999D01*
X48875001Y55391999D02*
X47625000Y56642000D01*
X66764000Y59182000D02*
X63460002Y59182000D01*
X68961000Y61379000D02*
X68961000Y63627000D01*
X68961000Y63627000D02*
X71374000Y66040000D01*
X66764000Y59182000D02*
X68961000Y61379000D01*
%TO.N,/GP20_I2C0_SDA*%
X5166542Y18669000D02*
X5080000Y18669000D01*
X33522533Y55885467D02*
X33522533Y55885467D01*
X14833079Y28263535D02*
X5238544Y18669000D01*
X14833079Y47345079D02*
X14833079Y28263535D01*
X17887999Y50399999D02*
X14833079Y47345079D01*
X27372541Y50399999D02*
X17887999Y50399999D01*
X5238544Y18669000D02*
X5080000Y18669000D01*
X32858009Y55885467D02*
X27372541Y50399999D01*
X33522533Y55885467D02*
X32858009Y55885467D01*
%TO.N,/GP7_AD0*%
X5080000Y26408998D02*
X5080000Y26289000D01*
X13633059Y34842059D02*
X5080000Y26289000D01*
X13633059Y66465059D02*
X13633059Y34842059D01*
X19050000Y71882000D02*
X13633059Y66465059D01*
%TO.N,/GP6_INT*%
X19050000Y74422000D02*
X13033049Y68405049D01*
X13033049Y58340951D02*
X13033049Y36782049D01*
X13033049Y68405049D02*
X13033049Y58340951D01*
X13033049Y61166049D02*
X13033049Y58340951D01*
X13033049Y36782049D02*
X5080000Y28829000D01*
%TO.N,/GP21_I2C0_SCL*%
X3829999Y17379001D02*
X5080000Y16129000D01*
X3829999Y19269001D02*
X3829999Y17379001D01*
X4479999Y19919001D02*
X3829999Y19269001D01*
X32258000Y56896000D02*
X32258000Y56896000D01*
X5640003Y19919001D02*
X5226999Y19919001D01*
X14233069Y49031069D02*
X14233069Y28512067D01*
X17926001Y52724001D02*
X14233069Y49031069D01*
X28848001Y52724001D02*
X17926001Y52724001D01*
X32258000Y56896000D02*
X32258000Y56134000D01*
X32258000Y56134000D02*
X28848001Y52724001D01*
X5226999Y19919001D02*
X4479999Y19919001D01*
X14233069Y28512067D02*
X5640003Y19919001D01*
X5568001Y19919001D02*
X5226999Y19919001D01*
%TO.N,/GP27_ADC1*%
X70104000Y76200000D02*
X69596000Y76708000D01*
X60833000Y77978000D02*
X68326000Y77978000D01*
X68326000Y77978000D02*
X69596000Y76708000D01*
X58293000Y80518000D02*
X60833000Y77978000D01*
X42926000Y80518000D02*
X58293000Y80518000D01*
X36830000Y74422000D02*
X42926000Y80518000D01*
X70475934Y75828066D02*
X69596000Y76708000D01*
X79461730Y75828066D02*
X70475934Y75828066D01*
X83661796Y71628000D02*
X79461730Y75828066D01*
X94996000Y71628000D02*
X83661796Y71628000D01*
%TO.N,/GP26_ADC0*%
X36830000Y71882000D02*
X44865990Y79917990D01*
X44865990Y79917990D02*
X58044468Y79917990D01*
X61254458Y76708000D02*
X64516000Y76708000D01*
X58044468Y79917990D02*
X61254458Y76708000D01*
X65995944Y75228056D02*
X64516000Y76708000D01*
X79213198Y75228056D02*
X65995944Y75228056D01*
X87998040Y66443214D02*
X79213198Y75228056D01*
X87998040Y63385960D02*
X87998040Y66443214D01*
X94996000Y56388000D02*
X87998040Y63385960D01*
%TO.N,Net-(C0-Pad1)*%
X38100000Y13716000D02*
X33020000Y8636000D01*
%TO.N,Net-(C1-Pad1)*%
X38100000Y18796000D02*
X33020000Y13716000D01*
%TO.N,Net-(C2-Pad1)*%
X38100000Y23876000D02*
X33020000Y18796000D01*
%TO.N,Net-(C5-Pad1)*%
X76200000Y84582000D02*
X81280000Y89662000D01*
%TO.N,Net-(SW2-Pad1)*%
X47856000Y4826000D02*
X54356000Y4826000D01*
%TO.N,/SW0*%
X19050000Y49022000D02*
X17526000Y47498000D01*
X78922000Y8636000D02*
X78232000Y9326000D01*
X82550000Y8636000D02*
X78922000Y8636000D01*
X78232000Y9326000D02*
X71732000Y9326000D01*
X43100000Y11161456D02*
X43100000Y13716000D01*
X47241465Y7019991D02*
X43100000Y11161456D01*
X75925991Y7019991D02*
X47241465Y7019991D01*
X78232000Y9326000D02*
X75925991Y7019991D01*
X43100000Y13716000D02*
X43100000Y16336000D01*
X39439999Y19996001D02*
X36760001Y19996001D01*
X43100000Y16336000D02*
X39439999Y19996001D01*
X36760001Y19996001D02*
X34359999Y17595999D01*
X26515457Y17595999D02*
X17526000Y26585456D01*
X17526000Y26585456D02*
X17526000Y44958000D01*
X34359999Y17595999D02*
X26515457Y17595999D01*
X17526000Y44958000D02*
X17526000Y44196000D01*
X17526000Y47498000D02*
X17526000Y44958000D01*
%TO.N,/SW1*%
X82550000Y13716000D02*
X80010000Y11176000D01*
X68144000Y11176000D02*
X66294000Y9326000D01*
X80010000Y11176000D02*
X68144000Y11176000D01*
X66294000Y9326000D02*
X59794000Y9326000D01*
X45212000Y16684000D02*
X43100000Y18796000D01*
X45212000Y9897998D02*
X45212000Y16684000D01*
X47489998Y7620000D02*
X45212000Y9897998D01*
X64588000Y7620000D02*
X47489998Y7620000D01*
X66294000Y9326000D02*
X64588000Y7620000D01*
X38676001Y25076001D02*
X36760001Y25076001D01*
X43100000Y20652002D02*
X38676001Y25076001D01*
X43100000Y18796000D02*
X43100000Y20652002D01*
X36760001Y25076001D02*
X34036000Y22352000D01*
X19050000Y25909998D02*
X19050000Y43942000D01*
X22607998Y22352000D02*
X19050000Y25909998D01*
X34036000Y22352000D02*
X22607998Y22352000D01*
X19050000Y43942000D02*
X19050000Y43520542D01*
X19050000Y46482000D02*
X19050000Y43942000D01*
%TO.N,/SW2*%
X36830000Y46482000D02*
X36830000Y42926000D01*
X82550000Y18796000D02*
X82550000Y16256000D01*
X82550000Y16256000D02*
X78740000Y12446000D01*
X57476000Y12446000D02*
X54356000Y9326000D01*
X78740000Y12446000D02*
X57476000Y12446000D01*
X54356000Y9326000D02*
X54356000Y11430000D01*
X43100000Y22686000D02*
X43100000Y23876000D01*
X54356000Y11430000D02*
X43100000Y22686000D01*
X54356000Y9326000D02*
X47856000Y9326000D01*
X43100000Y36656000D02*
X38100000Y41656000D01*
X43100000Y23876000D02*
X43100000Y36656000D01*
X38100000Y41656000D02*
X38227000Y41529000D01*
X36830000Y42926000D02*
X38100000Y41656000D01*
%TD*%
M02*
