%TF.GenerationSoftware,KiCad,Pcbnew,5.1.9-73d0e3b20d~88~ubuntu20.04.1*%
%TF.CreationDate,2021-02-13T16:05:57-05:00*%
%TF.ProjectId,kiwikit-rpi-pico,6b697769-6b69-4742-9d72-70692d706963,rev?*%
%TF.SameCoordinates,PX2faf080PY8f0d180*%
%TF.FileFunction,Legend,Top*%
%TF.FilePolarity,Positive*%
%FSLAX46Y46*%
G04 Gerber Fmt 4.6, Leading zero omitted, Abs format (unit mm)*
G04 Created by KiCad (PCBNEW 5.1.9-73d0e3b20d~88~ubuntu20.04.1) date 2021-02-13 16:05:57*
%MOMM*%
%LPD*%
G01*
G04 APERTURE LIST*
%ADD10C,0.150000*%
%ADD11C,0.300000*%
%ADD12C,0.600000*%
%ADD13C,0.120000*%
G04 APERTURE END LIST*
D10*
X30035761Y32059667D02*
X29988142Y32107286D01*
X29892904Y32250143D01*
X29845285Y32345381D01*
X29797666Y32488239D01*
X29750047Y32726334D01*
X29750047Y32916810D01*
X29797666Y33154905D01*
X29845285Y33297762D01*
X29892904Y33393000D01*
X29988142Y33535858D01*
X30035761Y33583477D01*
X30940523Y33393000D02*
X30845285Y33440620D01*
X30702428Y33440620D01*
X30559571Y33393000D01*
X30464333Y33297762D01*
X30416714Y33202524D01*
X30369095Y33012048D01*
X30369095Y32869191D01*
X30416714Y32678715D01*
X30464333Y32583477D01*
X30559571Y32488239D01*
X30702428Y32440620D01*
X30797666Y32440620D01*
X30940523Y32488239D01*
X30988142Y32535858D01*
X30988142Y32869191D01*
X30797666Y32869191D01*
X31416714Y32440620D02*
X31416714Y33440620D01*
X31797666Y33440620D01*
X31892904Y33393000D01*
X31940523Y33345381D01*
X31988142Y33250143D01*
X31988142Y33107286D01*
X31940523Y33012048D01*
X31892904Y32964429D01*
X31797666Y32916810D01*
X31416714Y32916810D01*
X32940523Y32440620D02*
X32369095Y32440620D01*
X32654809Y32440620D02*
X32654809Y33440620D01*
X32559571Y33297762D01*
X32464333Y33202524D01*
X32369095Y33154905D01*
X33273857Y33440620D02*
X33940523Y33440620D01*
X33511952Y32440620D01*
X34226238Y32059667D02*
X34273857Y32107286D01*
X34369095Y32250143D01*
X34416714Y32345381D01*
X34464333Y32488239D01*
X34511952Y32726334D01*
X34511952Y32916810D01*
X34464333Y33154905D01*
X34416714Y33297762D01*
X34369095Y33393000D01*
X34273857Y33535858D01*
X34226238Y33583477D01*
X21653761Y32059667D02*
X21606142Y32107286D01*
X21510904Y32250143D01*
X21463285Y32345381D01*
X21415666Y32488239D01*
X21368047Y32726334D01*
X21368047Y32916810D01*
X21415666Y33154905D01*
X21463285Y33297762D01*
X21510904Y33393000D01*
X21606142Y33535858D01*
X21653761Y33583477D01*
X22558523Y33393000D02*
X22463285Y33440620D01*
X22320428Y33440620D01*
X22177571Y33393000D01*
X22082333Y33297762D01*
X22034714Y33202524D01*
X21987095Y33012048D01*
X21987095Y32869191D01*
X22034714Y32678715D01*
X22082333Y32583477D01*
X22177571Y32488239D01*
X22320428Y32440620D01*
X22415666Y32440620D01*
X22558523Y32488239D01*
X22606142Y32535858D01*
X22606142Y32869191D01*
X22415666Y32869191D01*
X23034714Y32440620D02*
X23034714Y33440620D01*
X23415666Y33440620D01*
X23510904Y33393000D01*
X23558523Y33345381D01*
X23606142Y33250143D01*
X23606142Y33107286D01*
X23558523Y33012048D01*
X23510904Y32964429D01*
X23415666Y32916810D01*
X23034714Y32916810D01*
X23987095Y33345381D02*
X24034714Y33393000D01*
X24129952Y33440620D01*
X24368047Y33440620D01*
X24463285Y33393000D01*
X24510904Y33345381D01*
X24558523Y33250143D01*
X24558523Y33154905D01*
X24510904Y33012048D01*
X23939476Y32440620D01*
X24558523Y32440620D01*
X24939476Y33345381D02*
X24987095Y33393000D01*
X25082333Y33440620D01*
X25320428Y33440620D01*
X25415666Y33393000D01*
X25463285Y33345381D01*
X25510904Y33250143D01*
X25510904Y33154905D01*
X25463285Y33012048D01*
X24891857Y32440620D01*
X25510904Y32440620D01*
X25844238Y32059667D02*
X25891857Y32107286D01*
X25987095Y32250143D01*
X26034714Y32345381D01*
X26082333Y32488239D01*
X26129952Y32726334D01*
X26129952Y32916810D01*
X26082333Y33154905D01*
X26034714Y33297762D01*
X25987095Y33393000D01*
X25891857Y33535858D01*
X25844238Y33583477D01*
X74485714Y1706667D02*
X74438095Y1754286D01*
X74342857Y1897143D01*
X74295238Y1992381D01*
X74247619Y2135239D01*
X74200000Y2373334D01*
X74200000Y2563810D01*
X74247619Y2801905D01*
X74295238Y2944762D01*
X74342857Y3040000D01*
X74438095Y3182858D01*
X74485714Y3230477D01*
X75390476Y3040000D02*
X75295238Y3087620D01*
X75152380Y3087620D01*
X75009523Y3040000D01*
X74914285Y2944762D01*
X74866666Y2849524D01*
X74819047Y2659048D01*
X74819047Y2516191D01*
X74866666Y2325715D01*
X74914285Y2230477D01*
X75009523Y2135239D01*
X75152380Y2087620D01*
X75247619Y2087620D01*
X75390476Y2135239D01*
X75438095Y2182858D01*
X75438095Y2516191D01*
X75247619Y2516191D01*
X75866666Y2087620D02*
X75866666Y3087620D01*
X76247619Y3087620D01*
X76342857Y3040000D01*
X76390476Y2992381D01*
X76438095Y2897143D01*
X76438095Y2754286D01*
X76390476Y2659048D01*
X76342857Y2611429D01*
X76247619Y2563810D01*
X75866666Y2563810D01*
X77390476Y2087620D02*
X76819047Y2087620D01*
X77104761Y2087620D02*
X77104761Y3087620D01*
X77009523Y2944762D01*
X76914285Y2849524D01*
X76819047Y2801905D01*
X78247619Y2754286D02*
X78247619Y2087620D01*
X78009523Y3135239D02*
X77771428Y2420953D01*
X78390476Y2420953D01*
X78676190Y1706667D02*
X78723809Y1754286D01*
X78819047Y1897143D01*
X78866666Y1992381D01*
X78914285Y2135239D01*
X78961904Y2373334D01*
X78961904Y2563810D01*
X78914285Y2801905D01*
X78866666Y2944762D01*
X78819047Y3040000D01*
X78723809Y3182858D01*
X78676190Y3230477D01*
X62801714Y1706667D02*
X62754095Y1754286D01*
X62658857Y1897143D01*
X62611238Y1992381D01*
X62563619Y2135239D01*
X62516000Y2373334D01*
X62516000Y2563810D01*
X62563619Y2801905D01*
X62611238Y2944762D01*
X62658857Y3040000D01*
X62754095Y3182858D01*
X62801714Y3230477D01*
X63706476Y3040000D02*
X63611238Y3087620D01*
X63468380Y3087620D01*
X63325523Y3040000D01*
X63230285Y2944762D01*
X63182666Y2849524D01*
X63135047Y2659048D01*
X63135047Y2516191D01*
X63182666Y2325715D01*
X63230285Y2230477D01*
X63325523Y2135239D01*
X63468380Y2087620D01*
X63563619Y2087620D01*
X63706476Y2135239D01*
X63754095Y2182858D01*
X63754095Y2516191D01*
X63563619Y2516191D01*
X64182666Y2087620D02*
X64182666Y3087620D01*
X64563619Y3087620D01*
X64658857Y3040000D01*
X64706476Y2992381D01*
X64754095Y2897143D01*
X64754095Y2754286D01*
X64706476Y2659048D01*
X64658857Y2611429D01*
X64563619Y2563810D01*
X64182666Y2563810D01*
X65706476Y2087620D02*
X65135047Y2087620D01*
X65420761Y2087620D02*
X65420761Y3087620D01*
X65325523Y2944762D01*
X65230285Y2849524D01*
X65135047Y2801905D01*
X66611238Y3087620D02*
X66135047Y3087620D01*
X66087428Y2611429D01*
X66135047Y2659048D01*
X66230285Y2706667D01*
X66468380Y2706667D01*
X66563619Y2659048D01*
X66611238Y2611429D01*
X66658857Y2516191D01*
X66658857Y2278096D01*
X66611238Y2182858D01*
X66563619Y2135239D01*
X66468380Y2087620D01*
X66230285Y2087620D01*
X66135047Y2135239D01*
X66087428Y2182858D01*
X66992190Y1706667D02*
X67039809Y1754286D01*
X67135047Y1897143D01*
X67182666Y1992381D01*
X67230285Y2135239D01*
X67277904Y2373334D01*
X67277904Y2563810D01*
X67230285Y2801905D01*
X67182666Y2944762D01*
X67135047Y3040000D01*
X67039809Y3182858D01*
X66992190Y3230477D01*
X50609714Y1706667D02*
X50562095Y1754286D01*
X50466857Y1897143D01*
X50419238Y1992381D01*
X50371619Y2135239D01*
X50324000Y2373334D01*
X50324000Y2563810D01*
X50371619Y2801905D01*
X50419238Y2944762D01*
X50466857Y3040000D01*
X50562095Y3182858D01*
X50609714Y3230477D01*
X51514476Y3040000D02*
X51419238Y3087620D01*
X51276380Y3087620D01*
X51133523Y3040000D01*
X51038285Y2944762D01*
X50990666Y2849524D01*
X50943047Y2659048D01*
X50943047Y2516191D01*
X50990666Y2325715D01*
X51038285Y2230477D01*
X51133523Y2135239D01*
X51276380Y2087620D01*
X51371619Y2087620D01*
X51514476Y2135239D01*
X51562095Y2182858D01*
X51562095Y2516191D01*
X51371619Y2516191D01*
X51990666Y2087620D02*
X51990666Y3087620D01*
X52371619Y3087620D01*
X52466857Y3040000D01*
X52514476Y2992381D01*
X52562095Y2897143D01*
X52562095Y2754286D01*
X52514476Y2659048D01*
X52466857Y2611429D01*
X52371619Y2563810D01*
X51990666Y2563810D01*
X53514476Y2087620D02*
X52943047Y2087620D01*
X53228761Y2087620D02*
X53228761Y3087620D01*
X53133523Y2944762D01*
X53038285Y2849524D01*
X52943047Y2801905D01*
X54371619Y3087620D02*
X54181142Y3087620D01*
X54085904Y3040000D01*
X54038285Y2992381D01*
X53943047Y2849524D01*
X53895428Y2659048D01*
X53895428Y2278096D01*
X53943047Y2182858D01*
X53990666Y2135239D01*
X54085904Y2087620D01*
X54276380Y2087620D01*
X54371619Y2135239D01*
X54419238Y2182858D01*
X54466857Y2278096D01*
X54466857Y2516191D01*
X54419238Y2611429D01*
X54371619Y2659048D01*
X54276380Y2706667D01*
X54085904Y2706667D01*
X53990666Y2659048D01*
X53943047Y2611429D01*
X53895428Y2516191D01*
X54800190Y1706667D02*
X54847809Y1754286D01*
X54943047Y1897143D01*
X54990666Y1992381D01*
X55038285Y2135239D01*
X55085904Y2373334D01*
X55085904Y2563810D01*
X55038285Y2801905D01*
X54990666Y2944762D01*
X54943047Y3040000D01*
X54847809Y3182858D01*
X54800190Y3230477D01*
X47434761Y88637667D02*
X47387142Y88685286D01*
X47291904Y88828143D01*
X47244285Y88923381D01*
X47196666Y89066239D01*
X47149047Y89304334D01*
X47149047Y89494810D01*
X47196666Y89732905D01*
X47244285Y89875762D01*
X47291904Y89971000D01*
X47387142Y90113858D01*
X47434761Y90161477D01*
X48339523Y89971000D02*
X48244285Y90018620D01*
X48101428Y90018620D01*
X47958571Y89971000D01*
X47863333Y89875762D01*
X47815714Y89780524D01*
X47768095Y89590048D01*
X47768095Y89447191D01*
X47815714Y89256715D01*
X47863333Y89161477D01*
X47958571Y89066239D01*
X48101428Y89018620D01*
X48196666Y89018620D01*
X48339523Y89066239D01*
X48387142Y89113858D01*
X48387142Y89447191D01*
X48196666Y89447191D01*
X48815714Y89018620D02*
X48815714Y90018620D01*
X49196666Y90018620D01*
X49291904Y89971000D01*
X49339523Y89923381D01*
X49387142Y89828143D01*
X49387142Y89685286D01*
X49339523Y89590048D01*
X49291904Y89542429D01*
X49196666Y89494810D01*
X48815714Y89494810D01*
X49768095Y89923381D02*
X49815714Y89971000D01*
X49910952Y90018620D01*
X50149047Y90018620D01*
X50244285Y89971000D01*
X50291904Y89923381D01*
X50339523Y89828143D01*
X50339523Y89732905D01*
X50291904Y89590048D01*
X49720476Y89018620D01*
X50339523Y89018620D01*
X50910952Y89590048D02*
X50815714Y89637667D01*
X50768095Y89685286D01*
X50720476Y89780524D01*
X50720476Y89828143D01*
X50768095Y89923381D01*
X50815714Y89971000D01*
X50910952Y90018620D01*
X51101428Y90018620D01*
X51196666Y89971000D01*
X51244285Y89923381D01*
X51291904Y89828143D01*
X51291904Y89780524D01*
X51244285Y89685286D01*
X51196666Y89637667D01*
X51101428Y89590048D01*
X50910952Y89590048D01*
X50815714Y89542429D01*
X50768095Y89494810D01*
X50720476Y89399572D01*
X50720476Y89209096D01*
X50768095Y89113858D01*
X50815714Y89066239D01*
X50910952Y89018620D01*
X51101428Y89018620D01*
X51196666Y89066239D01*
X51244285Y89113858D01*
X51291904Y89209096D01*
X51291904Y89399572D01*
X51244285Y89494810D01*
X51196666Y89542429D01*
X51101428Y89590048D01*
X51625238Y88637667D02*
X51672857Y88685286D01*
X51768095Y88828143D01*
X51815714Y88923381D01*
X51863333Y89066239D01*
X51910952Y89304334D01*
X51910952Y89494810D01*
X51863333Y89732905D01*
X51815714Y89875762D01*
X51768095Y89971000D01*
X51672857Y90113858D01*
X51625238Y90161477D01*
X47815714Y87654334D02*
X48291904Y87654334D01*
X47720476Y87368620D02*
X48053809Y88368620D01*
X48387142Y87368620D01*
X48720476Y87368620D02*
X48720476Y88368620D01*
X48958571Y88368620D01*
X49101428Y88321000D01*
X49196666Y88225762D01*
X49244285Y88130524D01*
X49291904Y87940048D01*
X49291904Y87797191D01*
X49244285Y87606715D01*
X49196666Y87511477D01*
X49101428Y87416239D01*
X48958571Y87368620D01*
X48720476Y87368620D01*
X50291904Y87463858D02*
X50244285Y87416239D01*
X50101428Y87368620D01*
X50006190Y87368620D01*
X49863333Y87416239D01*
X49768095Y87511477D01*
X49720476Y87606715D01*
X49672857Y87797191D01*
X49672857Y87940048D01*
X49720476Y88130524D01*
X49768095Y88225762D01*
X49863333Y88321000D01*
X50006190Y88368620D01*
X50101428Y88368620D01*
X50244285Y88321000D01*
X50291904Y88273381D01*
X50672857Y88273381D02*
X50720476Y88321000D01*
X50815714Y88368620D01*
X51053809Y88368620D01*
X51149047Y88321000D01*
X51196666Y88273381D01*
X51244285Y88178143D01*
X51244285Y88082905D01*
X51196666Y87940048D01*
X50625238Y87368620D01*
X51244285Y87368620D01*
D11*
X5269642Y88856429D02*
X5457142Y90356429D01*
X6028571Y90356429D01*
X6162500Y90285000D01*
X6225000Y90213572D01*
X6278571Y90070715D01*
X6251785Y89856429D01*
X6162500Y89713572D01*
X6082142Y89642143D01*
X5930357Y89570715D01*
X5358928Y89570715D01*
X7242857Y90356429D02*
X7528571Y90356429D01*
X7662500Y90285000D01*
X7787500Y90142143D01*
X7823214Y89856429D01*
X7760714Y89356429D01*
X7653571Y89070715D01*
X7492857Y88927858D01*
X7341071Y88856429D01*
X7055357Y88856429D01*
X6921428Y88927858D01*
X6796428Y89070715D01*
X6760714Y89356429D01*
X6823214Y89856429D01*
X6930357Y90142143D01*
X7091071Y90285000D01*
X7242857Y90356429D01*
X8385714Y90356429D02*
X8555357Y88856429D01*
X8975000Y89927858D01*
X9126785Y88856429D01*
X9671428Y90356429D01*
X10153571Y89642143D02*
X10653571Y89642143D01*
X10769642Y88856429D02*
X10055357Y88856429D01*
X10242857Y90356429D01*
X10957142Y90356429D01*
X12269642Y88856429D02*
X11858928Y89570715D01*
X11412500Y88856429D02*
X11600000Y90356429D01*
X12171428Y90356429D01*
X12305357Y90285000D01*
X12367857Y90213572D01*
X12421428Y90070715D01*
X12394642Y89856429D01*
X12305357Y89713572D01*
X12225000Y89642143D01*
X12073214Y89570715D01*
X11501785Y89570715D01*
X85073357Y2369429D02*
X85260857Y3869429D01*
X85930500Y2369429D02*
X85394785Y3226572D01*
X86118000Y3869429D02*
X85153714Y3012286D01*
X86573357Y2369429D02*
X86698357Y3369429D01*
X86760857Y3869429D02*
X86680500Y3798000D01*
X86743000Y3726572D01*
X86823357Y3798000D01*
X86760857Y3869429D01*
X86743000Y3726572D01*
X87930500Y2369429D02*
X88028714Y3155143D01*
X87975142Y3298000D01*
X87841214Y3369429D01*
X87555500Y3369429D01*
X87403714Y3298000D01*
X87939428Y2440858D02*
X87787642Y2369429D01*
X87430500Y2369429D01*
X87296571Y2440858D01*
X87243000Y2583715D01*
X87260857Y2726572D01*
X87350142Y2869429D01*
X87501928Y2940858D01*
X87859071Y2940858D01*
X88010857Y3012286D01*
X90001928Y2369429D02*
X89868000Y2440858D01*
X89805500Y2512286D01*
X89751928Y2655143D01*
X89805500Y3083715D01*
X89894785Y3226572D01*
X89975142Y3298000D01*
X90126928Y3369429D01*
X90341214Y3369429D01*
X90475142Y3298000D01*
X90537642Y3226572D01*
X90591214Y3083715D01*
X90537642Y2655143D01*
X90448357Y2512286D01*
X90368000Y2440858D01*
X90216214Y2369429D01*
X90001928Y2369429D01*
X91144785Y2369429D02*
X91269785Y3369429D01*
X91234071Y3083715D02*
X91323357Y3226572D01*
X91403714Y3298000D01*
X91555500Y3369429D01*
X91698357Y3369429D01*
X92716214Y2369429D02*
X92814428Y3155143D01*
X92760857Y3298000D01*
X92626928Y3369429D01*
X92341214Y3369429D01*
X92189428Y3298000D01*
X92725142Y2440858D02*
X92573357Y2369429D01*
X92216214Y2369429D01*
X92082285Y2440858D01*
X92028714Y2583715D01*
X92046571Y2726572D01*
X92135857Y2869429D01*
X92287642Y2940858D01*
X92644785Y2940858D01*
X92796571Y3012286D01*
X93448357Y2512286D02*
X93510857Y2440858D01*
X93430500Y2369429D01*
X93368000Y2440858D01*
X93448357Y2512286D01*
X93430500Y2369429D01*
X93501928Y2940858D02*
X93537642Y3798000D01*
X93618000Y3869429D01*
X93680500Y3798000D01*
X93501928Y2940858D01*
X93618000Y3869429D01*
D10*
X24470171Y99201220D02*
X24470171Y98391696D01*
X24517790Y98296458D01*
X24565409Y98248839D01*
X24660647Y98201220D01*
X24851123Y98201220D01*
X24946361Y98248839D01*
X24993980Y98296458D01*
X25041600Y98391696D01*
X25041600Y99201220D01*
X25470171Y98248839D02*
X25613028Y98201220D01*
X25851123Y98201220D01*
X25946361Y98248839D01*
X25993980Y98296458D01*
X26041600Y98391696D01*
X26041600Y98486934D01*
X25993980Y98582172D01*
X25946361Y98629791D01*
X25851123Y98677410D01*
X25660647Y98725029D01*
X25565409Y98772648D01*
X25517790Y98820267D01*
X25470171Y98915505D01*
X25470171Y99010743D01*
X25517790Y99105981D01*
X25565409Y99153600D01*
X25660647Y99201220D01*
X25898742Y99201220D01*
X26041600Y99153600D01*
X26803504Y98725029D02*
X26946361Y98677410D01*
X26993980Y98629791D01*
X27041600Y98534553D01*
X27041600Y98391696D01*
X26993980Y98296458D01*
X26946361Y98248839D01*
X26851123Y98201220D01*
X26470171Y98201220D01*
X26470171Y99201220D01*
X26803504Y99201220D01*
X26898742Y99153600D01*
X26946361Y99105981D01*
X26993980Y99010743D01*
X26993980Y98915505D01*
X26946361Y98820267D01*
X26898742Y98772648D01*
X26803504Y98725029D01*
X26470171Y98725029D01*
X28232076Y98201220D02*
X28232076Y99201220D01*
X28232076Y98725029D02*
X28803504Y98725029D01*
X28803504Y98201220D02*
X28803504Y99201220D01*
X29279695Y98725029D02*
X29613028Y98725029D01*
X29755885Y98201220D02*
X29279695Y98201220D01*
X29279695Y99201220D01*
X29755885Y99201220D01*
X30755885Y98201220D02*
X30422552Y98677410D01*
X30184457Y98201220D02*
X30184457Y99201220D01*
X30565409Y99201220D01*
X30660647Y99153600D01*
X30708266Y99105981D01*
X30755885Y99010743D01*
X30755885Y98867886D01*
X30708266Y98772648D01*
X30660647Y98725029D01*
X30565409Y98677410D01*
X30184457Y98677410D01*
X31184457Y98725029D02*
X31517790Y98725029D01*
X31660647Y98201220D02*
X31184457Y98201220D01*
X31184457Y99201220D01*
X31660647Y99201220D01*
D11*
X85993857Y84601929D02*
X85583142Y85316215D01*
X85136714Y84601929D02*
X85324214Y86101929D01*
X85895642Y86101929D01*
X86029571Y86030500D01*
X86092071Y85959072D01*
X86145642Y85816215D01*
X86118857Y85601929D01*
X86029571Y85459072D01*
X85949214Y85387643D01*
X85797428Y85316215D01*
X85226000Y85316215D01*
X86734928Y85387643D02*
X87234928Y85387643D01*
X87351000Y84601929D02*
X86636714Y84601929D01*
X86824214Y86101929D01*
X87538500Y86101929D01*
X87931357Y84673358D02*
X88136714Y84601929D01*
X88493857Y84601929D01*
X88645642Y84673358D01*
X88726000Y84744786D01*
X88815285Y84887643D01*
X88833142Y85030500D01*
X88779571Y85173358D01*
X88717071Y85244786D01*
X88583142Y85316215D01*
X88306357Y85387643D01*
X88172428Y85459072D01*
X88109928Y85530500D01*
X88056357Y85673358D01*
X88074214Y85816215D01*
X88163500Y85959072D01*
X88243857Y86030500D01*
X88395642Y86101929D01*
X88752785Y86101929D01*
X88958142Y86030500D01*
X89520642Y85387643D02*
X90020642Y85387643D01*
X90136714Y84601929D02*
X89422428Y84601929D01*
X89609928Y86101929D01*
X90324214Y86101929D01*
X90752785Y86101929D02*
X91609928Y86101929D01*
X90993857Y84601929D02*
X91181357Y86101929D01*
D10*
X89723642Y69715000D02*
X89628404Y69762620D01*
X89485547Y69762620D01*
X89342690Y69715000D01*
X89247452Y69619762D01*
X89199833Y69524524D01*
X89152214Y69334048D01*
X89152214Y69191191D01*
X89199833Y69000715D01*
X89247452Y68905477D01*
X89342690Y68810239D01*
X89485547Y68762620D01*
X89580785Y68762620D01*
X89723642Y68810239D01*
X89771261Y68857858D01*
X89771261Y69191191D01*
X89580785Y69191191D01*
X90199833Y68762620D02*
X90199833Y69762620D01*
X90771261Y68762620D01*
X90771261Y69762620D01*
X91247452Y68762620D02*
X91247452Y69762620D01*
X91485547Y69762620D01*
X91628404Y69715000D01*
X91723642Y69619762D01*
X91771261Y69524524D01*
X91818880Y69334048D01*
X91818880Y69191191D01*
X91771261Y69000715D01*
X91723642Y68905477D01*
X91628404Y68810239D01*
X91485547Y68762620D01*
X91247452Y68762620D01*
X92199833Y69048334D02*
X92676023Y69048334D01*
X92104595Y68762620D02*
X92437928Y69762620D01*
X92771261Y68762620D01*
X89247452Y74842620D02*
X89580785Y73842620D01*
X89914119Y74842620D01*
X90247452Y73842620D02*
X90247452Y74842620D01*
X90485547Y74842620D01*
X90628404Y74795000D01*
X90723642Y74699762D01*
X90771261Y74604524D01*
X90818880Y74414048D01*
X90818880Y74271191D01*
X90771261Y74080715D01*
X90723642Y73985477D01*
X90628404Y73890239D01*
X90485547Y73842620D01*
X90247452Y73842620D01*
X91247452Y73842620D02*
X91247452Y74842620D01*
X91485547Y74842620D01*
X91628404Y74795000D01*
X91723642Y74699762D01*
X91771261Y74604524D01*
X91818880Y74414048D01*
X91818880Y74271191D01*
X91771261Y74080715D01*
X91723642Y73985477D01*
X91628404Y73890239D01*
X91485547Y73842620D01*
X91247452Y73842620D01*
X92199833Y74128334D02*
X92676023Y74128334D01*
X92104595Y73842620D02*
X92437928Y74842620D01*
X92771261Y73842620D01*
X83580785Y70921667D02*
X83533166Y70969286D01*
X83437928Y71112143D01*
X83390309Y71207381D01*
X83342690Y71350239D01*
X83295071Y71588334D01*
X83295071Y71778810D01*
X83342690Y72016905D01*
X83390309Y72159762D01*
X83437928Y72255000D01*
X83533166Y72397858D01*
X83580785Y72445477D01*
X84485547Y72255000D02*
X84390309Y72302620D01*
X84247452Y72302620D01*
X84104595Y72255000D01*
X84009357Y72159762D01*
X83961738Y72064524D01*
X83914119Y71874048D01*
X83914119Y71731191D01*
X83961738Y71540715D01*
X84009357Y71445477D01*
X84104595Y71350239D01*
X84247452Y71302620D01*
X84342690Y71302620D01*
X84485547Y71350239D01*
X84533166Y71397858D01*
X84533166Y71731191D01*
X84342690Y71731191D01*
X84961738Y71302620D02*
X84961738Y72302620D01*
X85342690Y72302620D01*
X85437928Y72255000D01*
X85485547Y72207381D01*
X85533166Y72112143D01*
X85533166Y71969286D01*
X85485547Y71874048D01*
X85437928Y71826429D01*
X85342690Y71778810D01*
X84961738Y71778810D01*
X85914119Y72207381D02*
X85961738Y72255000D01*
X86056976Y72302620D01*
X86295071Y72302620D01*
X86390309Y72255000D01*
X86437928Y72207381D01*
X86485547Y72112143D01*
X86485547Y72016905D01*
X86437928Y71874048D01*
X85866500Y71302620D01*
X86485547Y71302620D01*
X86818880Y72302620D02*
X87485547Y72302620D01*
X87056976Y71302620D01*
X87771261Y70921667D02*
X87818880Y70969286D01*
X87914119Y71112143D01*
X87961738Y71207381D01*
X88009357Y71350239D01*
X88056976Y71588334D01*
X88056976Y71778810D01*
X88009357Y72016905D01*
X87961738Y72159762D01*
X87914119Y72255000D01*
X87818880Y72397858D01*
X87771261Y72445477D01*
X89247452Y71588334D02*
X89723642Y71588334D01*
X89152214Y71302620D02*
X89485547Y72302620D01*
X89818880Y71302620D01*
X90152214Y71302620D02*
X90152214Y72302620D01*
X90390309Y72302620D01*
X90533166Y72255000D01*
X90628404Y72159762D01*
X90676023Y72064524D01*
X90723642Y71874048D01*
X90723642Y71731191D01*
X90676023Y71540715D01*
X90628404Y71445477D01*
X90533166Y71350239D01*
X90390309Y71302620D01*
X90152214Y71302620D01*
X91723642Y71397858D02*
X91676023Y71350239D01*
X91533166Y71302620D01*
X91437928Y71302620D01*
X91295071Y71350239D01*
X91199833Y71445477D01*
X91152214Y71540715D01*
X91104595Y71731191D01*
X91104595Y71874048D01*
X91152214Y72064524D01*
X91199833Y72159762D01*
X91295071Y72255000D01*
X91437928Y72302620D01*
X91533166Y72302620D01*
X91676023Y72255000D01*
X91723642Y72207381D01*
X92676023Y71302620D02*
X92104595Y71302620D01*
X92390309Y71302620D02*
X92390309Y72302620D01*
X92295071Y72159762D01*
X92199833Y72064524D01*
X92104595Y72016905D01*
X89374452Y59475620D02*
X89707785Y58475620D01*
X90041119Y59475620D01*
X90374452Y58475620D02*
X90374452Y59475620D01*
X90612547Y59475620D01*
X90755404Y59428000D01*
X90850642Y59332762D01*
X90898261Y59237524D01*
X90945880Y59047048D01*
X90945880Y58904191D01*
X90898261Y58713715D01*
X90850642Y58618477D01*
X90755404Y58523239D01*
X90612547Y58475620D01*
X90374452Y58475620D01*
X91374452Y58475620D02*
X91374452Y59475620D01*
X91612547Y59475620D01*
X91755404Y59428000D01*
X91850642Y59332762D01*
X91898261Y59237524D01*
X91945880Y59047048D01*
X91945880Y58904191D01*
X91898261Y58713715D01*
X91850642Y58618477D01*
X91755404Y58523239D01*
X91612547Y58475620D01*
X91374452Y58475620D01*
X92326833Y58761334D02*
X92803023Y58761334D01*
X92231595Y58475620D02*
X92564928Y59475620D01*
X92898261Y58475620D01*
X83707785Y55554667D02*
X83660166Y55602286D01*
X83564928Y55745143D01*
X83517309Y55840381D01*
X83469690Y55983239D01*
X83422071Y56221334D01*
X83422071Y56411810D01*
X83469690Y56649905D01*
X83517309Y56792762D01*
X83564928Y56888000D01*
X83660166Y57030858D01*
X83707785Y57078477D01*
X84612547Y56888000D02*
X84517309Y56935620D01*
X84374452Y56935620D01*
X84231595Y56888000D01*
X84136357Y56792762D01*
X84088738Y56697524D01*
X84041119Y56507048D01*
X84041119Y56364191D01*
X84088738Y56173715D01*
X84136357Y56078477D01*
X84231595Y55983239D01*
X84374452Y55935620D01*
X84469690Y55935620D01*
X84612547Y55983239D01*
X84660166Y56030858D01*
X84660166Y56364191D01*
X84469690Y56364191D01*
X85088738Y55935620D02*
X85088738Y56935620D01*
X85469690Y56935620D01*
X85564928Y56888000D01*
X85612547Y56840381D01*
X85660166Y56745143D01*
X85660166Y56602286D01*
X85612547Y56507048D01*
X85564928Y56459429D01*
X85469690Y56411810D01*
X85088738Y56411810D01*
X86041119Y56840381D02*
X86088738Y56888000D01*
X86183976Y56935620D01*
X86422071Y56935620D01*
X86517309Y56888000D01*
X86564928Y56840381D01*
X86612547Y56745143D01*
X86612547Y56649905D01*
X86564928Y56507048D01*
X85993500Y55935620D01*
X86612547Y55935620D01*
X87469690Y56935620D02*
X87279214Y56935620D01*
X87183976Y56888000D01*
X87136357Y56840381D01*
X87041119Y56697524D01*
X86993500Y56507048D01*
X86993500Y56126096D01*
X87041119Y56030858D01*
X87088738Y55983239D01*
X87183976Y55935620D01*
X87374452Y55935620D01*
X87469690Y55983239D01*
X87517309Y56030858D01*
X87564928Y56126096D01*
X87564928Y56364191D01*
X87517309Y56459429D01*
X87469690Y56507048D01*
X87374452Y56554667D01*
X87183976Y56554667D01*
X87088738Y56507048D01*
X87041119Y56459429D01*
X86993500Y56364191D01*
X87898261Y55554667D02*
X87945880Y55602286D01*
X88041119Y55745143D01*
X88088738Y55840381D01*
X88136357Y55983239D01*
X88183976Y56221334D01*
X88183976Y56411810D01*
X88136357Y56649905D01*
X88088738Y56792762D01*
X88041119Y56888000D01*
X87945880Y57030858D01*
X87898261Y57078477D01*
X89374452Y56221334D02*
X89850642Y56221334D01*
X89279214Y55935620D02*
X89612547Y56935620D01*
X89945880Y55935620D01*
X90279214Y55935620D02*
X90279214Y56935620D01*
X90517309Y56935620D01*
X90660166Y56888000D01*
X90755404Y56792762D01*
X90803023Y56697524D01*
X90850642Y56507048D01*
X90850642Y56364191D01*
X90803023Y56173715D01*
X90755404Y56078477D01*
X90660166Y55983239D01*
X90517309Y55935620D01*
X90279214Y55935620D01*
X91850642Y56030858D02*
X91803023Y55983239D01*
X91660166Y55935620D01*
X91564928Y55935620D01*
X91422071Y55983239D01*
X91326833Y56078477D01*
X91279214Y56173715D01*
X91231595Y56364191D01*
X91231595Y56507048D01*
X91279214Y56697524D01*
X91326833Y56792762D01*
X91422071Y56888000D01*
X91564928Y56935620D01*
X91660166Y56935620D01*
X91803023Y56888000D01*
X91850642Y56840381D01*
X92469690Y56935620D02*
X92564928Y56935620D01*
X92660166Y56888000D01*
X92707785Y56840381D01*
X92755404Y56745143D01*
X92803023Y56554667D01*
X92803023Y56316572D01*
X92755404Y56126096D01*
X92707785Y56030858D01*
X92660166Y55983239D01*
X92564928Y55935620D01*
X92469690Y55935620D01*
X92374452Y55983239D01*
X92326833Y56030858D01*
X92279214Y56126096D01*
X92231595Y56316572D01*
X92231595Y56554667D01*
X92279214Y56745143D01*
X92326833Y56840381D01*
X92374452Y56888000D01*
X92469690Y56935620D01*
X89850642Y54348000D02*
X89755404Y54395620D01*
X89612547Y54395620D01*
X89469690Y54348000D01*
X89374452Y54252762D01*
X89326833Y54157524D01*
X89279214Y53967048D01*
X89279214Y53824191D01*
X89326833Y53633715D01*
X89374452Y53538477D01*
X89469690Y53443239D01*
X89612547Y53395620D01*
X89707785Y53395620D01*
X89850642Y53443239D01*
X89898261Y53490858D01*
X89898261Y53824191D01*
X89707785Y53824191D01*
X90326833Y53395620D02*
X90326833Y54395620D01*
X90898261Y53395620D01*
X90898261Y54395620D01*
X91374452Y53395620D02*
X91374452Y54395620D01*
X91612547Y54395620D01*
X91755404Y54348000D01*
X91850642Y54252762D01*
X91898261Y54157524D01*
X91945880Y53967048D01*
X91945880Y53824191D01*
X91898261Y53633715D01*
X91850642Y53538477D01*
X91755404Y53443239D01*
X91612547Y53395620D01*
X91374452Y53395620D01*
X92326833Y53681334D02*
X92803023Y53681334D01*
X92231595Y53395620D02*
X92564928Y54395620D01*
X92898261Y53395620D01*
X84485547Y22788667D02*
X84437928Y22836286D01*
X84342690Y22979143D01*
X84295071Y23074381D01*
X84247452Y23217239D01*
X84199833Y23455334D01*
X84199833Y23645810D01*
X84247452Y23883905D01*
X84295071Y24026762D01*
X84342690Y24122000D01*
X84437928Y24264858D01*
X84485547Y24312477D01*
X85390309Y24122000D02*
X85295071Y24169620D01*
X85152214Y24169620D01*
X85009357Y24122000D01*
X84914119Y24026762D01*
X84866500Y23931524D01*
X84818880Y23741048D01*
X84818880Y23598191D01*
X84866500Y23407715D01*
X84914119Y23312477D01*
X85009357Y23217239D01*
X85152214Y23169620D01*
X85247452Y23169620D01*
X85390309Y23217239D01*
X85437928Y23264858D01*
X85437928Y23598191D01*
X85247452Y23598191D01*
X85866500Y23169620D02*
X85866500Y24169620D01*
X86247452Y24169620D01*
X86342690Y24122000D01*
X86390309Y24074381D01*
X86437928Y23979143D01*
X86437928Y23836286D01*
X86390309Y23741048D01*
X86342690Y23693429D01*
X86247452Y23645810D01*
X85866500Y23645810D01*
X87390309Y23169620D02*
X86818880Y23169620D01*
X87104595Y23169620D02*
X87104595Y24169620D01*
X87009357Y24026762D01*
X86914119Y23931524D01*
X86818880Y23883905D01*
X87723642Y24169620D02*
X88342690Y24169620D01*
X88009357Y23788667D01*
X88152214Y23788667D01*
X88247452Y23741048D01*
X88295071Y23693429D01*
X88342690Y23598191D01*
X88342690Y23360096D01*
X88295071Y23264858D01*
X88247452Y23217239D01*
X88152214Y23169620D01*
X87866500Y23169620D01*
X87771261Y23217239D01*
X87723642Y23264858D01*
X88676023Y22788667D02*
X88723642Y22836286D01*
X88818880Y22979143D01*
X88866500Y23074381D01*
X88914119Y23217239D01*
X88961738Y23455334D01*
X88961738Y23645810D01*
X88914119Y23883905D01*
X88866500Y24026762D01*
X88818880Y24122000D01*
X88723642Y24264858D01*
X88676023Y24312477D01*
X90771261Y23264858D02*
X90723642Y23217239D01*
X90580785Y23169620D01*
X90485547Y23169620D01*
X90342690Y23217239D01*
X90247452Y23312477D01*
X90199833Y23407715D01*
X90152214Y23598191D01*
X90152214Y23741048D01*
X90199833Y23931524D01*
X90247452Y24026762D01*
X90342690Y24122000D01*
X90485547Y24169620D01*
X90580785Y24169620D01*
X90723642Y24122000D01*
X90771261Y24074381D01*
X91152214Y23217239D02*
X91295071Y23169620D01*
X91533166Y23169620D01*
X91628404Y23217239D01*
X91676023Y23264858D01*
X91723642Y23360096D01*
X91723642Y23455334D01*
X91676023Y23550572D01*
X91628404Y23598191D01*
X91533166Y23645810D01*
X91342690Y23693429D01*
X91247452Y23741048D01*
X91199833Y23788667D01*
X91152214Y23883905D01*
X91152214Y23979143D01*
X91199833Y24074381D01*
X91247452Y24122000D01*
X91342690Y24169620D01*
X91580785Y24169620D01*
X91723642Y24122000D01*
X92676023Y23169620D02*
X92104595Y23169620D01*
X92390309Y23169620D02*
X92390309Y24169620D01*
X92295071Y24026762D01*
X92199833Y23931524D01*
X92104595Y23883905D01*
X82818880Y25328667D02*
X82771261Y25376286D01*
X82676023Y25519143D01*
X82628404Y25614381D01*
X82580785Y25757239D01*
X82533166Y25995334D01*
X82533166Y26185810D01*
X82580785Y26423905D01*
X82628404Y26566762D01*
X82676023Y26662000D01*
X82771261Y26804858D01*
X82818880Y26852477D01*
X83723642Y26662000D02*
X83628404Y26709620D01*
X83485547Y26709620D01*
X83342690Y26662000D01*
X83247452Y26566762D01*
X83199833Y26471524D01*
X83152214Y26281048D01*
X83152214Y26138191D01*
X83199833Y25947715D01*
X83247452Y25852477D01*
X83342690Y25757239D01*
X83485547Y25709620D01*
X83580785Y25709620D01*
X83723642Y25757239D01*
X83771261Y25804858D01*
X83771261Y26138191D01*
X83580785Y26138191D01*
X84199833Y25709620D02*
X84199833Y26709620D01*
X84580785Y26709620D01*
X84676023Y26662000D01*
X84723642Y26614381D01*
X84771261Y26519143D01*
X84771261Y26376286D01*
X84723642Y26281048D01*
X84676023Y26233429D01*
X84580785Y26185810D01*
X84199833Y26185810D01*
X85723642Y25709620D02*
X85152214Y25709620D01*
X85437928Y25709620D02*
X85437928Y26709620D01*
X85342690Y26566762D01*
X85247452Y26471524D01*
X85152214Y26423905D01*
X86104595Y26614381D02*
X86152214Y26662000D01*
X86247452Y26709620D01*
X86485547Y26709620D01*
X86580785Y26662000D01*
X86628404Y26614381D01*
X86676023Y26519143D01*
X86676023Y26423905D01*
X86628404Y26281048D01*
X86056976Y25709620D01*
X86676023Y25709620D01*
X87009357Y25328667D02*
X87056976Y25376286D01*
X87152214Y25519143D01*
X87199833Y25614381D01*
X87247452Y25757239D01*
X87295071Y25995334D01*
X87295071Y26185810D01*
X87247452Y26423905D01*
X87199833Y26566762D01*
X87152214Y26662000D01*
X87056976Y26804858D01*
X87009357Y26852477D01*
X88533166Y25709620D02*
X88533166Y26709620D01*
X88866500Y25995334D01*
X89199833Y26709620D01*
X89199833Y25709620D01*
X89676023Y25709620D02*
X89676023Y26709620D01*
X90104595Y25757239D02*
X90247452Y25709620D01*
X90485547Y25709620D01*
X90580785Y25757239D01*
X90628404Y25804858D01*
X90676023Y25900096D01*
X90676023Y25995334D01*
X90628404Y26090572D01*
X90580785Y26138191D01*
X90485547Y26185810D01*
X90295071Y26233429D01*
X90199833Y26281048D01*
X90152214Y26328667D01*
X90104595Y26423905D01*
X90104595Y26519143D01*
X90152214Y26614381D01*
X90199833Y26662000D01*
X90295071Y26709620D01*
X90533166Y26709620D01*
X90676023Y26662000D01*
X91295071Y26709620D02*
X91485547Y26709620D01*
X91580785Y26662000D01*
X91676023Y26566762D01*
X91723642Y26376286D01*
X91723642Y26042953D01*
X91676023Y25852477D01*
X91580785Y25757239D01*
X91485547Y25709620D01*
X91295071Y25709620D01*
X91199833Y25757239D01*
X91104595Y25852477D01*
X91056976Y26042953D01*
X91056976Y26376286D01*
X91104595Y26566762D01*
X91199833Y26662000D01*
X91295071Y26709620D01*
X92676023Y25709620D02*
X92104595Y25709620D01*
X92390309Y25709620D02*
X92390309Y26709620D01*
X92295071Y26566762D01*
X92199833Y26471524D01*
X92104595Y26423905D01*
X82945880Y27868667D02*
X82898261Y27916286D01*
X82803023Y28059143D01*
X82755404Y28154381D01*
X82707785Y28297239D01*
X82660166Y28535334D01*
X82660166Y28725810D01*
X82707785Y28963905D01*
X82755404Y29106762D01*
X82803023Y29202000D01*
X82898261Y29344858D01*
X82945880Y29392477D01*
X83850642Y29202000D02*
X83755404Y29249620D01*
X83612547Y29249620D01*
X83469690Y29202000D01*
X83374452Y29106762D01*
X83326833Y29011524D01*
X83279214Y28821048D01*
X83279214Y28678191D01*
X83326833Y28487715D01*
X83374452Y28392477D01*
X83469690Y28297239D01*
X83612547Y28249620D01*
X83707785Y28249620D01*
X83850642Y28297239D01*
X83898261Y28344858D01*
X83898261Y28678191D01*
X83707785Y28678191D01*
X84326833Y28249620D02*
X84326833Y29249620D01*
X84707785Y29249620D01*
X84803023Y29202000D01*
X84850642Y29154381D01*
X84898261Y29059143D01*
X84898261Y28916286D01*
X84850642Y28821048D01*
X84803023Y28773429D01*
X84707785Y28725810D01*
X84326833Y28725810D01*
X85850642Y28249620D02*
X85279214Y28249620D01*
X85564928Y28249620D02*
X85564928Y29249620D01*
X85469690Y29106762D01*
X85374452Y29011524D01*
X85279214Y28963905D01*
X86803023Y28249620D02*
X86231595Y28249620D01*
X86517309Y28249620D02*
X86517309Y29249620D01*
X86422071Y29106762D01*
X86326833Y29011524D01*
X86231595Y28963905D01*
X87136357Y27868667D02*
X87183976Y27916286D01*
X87279214Y28059143D01*
X87326833Y28154381D01*
X87374452Y28297239D01*
X87422071Y28535334D01*
X87422071Y28725810D01*
X87374452Y28963905D01*
X87326833Y29106762D01*
X87279214Y29202000D01*
X87183976Y29344858D01*
X87136357Y29392477D01*
X88660166Y28249620D02*
X88660166Y29249620D01*
X88993500Y28535334D01*
X89326833Y29249620D01*
X89326833Y28249620D01*
X89993500Y29249620D02*
X90183976Y29249620D01*
X90279214Y29202000D01*
X90374452Y29106762D01*
X90422071Y28916286D01*
X90422071Y28582953D01*
X90374452Y28392477D01*
X90279214Y28297239D01*
X90183976Y28249620D01*
X89993500Y28249620D01*
X89898261Y28297239D01*
X89803023Y28392477D01*
X89755404Y28582953D01*
X89755404Y28916286D01*
X89803023Y29106762D01*
X89898261Y29202000D01*
X89993500Y29249620D01*
X90803023Y28297239D02*
X90945880Y28249620D01*
X91183976Y28249620D01*
X91279214Y28297239D01*
X91326833Y28344858D01*
X91374452Y28440096D01*
X91374452Y28535334D01*
X91326833Y28630572D01*
X91279214Y28678191D01*
X91183976Y28725810D01*
X90993500Y28773429D01*
X90898261Y28821048D01*
X90850642Y28868667D01*
X90803023Y28963905D01*
X90803023Y29059143D01*
X90850642Y29154381D01*
X90898261Y29202000D01*
X90993500Y29249620D01*
X91231595Y29249620D01*
X91374452Y29202000D01*
X91803023Y28249620D02*
X91803023Y29249620D01*
X92803023Y28249620D02*
X92231595Y28249620D01*
X92517309Y28249620D02*
X92517309Y29249620D01*
X92422071Y29106762D01*
X92326833Y29011524D01*
X92231595Y28963905D01*
X83612547Y30408667D02*
X83564928Y30456286D01*
X83469690Y30599143D01*
X83422071Y30694381D01*
X83374452Y30837239D01*
X83326833Y31075334D01*
X83326833Y31265810D01*
X83374452Y31503905D01*
X83422071Y31646762D01*
X83469690Y31742000D01*
X83564928Y31884858D01*
X83612547Y31932477D01*
X84517309Y31742000D02*
X84422071Y31789620D01*
X84279214Y31789620D01*
X84136357Y31742000D01*
X84041119Y31646762D01*
X83993500Y31551524D01*
X83945880Y31361048D01*
X83945880Y31218191D01*
X83993500Y31027715D01*
X84041119Y30932477D01*
X84136357Y30837239D01*
X84279214Y30789620D01*
X84374452Y30789620D01*
X84517309Y30837239D01*
X84564928Y30884858D01*
X84564928Y31218191D01*
X84374452Y31218191D01*
X84993500Y30789620D02*
X84993500Y31789620D01*
X85374452Y31789620D01*
X85469690Y31742000D01*
X85517309Y31694381D01*
X85564928Y31599143D01*
X85564928Y31456286D01*
X85517309Y31361048D01*
X85469690Y31313429D01*
X85374452Y31265810D01*
X84993500Y31265810D01*
X86517309Y30789620D02*
X85945880Y30789620D01*
X86231595Y30789620D02*
X86231595Y31789620D01*
X86136357Y31646762D01*
X86041119Y31551524D01*
X85945880Y31503905D01*
X87136357Y31789620D02*
X87231595Y31789620D01*
X87326833Y31742000D01*
X87374452Y31694381D01*
X87422071Y31599143D01*
X87469690Y31408667D01*
X87469690Y31170572D01*
X87422071Y30980096D01*
X87374452Y30884858D01*
X87326833Y30837239D01*
X87231595Y30789620D01*
X87136357Y30789620D01*
X87041119Y30837239D01*
X86993500Y30884858D01*
X86945880Y30980096D01*
X86898261Y31170572D01*
X86898261Y31408667D01*
X86945880Y31599143D01*
X86993500Y31694381D01*
X87041119Y31742000D01*
X87136357Y31789620D01*
X87803023Y30408667D02*
X87850642Y30456286D01*
X87945880Y30599143D01*
X87993500Y30694381D01*
X88041119Y30837239D01*
X88088738Y31075334D01*
X88088738Y31265810D01*
X88041119Y31503905D01*
X87993500Y31646762D01*
X87945880Y31742000D01*
X87850642Y31884858D01*
X87803023Y31932477D01*
X89279214Y30837239D02*
X89422071Y30789620D01*
X89660166Y30789620D01*
X89755404Y30837239D01*
X89803023Y30884858D01*
X89850642Y30980096D01*
X89850642Y31075334D01*
X89803023Y31170572D01*
X89755404Y31218191D01*
X89660166Y31265810D01*
X89469690Y31313429D01*
X89374452Y31361048D01*
X89326833Y31408667D01*
X89279214Y31503905D01*
X89279214Y31599143D01*
X89326833Y31694381D01*
X89374452Y31742000D01*
X89469690Y31789620D01*
X89707785Y31789620D01*
X89850642Y31742000D01*
X90850642Y30884858D02*
X90803023Y30837239D01*
X90660166Y30789620D01*
X90564928Y30789620D01*
X90422071Y30837239D01*
X90326833Y30932477D01*
X90279214Y31027715D01*
X90231595Y31218191D01*
X90231595Y31361048D01*
X90279214Y31551524D01*
X90326833Y31646762D01*
X90422071Y31742000D01*
X90564928Y31789620D01*
X90660166Y31789620D01*
X90803023Y31742000D01*
X90850642Y31694381D01*
X91279214Y30789620D02*
X91279214Y31789620D01*
X91850642Y30789620D02*
X91422071Y31361048D01*
X91850642Y31789620D02*
X91279214Y31218191D01*
X92803023Y30789620D02*
X92231595Y30789620D01*
X92517309Y30789620D02*
X92517309Y31789620D01*
X92422071Y31646762D01*
X92326833Y31551524D01*
X92231595Y31503905D01*
X90707785Y34409000D02*
X90612547Y34456620D01*
X90469690Y34456620D01*
X90326833Y34409000D01*
X90231595Y34313762D01*
X90183976Y34218524D01*
X90136357Y34028048D01*
X90136357Y33885191D01*
X90183976Y33694715D01*
X90231595Y33599477D01*
X90326833Y33504239D01*
X90469690Y33456620D01*
X90564928Y33456620D01*
X90707785Y33504239D01*
X90755404Y33551858D01*
X90755404Y33885191D01*
X90564928Y33885191D01*
X91183976Y33456620D02*
X91183976Y34456620D01*
X91755404Y33456620D01*
X91755404Y34456620D01*
X92231595Y33456620D02*
X92231595Y34456620D01*
X92469690Y34456620D01*
X92612547Y34409000D01*
X92707785Y34313762D01*
X92755404Y34218524D01*
X92803023Y34028048D01*
X92803023Y33885191D01*
X92755404Y33694715D01*
X92707785Y33599477D01*
X92612547Y33504239D01*
X92469690Y33456620D01*
X92231595Y33456620D01*
X85564928Y35488667D02*
X85517309Y35536286D01*
X85422071Y35679143D01*
X85374452Y35774381D01*
X85326833Y35917239D01*
X85279214Y36155334D01*
X85279214Y36345810D01*
X85326833Y36583905D01*
X85374452Y36726762D01*
X85422071Y36822000D01*
X85517309Y36964858D01*
X85564928Y37012477D01*
X86469690Y36822000D02*
X86374452Y36869620D01*
X86231595Y36869620D01*
X86088738Y36822000D01*
X85993500Y36726762D01*
X85945880Y36631524D01*
X85898261Y36441048D01*
X85898261Y36298191D01*
X85945880Y36107715D01*
X85993500Y36012477D01*
X86088738Y35917239D01*
X86231595Y35869620D01*
X86326833Y35869620D01*
X86469690Y35917239D01*
X86517309Y35964858D01*
X86517309Y36298191D01*
X86326833Y36298191D01*
X86945880Y35869620D02*
X86945880Y36869620D01*
X87326833Y36869620D01*
X87422071Y36822000D01*
X87469690Y36774381D01*
X87517309Y36679143D01*
X87517309Y36536286D01*
X87469690Y36441048D01*
X87422071Y36393429D01*
X87326833Y36345810D01*
X86945880Y36345810D01*
X87993500Y35869620D02*
X88183976Y35869620D01*
X88279214Y35917239D01*
X88326833Y35964858D01*
X88422071Y36107715D01*
X88469690Y36298191D01*
X88469690Y36679143D01*
X88422071Y36774381D01*
X88374452Y36822000D01*
X88279214Y36869620D01*
X88088738Y36869620D01*
X87993500Y36822000D01*
X87945880Y36774381D01*
X87898261Y36679143D01*
X87898261Y36441048D01*
X87945880Y36345810D01*
X87993500Y36298191D01*
X88088738Y36250572D01*
X88279214Y36250572D01*
X88374452Y36298191D01*
X88422071Y36345810D01*
X88469690Y36441048D01*
X88803023Y35488667D02*
X88850642Y35536286D01*
X88945880Y35679143D01*
X88993500Y35774381D01*
X89041119Y35917239D01*
X89088738Y36155334D01*
X89088738Y36345810D01*
X89041119Y36583905D01*
X88993500Y36726762D01*
X88945880Y36822000D01*
X88850642Y36964858D01*
X88803023Y37012477D01*
X90898261Y35869620D02*
X90564928Y36345810D01*
X90326833Y35869620D02*
X90326833Y36869620D01*
X90707785Y36869620D01*
X90803023Y36822000D01*
X90850642Y36774381D01*
X90898261Y36679143D01*
X90898261Y36536286D01*
X90850642Y36441048D01*
X90803023Y36393429D01*
X90707785Y36345810D01*
X90326833Y36345810D01*
X91231595Y36869620D02*
X91898261Y35869620D01*
X91898261Y36869620D02*
X91231595Y35869620D01*
X92803023Y35869620D02*
X92231595Y35869620D01*
X92517309Y35869620D02*
X92517309Y36869620D01*
X92422071Y36726762D01*
X92326833Y36631524D01*
X92231595Y36583905D01*
X85803023Y37901667D02*
X85755404Y37949286D01*
X85660166Y38092143D01*
X85612547Y38187381D01*
X85564928Y38330239D01*
X85517309Y38568334D01*
X85517309Y38758810D01*
X85564928Y38996905D01*
X85612547Y39139762D01*
X85660166Y39235000D01*
X85755404Y39377858D01*
X85803023Y39425477D01*
X86707785Y39235000D02*
X86612547Y39282620D01*
X86469690Y39282620D01*
X86326833Y39235000D01*
X86231595Y39139762D01*
X86183976Y39044524D01*
X86136357Y38854048D01*
X86136357Y38711191D01*
X86183976Y38520715D01*
X86231595Y38425477D01*
X86326833Y38330239D01*
X86469690Y38282620D01*
X86564928Y38282620D01*
X86707785Y38330239D01*
X86755404Y38377858D01*
X86755404Y38711191D01*
X86564928Y38711191D01*
X87183976Y38282620D02*
X87183976Y39282620D01*
X87564928Y39282620D01*
X87660166Y39235000D01*
X87707785Y39187381D01*
X87755404Y39092143D01*
X87755404Y38949286D01*
X87707785Y38854048D01*
X87660166Y38806429D01*
X87564928Y38758810D01*
X87183976Y38758810D01*
X88326833Y38854048D02*
X88231595Y38901667D01*
X88183976Y38949286D01*
X88136357Y39044524D01*
X88136357Y39092143D01*
X88183976Y39187381D01*
X88231595Y39235000D01*
X88326833Y39282620D01*
X88517309Y39282620D01*
X88612547Y39235000D01*
X88660166Y39187381D01*
X88707785Y39092143D01*
X88707785Y39044524D01*
X88660166Y38949286D01*
X88612547Y38901667D01*
X88517309Y38854048D01*
X88326833Y38854048D01*
X88231595Y38806429D01*
X88183976Y38758810D01*
X88136357Y38663572D01*
X88136357Y38473096D01*
X88183976Y38377858D01*
X88231595Y38330239D01*
X88326833Y38282620D01*
X88517309Y38282620D01*
X88612547Y38330239D01*
X88660166Y38377858D01*
X88707785Y38473096D01*
X88707785Y38663572D01*
X88660166Y38758810D01*
X88612547Y38806429D01*
X88517309Y38854048D01*
X89041119Y37901667D02*
X89088738Y37949286D01*
X89183976Y38092143D01*
X89231595Y38187381D01*
X89279214Y38330239D01*
X89326833Y38568334D01*
X89326833Y38758810D01*
X89279214Y38996905D01*
X89231595Y39139762D01*
X89183976Y39235000D01*
X89088738Y39377858D01*
X89041119Y39425477D01*
X90422071Y39282620D02*
X90993500Y39282620D01*
X90707785Y38282620D02*
X90707785Y39282620D01*
X91231595Y39282620D02*
X91898261Y38282620D01*
X91898261Y39282620D02*
X91231595Y38282620D01*
X92803023Y38282620D02*
X92231595Y38282620D01*
X92517309Y38282620D02*
X92517309Y39282620D01*
X92422071Y39139762D01*
X92326833Y39044524D01*
X92231595Y38996905D01*
X90707785Y44315000D02*
X90612547Y44362620D01*
X90469690Y44362620D01*
X90326833Y44315000D01*
X90231595Y44219762D01*
X90183976Y44124524D01*
X90136357Y43934048D01*
X90136357Y43791191D01*
X90183976Y43600715D01*
X90231595Y43505477D01*
X90326833Y43410239D01*
X90469690Y43362620D01*
X90564928Y43362620D01*
X90707785Y43410239D01*
X90755404Y43457858D01*
X90755404Y43791191D01*
X90564928Y43791191D01*
X91183976Y43362620D02*
X91183976Y44362620D01*
X91755404Y43362620D01*
X91755404Y44362620D01*
X92231595Y43362620D02*
X92231595Y44362620D01*
X92469690Y44362620D01*
X92612547Y44315000D01*
X92707785Y44219762D01*
X92755404Y44124524D01*
X92803023Y43934048D01*
X92803023Y43791191D01*
X92755404Y43600715D01*
X92707785Y43505477D01*
X92612547Y43410239D01*
X92469690Y43362620D01*
X92231595Y43362620D01*
X89469690Y41822620D02*
X89803023Y40822620D01*
X90136357Y41822620D01*
X90422071Y40870239D02*
X90564928Y40822620D01*
X90803023Y40822620D01*
X90898261Y40870239D01*
X90945880Y40917858D01*
X90993500Y41013096D01*
X90993500Y41108334D01*
X90945880Y41203572D01*
X90898261Y41251191D01*
X90803023Y41298810D01*
X90612547Y41346429D01*
X90517309Y41394048D01*
X90469690Y41441667D01*
X90422071Y41536905D01*
X90422071Y41632143D01*
X90469690Y41727381D01*
X90517309Y41775000D01*
X90612547Y41822620D01*
X90850642Y41822620D01*
X90993500Y41775000D01*
X91612547Y41298810D02*
X91612547Y40822620D01*
X91279214Y41822620D02*
X91612547Y41298810D01*
X91945880Y41822620D01*
X92231595Y40870239D02*
X92374452Y40822620D01*
X92612547Y40822620D01*
X92707785Y40870239D01*
X92755404Y40917858D01*
X92803023Y41013096D01*
X92803023Y41108334D01*
X92755404Y41203572D01*
X92707785Y41251191D01*
X92612547Y41298810D01*
X92422071Y41346429D01*
X92326833Y41394048D01*
X92279214Y41441667D01*
X92231595Y41536905D01*
X92231595Y41632143D01*
X92279214Y41727381D01*
X92326833Y41775000D01*
X92422071Y41822620D01*
X92660166Y41822620D01*
X92803023Y41775000D01*
X9765357Y77890620D02*
X10384404Y77890620D01*
X10051071Y77509667D01*
X10193928Y77509667D01*
X10289166Y77462048D01*
X10336785Y77414429D01*
X10384404Y77319191D01*
X10384404Y77081096D01*
X10336785Y76985858D01*
X10289166Y76938239D01*
X10193928Y76890620D01*
X9908214Y76890620D01*
X9812976Y76938239D01*
X9765357Y76985858D01*
X10670119Y77890620D02*
X11003452Y76890620D01*
X11336785Y77890620D01*
X11574880Y77890620D02*
X12193928Y77890620D01*
X11860595Y77509667D01*
X12003452Y77509667D01*
X12098690Y77462048D01*
X12146309Y77414429D01*
X12193928Y77319191D01*
X12193928Y77081096D01*
X12146309Y76985858D01*
X12098690Y76938239D01*
X12003452Y76890620D01*
X11717738Y76890620D01*
X11622500Y76938239D01*
X11574880Y76985858D01*
X9717738Y80430620D02*
X10051071Y79430620D01*
X10384404Y80430620D01*
X10670119Y79478239D02*
X10812976Y79430620D01*
X11051071Y79430620D01*
X11146309Y79478239D01*
X11193928Y79525858D01*
X11241547Y79621096D01*
X11241547Y79716334D01*
X11193928Y79811572D01*
X11146309Y79859191D01*
X11051071Y79906810D01*
X10860595Y79954429D01*
X10765357Y80002048D01*
X10717738Y80049667D01*
X10670119Y80144905D01*
X10670119Y80240143D01*
X10717738Y80335381D01*
X10765357Y80383000D01*
X10860595Y80430620D01*
X11098690Y80430620D01*
X11241547Y80383000D01*
X11860595Y79906810D02*
X11860595Y79430620D01*
X11527261Y80430620D02*
X11860595Y79906810D01*
X12193928Y80430620D01*
X12479642Y79478239D02*
X12622500Y79430620D01*
X12860595Y79430620D01*
X12955833Y79478239D01*
X13003452Y79525858D01*
X13051071Y79621096D01*
X13051071Y79716334D01*
X13003452Y79811572D01*
X12955833Y79859191D01*
X12860595Y79906810D01*
X12670119Y79954429D01*
X12574880Y80002048D01*
X12527261Y80049667D01*
X12479642Y80144905D01*
X12479642Y80240143D01*
X12527261Y80335381D01*
X12574880Y80383000D01*
X12670119Y80430620D01*
X12908214Y80430620D01*
X13051071Y80383000D01*
X9717738Y82970620D02*
X10051071Y81970620D01*
X10384404Y82970620D01*
X11051071Y82494429D02*
X11193928Y82446810D01*
X11241547Y82399191D01*
X11289166Y82303953D01*
X11289166Y82161096D01*
X11241547Y82065858D01*
X11193928Y82018239D01*
X11098690Y81970620D01*
X10717738Y81970620D01*
X10717738Y82970620D01*
X11051071Y82970620D01*
X11146309Y82923000D01*
X11193928Y82875381D01*
X11241547Y82780143D01*
X11241547Y82684905D01*
X11193928Y82589667D01*
X11146309Y82542048D01*
X11051071Y82494429D01*
X10717738Y82494429D01*
X11717738Y82970620D02*
X11717738Y82161096D01*
X11765357Y82065858D01*
X11812976Y82018239D01*
X11908214Y81970620D01*
X12098690Y81970620D01*
X12193928Y82018239D01*
X12241547Y82065858D01*
X12289166Y82161096D01*
X12289166Y82970620D01*
X12717738Y82018239D02*
X12860595Y81970620D01*
X13098690Y81970620D01*
X13193928Y82018239D01*
X13241547Y82065858D01*
X13289166Y82161096D01*
X13289166Y82256334D01*
X13241547Y82351572D01*
X13193928Y82399191D01*
X13098690Y82446810D01*
X12908214Y82494429D01*
X12812976Y82542048D01*
X12765357Y82589667D01*
X12717738Y82684905D01*
X12717738Y82780143D01*
X12765357Y82875381D01*
X12812976Y82923000D01*
X12908214Y82970620D01*
X13146309Y82970620D01*
X13289166Y82923000D01*
X10257404Y85463000D02*
X10162166Y85510620D01*
X10019309Y85510620D01*
X9876452Y85463000D01*
X9781214Y85367762D01*
X9733595Y85272524D01*
X9685976Y85082048D01*
X9685976Y84939191D01*
X9733595Y84748715D01*
X9781214Y84653477D01*
X9876452Y84558239D01*
X10019309Y84510620D01*
X10114547Y84510620D01*
X10257404Y84558239D01*
X10305023Y84605858D01*
X10305023Y84939191D01*
X10114547Y84939191D01*
X10733595Y84510620D02*
X10733595Y85510620D01*
X11305023Y84510620D01*
X11305023Y85510620D01*
X11781214Y84510620D02*
X11781214Y85510620D01*
X12019309Y85510620D01*
X12162166Y85463000D01*
X12257404Y85367762D01*
X12305023Y85272524D01*
X12352642Y85082048D01*
X12352642Y84939191D01*
X12305023Y84748715D01*
X12257404Y84653477D01*
X12162166Y84558239D01*
X12019309Y84510620D01*
X11781214Y84510620D01*
X7765023Y61650620D02*
X7431690Y62126810D01*
X7193595Y61650620D02*
X7193595Y62650620D01*
X7574547Y62650620D01*
X7669785Y62603000D01*
X7717404Y62555381D01*
X7765023Y62460143D01*
X7765023Y62317286D01*
X7717404Y62222048D01*
X7669785Y62174429D01*
X7574547Y62126810D01*
X7193595Y62126810D01*
X8098357Y62650620D02*
X8765023Y61650620D01*
X8765023Y62650620D02*
X8098357Y61650620D01*
X9336452Y62650620D02*
X9431690Y62650620D01*
X9526928Y62603000D01*
X9574547Y62555381D01*
X9622166Y62460143D01*
X9669785Y62269667D01*
X9669785Y62031572D01*
X9622166Y61841096D01*
X9574547Y61745858D01*
X9526928Y61698239D01*
X9431690Y61650620D01*
X9336452Y61650620D01*
X9241214Y61698239D01*
X9193595Y61745858D01*
X9145976Y61841096D01*
X9098357Y62031572D01*
X9098357Y62269667D01*
X9145976Y62460143D01*
X9193595Y62555381D01*
X9241214Y62603000D01*
X9336452Y62650620D01*
X11145976Y61269667D02*
X11098357Y61317286D01*
X11003119Y61460143D01*
X10955500Y61555381D01*
X10907880Y61698239D01*
X10860261Y61936334D01*
X10860261Y62126810D01*
X10907880Y62364905D01*
X10955500Y62507762D01*
X11003119Y62603000D01*
X11098357Y62745858D01*
X11145976Y62793477D01*
X12050738Y62603000D02*
X11955500Y62650620D01*
X11812642Y62650620D01*
X11669785Y62603000D01*
X11574547Y62507762D01*
X11526928Y62412524D01*
X11479309Y62222048D01*
X11479309Y62079191D01*
X11526928Y61888715D01*
X11574547Y61793477D01*
X11669785Y61698239D01*
X11812642Y61650620D01*
X11907880Y61650620D01*
X12050738Y61698239D01*
X12098357Y61745858D01*
X12098357Y62079191D01*
X11907880Y62079191D01*
X12526928Y61650620D02*
X12526928Y62650620D01*
X12907880Y62650620D01*
X13003119Y62603000D01*
X13050738Y62555381D01*
X13098357Y62460143D01*
X13098357Y62317286D01*
X13050738Y62222048D01*
X13003119Y62174429D01*
X12907880Y62126810D01*
X12526928Y62126810D01*
X14050738Y61650620D02*
X13479309Y61650620D01*
X13765023Y61650620D02*
X13765023Y62650620D01*
X13669785Y62507762D01*
X13574547Y62412524D01*
X13479309Y62364905D01*
X14384071Y61269667D02*
X14431690Y61317286D01*
X14526928Y61460143D01*
X14574547Y61555381D01*
X14622166Y61698239D01*
X14669785Y61936334D01*
X14669785Y62126810D01*
X14622166Y62364905D01*
X14574547Y62507762D01*
X14526928Y62603000D01*
X14431690Y62745858D01*
X14384071Y62793477D01*
X7050738Y65317620D02*
X7622166Y65317620D01*
X7336452Y64317620D02*
X7336452Y65317620D01*
X7860261Y65317620D02*
X8526928Y64317620D01*
X8526928Y65317620D02*
X7860261Y64317620D01*
X9098357Y65317620D02*
X9193595Y65317620D01*
X9288833Y65270000D01*
X9336452Y65222381D01*
X9384071Y65127143D01*
X9431690Y64936667D01*
X9431690Y64698572D01*
X9384071Y64508096D01*
X9336452Y64412858D01*
X9288833Y64365239D01*
X9193595Y64317620D01*
X9098357Y64317620D01*
X9003119Y64365239D01*
X8955500Y64412858D01*
X8907880Y64508096D01*
X8860261Y64698572D01*
X8860261Y64936667D01*
X8907880Y65127143D01*
X8955500Y65222381D01*
X9003119Y65270000D01*
X9098357Y65317620D01*
X10907880Y63936667D02*
X10860261Y63984286D01*
X10765023Y64127143D01*
X10717404Y64222381D01*
X10669785Y64365239D01*
X10622166Y64603334D01*
X10622166Y64793810D01*
X10669785Y65031905D01*
X10717404Y65174762D01*
X10765023Y65270000D01*
X10860261Y65412858D01*
X10907880Y65460477D01*
X11812642Y65270000D02*
X11717404Y65317620D01*
X11574547Y65317620D01*
X11431690Y65270000D01*
X11336452Y65174762D01*
X11288833Y65079524D01*
X11241214Y64889048D01*
X11241214Y64746191D01*
X11288833Y64555715D01*
X11336452Y64460477D01*
X11431690Y64365239D01*
X11574547Y64317620D01*
X11669785Y64317620D01*
X11812642Y64365239D01*
X11860261Y64412858D01*
X11860261Y64746191D01*
X11669785Y64746191D01*
X12288833Y64317620D02*
X12288833Y65317620D01*
X12669785Y65317620D01*
X12765023Y65270000D01*
X12812642Y65222381D01*
X12860261Y65127143D01*
X12860261Y64984286D01*
X12812642Y64889048D01*
X12765023Y64841429D01*
X12669785Y64793810D01*
X12288833Y64793810D01*
X13479309Y65317620D02*
X13574547Y65317620D01*
X13669785Y65270000D01*
X13717404Y65222381D01*
X13765023Y65127143D01*
X13812642Y64936667D01*
X13812642Y64698572D01*
X13765023Y64508096D01*
X13717404Y64412858D01*
X13669785Y64365239D01*
X13574547Y64317620D01*
X13479309Y64317620D01*
X13384071Y64365239D01*
X13336452Y64412858D01*
X13288833Y64508096D01*
X13241214Y64698572D01*
X13241214Y64936667D01*
X13288833Y65127143D01*
X13336452Y65222381D01*
X13384071Y65270000D01*
X13479309Y65317620D01*
X14145976Y63936667D02*
X14193595Y63984286D01*
X14288833Y64127143D01*
X14336452Y64222381D01*
X14384071Y64365239D01*
X14431690Y64603334D01*
X14431690Y64793810D01*
X14384071Y65031905D01*
X14336452Y65174762D01*
X14288833Y65270000D01*
X14193595Y65412858D01*
X14145976Y65460477D01*
X7717404Y67683000D02*
X7622166Y67730620D01*
X7479309Y67730620D01*
X7336452Y67683000D01*
X7241214Y67587762D01*
X7193595Y67492524D01*
X7145976Y67302048D01*
X7145976Y67159191D01*
X7193595Y66968715D01*
X7241214Y66873477D01*
X7336452Y66778239D01*
X7479309Y66730620D01*
X7574547Y66730620D01*
X7717404Y66778239D01*
X7765023Y66825858D01*
X7765023Y67159191D01*
X7574547Y67159191D01*
X8193595Y66730620D02*
X8193595Y67730620D01*
X8765023Y66730620D01*
X8765023Y67730620D01*
X9241214Y66730620D02*
X9241214Y67730620D01*
X9479309Y67730620D01*
X9622166Y67683000D01*
X9717404Y67587762D01*
X9765023Y67492524D01*
X9812642Y67302048D01*
X9812642Y67159191D01*
X9765023Y66968715D01*
X9717404Y66873477D01*
X9622166Y66778239D01*
X9479309Y66730620D01*
X9241214Y66730620D01*
X7193595Y46156620D02*
X7193595Y47156620D01*
X7526928Y46442334D01*
X7860261Y47156620D01*
X7860261Y46156620D01*
X8526928Y47156620D02*
X8717404Y47156620D01*
X8812642Y47109000D01*
X8907880Y47013762D01*
X8955500Y46823286D01*
X8955500Y46489953D01*
X8907880Y46299477D01*
X8812642Y46204239D01*
X8717404Y46156620D01*
X8526928Y46156620D01*
X8431690Y46204239D01*
X8336452Y46299477D01*
X8288833Y46489953D01*
X8288833Y46823286D01*
X8336452Y47013762D01*
X8431690Y47109000D01*
X8526928Y47156620D01*
X9336452Y46204239D02*
X9479309Y46156620D01*
X9717404Y46156620D01*
X9812642Y46204239D01*
X9860261Y46251858D01*
X9907880Y46347096D01*
X9907880Y46442334D01*
X9860261Y46537572D01*
X9812642Y46585191D01*
X9717404Y46632810D01*
X9526928Y46680429D01*
X9431690Y46728048D01*
X9384071Y46775667D01*
X9336452Y46870905D01*
X9336452Y46966143D01*
X9384071Y47061381D01*
X9431690Y47109000D01*
X9526928Y47156620D01*
X9765023Y47156620D01*
X9907880Y47109000D01*
X10336452Y46156620D02*
X10336452Y47156620D01*
X11003119Y47156620D02*
X11098357Y47156620D01*
X11193595Y47109000D01*
X11241214Y47061381D01*
X11288833Y46966143D01*
X11336452Y46775667D01*
X11336452Y46537572D01*
X11288833Y46347096D01*
X11241214Y46251858D01*
X11193595Y46204239D01*
X11098357Y46156620D01*
X11003119Y46156620D01*
X10907880Y46204239D01*
X10860261Y46251858D01*
X10812642Y46347096D01*
X10765023Y46537572D01*
X10765023Y46775667D01*
X10812642Y46966143D01*
X10860261Y47061381D01*
X10907880Y47109000D01*
X11003119Y47156620D01*
X12812642Y45775667D02*
X12765023Y45823286D01*
X12669785Y45966143D01*
X12622166Y46061381D01*
X12574547Y46204239D01*
X12526928Y46442334D01*
X12526928Y46632810D01*
X12574547Y46870905D01*
X12622166Y47013762D01*
X12669785Y47109000D01*
X12765023Y47251858D01*
X12812642Y47299477D01*
X13717404Y47109000D02*
X13622166Y47156620D01*
X13479309Y47156620D01*
X13336452Y47109000D01*
X13241214Y47013762D01*
X13193595Y46918524D01*
X13145976Y46728048D01*
X13145976Y46585191D01*
X13193595Y46394715D01*
X13241214Y46299477D01*
X13336452Y46204239D01*
X13479309Y46156620D01*
X13574547Y46156620D01*
X13717404Y46204239D01*
X13765023Y46251858D01*
X13765023Y46585191D01*
X13574547Y46585191D01*
X14193595Y46156620D02*
X14193595Y47156620D01*
X14574547Y47156620D01*
X14669785Y47109000D01*
X14717404Y47061381D01*
X14765023Y46966143D01*
X14765023Y46823286D01*
X14717404Y46728048D01*
X14669785Y46680429D01*
X14574547Y46632810D01*
X14193595Y46632810D01*
X15098357Y47156620D02*
X15717404Y47156620D01*
X15384071Y46775667D01*
X15526928Y46775667D01*
X15622166Y46728048D01*
X15669785Y46680429D01*
X15717404Y46585191D01*
X15717404Y46347096D01*
X15669785Y46251858D01*
X15622166Y46204239D01*
X15526928Y46156620D01*
X15241214Y46156620D01*
X15145976Y46204239D01*
X15098357Y46251858D01*
X16050738Y45775667D02*
X16098357Y45823286D01*
X16193595Y45966143D01*
X16241214Y46061381D01*
X16288833Y46204239D01*
X16336452Y46442334D01*
X16336452Y46632810D01*
X16288833Y46870905D01*
X16241214Y47013762D01*
X16193595Y47109000D01*
X16098357Y47251858D01*
X16050738Y47299477D01*
X7193595Y43616620D02*
X7193595Y44616620D01*
X7526928Y43902334D01*
X7860261Y44616620D01*
X7860261Y43616620D01*
X8336452Y43616620D02*
X8336452Y44616620D01*
X8765023Y43664239D02*
X8907880Y43616620D01*
X9145976Y43616620D01*
X9241214Y43664239D01*
X9288833Y43711858D01*
X9336452Y43807096D01*
X9336452Y43902334D01*
X9288833Y43997572D01*
X9241214Y44045191D01*
X9145976Y44092810D01*
X8955500Y44140429D01*
X8860261Y44188048D01*
X8812642Y44235667D01*
X8765023Y44330905D01*
X8765023Y44426143D01*
X8812642Y44521381D01*
X8860261Y44569000D01*
X8955500Y44616620D01*
X9193595Y44616620D01*
X9336452Y44569000D01*
X9955500Y44616620D02*
X10145976Y44616620D01*
X10241214Y44569000D01*
X10336452Y44473762D01*
X10384071Y44283286D01*
X10384071Y43949953D01*
X10336452Y43759477D01*
X10241214Y43664239D01*
X10145976Y43616620D01*
X9955500Y43616620D01*
X9860261Y43664239D01*
X9765023Y43759477D01*
X9717404Y43949953D01*
X9717404Y44283286D01*
X9765023Y44473762D01*
X9860261Y44569000D01*
X9955500Y44616620D01*
X11003119Y44616620D02*
X11098357Y44616620D01*
X11193595Y44569000D01*
X11241214Y44521381D01*
X11288833Y44426143D01*
X11336452Y44235667D01*
X11336452Y43997572D01*
X11288833Y43807096D01*
X11241214Y43711858D01*
X11193595Y43664239D01*
X11098357Y43616620D01*
X11003119Y43616620D01*
X10907880Y43664239D01*
X10860261Y43711858D01*
X10812642Y43807096D01*
X10765023Y43997572D01*
X10765023Y44235667D01*
X10812642Y44426143D01*
X10860261Y44521381D01*
X10907880Y44569000D01*
X11003119Y44616620D01*
X12812642Y43235667D02*
X12765023Y43283286D01*
X12669785Y43426143D01*
X12622166Y43521381D01*
X12574547Y43664239D01*
X12526928Y43902334D01*
X12526928Y44092810D01*
X12574547Y44330905D01*
X12622166Y44473762D01*
X12669785Y44569000D01*
X12765023Y44711858D01*
X12812642Y44759477D01*
X13717404Y44569000D02*
X13622166Y44616620D01*
X13479309Y44616620D01*
X13336452Y44569000D01*
X13241214Y44473762D01*
X13193595Y44378524D01*
X13145976Y44188048D01*
X13145976Y44045191D01*
X13193595Y43854715D01*
X13241214Y43759477D01*
X13336452Y43664239D01*
X13479309Y43616620D01*
X13574547Y43616620D01*
X13717404Y43664239D01*
X13765023Y43711858D01*
X13765023Y44045191D01*
X13574547Y44045191D01*
X14193595Y43616620D02*
X14193595Y44616620D01*
X14574547Y44616620D01*
X14669785Y44569000D01*
X14717404Y44521381D01*
X14765023Y44426143D01*
X14765023Y44283286D01*
X14717404Y44188048D01*
X14669785Y44140429D01*
X14574547Y44092810D01*
X14193595Y44092810D01*
X15622166Y44283286D02*
X15622166Y43616620D01*
X15384071Y44664239D02*
X15145976Y43949953D01*
X15765023Y43949953D01*
X16050738Y43235667D02*
X16098357Y43283286D01*
X16193595Y43426143D01*
X16241214Y43521381D01*
X16288833Y43664239D01*
X16336452Y43902334D01*
X16336452Y44092810D01*
X16288833Y44330905D01*
X16241214Y44473762D01*
X16193595Y44569000D01*
X16098357Y44711858D01*
X16050738Y44759477D01*
X7765023Y51331858D02*
X7717404Y51284239D01*
X7574547Y51236620D01*
X7479309Y51236620D01*
X7336452Y51284239D01*
X7241214Y51379477D01*
X7193595Y51474715D01*
X7145976Y51665191D01*
X7145976Y51808048D01*
X7193595Y51998524D01*
X7241214Y52093762D01*
X7336452Y52189000D01*
X7479309Y52236620D01*
X7574547Y52236620D01*
X7717404Y52189000D01*
X7765023Y52141381D01*
X8145976Y51284239D02*
X8288833Y51236620D01*
X8526928Y51236620D01*
X8622166Y51284239D01*
X8669785Y51331858D01*
X8717404Y51427096D01*
X8717404Y51522334D01*
X8669785Y51617572D01*
X8622166Y51665191D01*
X8526928Y51712810D01*
X8336452Y51760429D01*
X8241214Y51808048D01*
X8193595Y51855667D01*
X8145976Y51950905D01*
X8145976Y52046143D01*
X8193595Y52141381D01*
X8241214Y52189000D01*
X8336452Y52236620D01*
X8574547Y52236620D01*
X8717404Y52189000D01*
X9336452Y52236620D02*
X9431690Y52236620D01*
X9526928Y52189000D01*
X9574547Y52141381D01*
X9622166Y52046143D01*
X9669785Y51855667D01*
X9669785Y51617572D01*
X9622166Y51427096D01*
X9574547Y51331858D01*
X9526928Y51284239D01*
X9431690Y51236620D01*
X9336452Y51236620D01*
X9241214Y51284239D01*
X9193595Y51331858D01*
X9145976Y51427096D01*
X9098357Y51617572D01*
X9098357Y51855667D01*
X9145976Y52046143D01*
X9193595Y52141381D01*
X9241214Y52189000D01*
X9336452Y52236620D01*
X11145976Y50855667D02*
X11098357Y50903286D01*
X11003119Y51046143D01*
X10955500Y51141381D01*
X10907880Y51284239D01*
X10860261Y51522334D01*
X10860261Y51712810D01*
X10907880Y51950905D01*
X10955500Y52093762D01*
X11003119Y52189000D01*
X11098357Y52331858D01*
X11145976Y52379477D01*
X12050738Y52189000D02*
X11955500Y52236620D01*
X11812642Y52236620D01*
X11669785Y52189000D01*
X11574547Y52093762D01*
X11526928Y51998524D01*
X11479309Y51808048D01*
X11479309Y51665191D01*
X11526928Y51474715D01*
X11574547Y51379477D01*
X11669785Y51284239D01*
X11812642Y51236620D01*
X11907880Y51236620D01*
X12050738Y51284239D01*
X12098357Y51331858D01*
X12098357Y51665191D01*
X11907880Y51665191D01*
X12526928Y51236620D02*
X12526928Y52236620D01*
X12907880Y52236620D01*
X13003119Y52189000D01*
X13050738Y52141381D01*
X13098357Y52046143D01*
X13098357Y51903286D01*
X13050738Y51808048D01*
X13003119Y51760429D01*
X12907880Y51712810D01*
X12526928Y51712810D01*
X14003119Y52236620D02*
X13526928Y52236620D01*
X13479309Y51760429D01*
X13526928Y51808048D01*
X13622166Y51855667D01*
X13860261Y51855667D01*
X13955500Y51808048D01*
X14003119Y51760429D01*
X14050738Y51665191D01*
X14050738Y51427096D01*
X14003119Y51331858D01*
X13955500Y51284239D01*
X13860261Y51236620D01*
X13622166Y51236620D01*
X13526928Y51284239D01*
X13479309Y51331858D01*
X14384071Y50855667D02*
X14431690Y50903286D01*
X14526928Y51046143D01*
X14574547Y51141381D01*
X14622166Y51284239D01*
X14669785Y51522334D01*
X14669785Y51712810D01*
X14622166Y51950905D01*
X14574547Y52093762D01*
X14526928Y52189000D01*
X14431690Y52331858D01*
X14384071Y52379477D01*
X7145976Y48744239D02*
X7288833Y48696620D01*
X7526928Y48696620D01*
X7622166Y48744239D01*
X7669785Y48791858D01*
X7717404Y48887096D01*
X7717404Y48982334D01*
X7669785Y49077572D01*
X7622166Y49125191D01*
X7526928Y49172810D01*
X7336452Y49220429D01*
X7241214Y49268048D01*
X7193595Y49315667D01*
X7145976Y49410905D01*
X7145976Y49506143D01*
X7193595Y49601381D01*
X7241214Y49649000D01*
X7336452Y49696620D01*
X7574547Y49696620D01*
X7717404Y49649000D01*
X8717404Y48791858D02*
X8669785Y48744239D01*
X8526928Y48696620D01*
X8431690Y48696620D01*
X8288833Y48744239D01*
X8193595Y48839477D01*
X8145976Y48934715D01*
X8098357Y49125191D01*
X8098357Y49268048D01*
X8145976Y49458524D01*
X8193595Y49553762D01*
X8288833Y49649000D01*
X8431690Y49696620D01*
X8526928Y49696620D01*
X8669785Y49649000D01*
X8717404Y49601381D01*
X9145976Y48696620D02*
X9145976Y49696620D01*
X9717404Y48696620D02*
X9288833Y49268048D01*
X9717404Y49696620D02*
X9145976Y49125191D01*
X10336452Y49696620D02*
X10431690Y49696620D01*
X10526928Y49649000D01*
X10574547Y49601381D01*
X10622166Y49506143D01*
X10669785Y49315667D01*
X10669785Y49077572D01*
X10622166Y48887096D01*
X10574547Y48791858D01*
X10526928Y48744239D01*
X10431690Y48696620D01*
X10336452Y48696620D01*
X10241214Y48744239D01*
X10193595Y48791858D01*
X10145976Y48887096D01*
X10098357Y49077572D01*
X10098357Y49315667D01*
X10145976Y49506143D01*
X10193595Y49601381D01*
X10241214Y49649000D01*
X10336452Y49696620D01*
X12145976Y48315667D02*
X12098357Y48363286D01*
X12003119Y48506143D01*
X11955500Y48601381D01*
X11907880Y48744239D01*
X11860261Y48982334D01*
X11860261Y49172810D01*
X11907880Y49410905D01*
X11955500Y49553762D01*
X12003119Y49649000D01*
X12098357Y49791858D01*
X12145976Y49839477D01*
X13050738Y49649000D02*
X12955500Y49696620D01*
X12812642Y49696620D01*
X12669785Y49649000D01*
X12574547Y49553762D01*
X12526928Y49458524D01*
X12479309Y49268048D01*
X12479309Y49125191D01*
X12526928Y48934715D01*
X12574547Y48839477D01*
X12669785Y48744239D01*
X12812642Y48696620D01*
X12907880Y48696620D01*
X13050738Y48744239D01*
X13098357Y48791858D01*
X13098357Y49125191D01*
X12907880Y49125191D01*
X13526928Y48696620D02*
X13526928Y49696620D01*
X13907880Y49696620D01*
X14003119Y49649000D01*
X14050738Y49601381D01*
X14098357Y49506143D01*
X14098357Y49363286D01*
X14050738Y49268048D01*
X14003119Y49220429D01*
X13907880Y49172810D01*
X13526928Y49172810D01*
X14479309Y49601381D02*
X14526928Y49649000D01*
X14622166Y49696620D01*
X14860261Y49696620D01*
X14955500Y49649000D01*
X15003119Y49601381D01*
X15050738Y49506143D01*
X15050738Y49410905D01*
X15003119Y49268048D01*
X14431690Y48696620D01*
X15050738Y48696620D01*
X15384071Y48315667D02*
X15431690Y48363286D01*
X15526928Y48506143D01*
X15574547Y48601381D01*
X15622166Y48744239D01*
X15669785Y48982334D01*
X15669785Y49172810D01*
X15622166Y49410905D01*
X15574547Y49553762D01*
X15526928Y49649000D01*
X15431690Y49791858D01*
X15384071Y49839477D01*
X7717404Y39489000D02*
X7622166Y39536620D01*
X7479309Y39536620D01*
X7336452Y39489000D01*
X7241214Y39393762D01*
X7193595Y39298524D01*
X7145976Y39108048D01*
X7145976Y38965191D01*
X7193595Y38774715D01*
X7241214Y38679477D01*
X7336452Y38584239D01*
X7479309Y38536620D01*
X7574547Y38536620D01*
X7717404Y38584239D01*
X7765023Y38631858D01*
X7765023Y38965191D01*
X7574547Y38965191D01*
X8193595Y38536620D02*
X8193595Y39536620D01*
X8765023Y38536620D01*
X8765023Y39536620D01*
X9241214Y38536620D02*
X9241214Y39536620D01*
X9479309Y39536620D01*
X9622166Y39489000D01*
X9717404Y39393762D01*
X9765023Y39298524D01*
X9812642Y39108048D01*
X9812642Y38965191D01*
X9765023Y38774715D01*
X9717404Y38679477D01*
X9622166Y38584239D01*
X9479309Y38536620D01*
X9241214Y38536620D01*
X7177738Y42076620D02*
X7511071Y41076620D01*
X7844404Y42076620D01*
X8130119Y41124239D02*
X8272976Y41076620D01*
X8511071Y41076620D01*
X8606309Y41124239D01*
X8653928Y41171858D01*
X8701547Y41267096D01*
X8701547Y41362334D01*
X8653928Y41457572D01*
X8606309Y41505191D01*
X8511071Y41552810D01*
X8320595Y41600429D01*
X8225357Y41648048D01*
X8177738Y41695667D01*
X8130119Y41790905D01*
X8130119Y41886143D01*
X8177738Y41981381D01*
X8225357Y42029000D01*
X8320595Y42076620D01*
X8558690Y42076620D01*
X8701547Y42029000D01*
X9320595Y41552810D02*
X9320595Y41076620D01*
X8987261Y42076620D02*
X9320595Y41552810D01*
X9653928Y42076620D01*
X9939642Y41124239D02*
X10082500Y41076620D01*
X10320595Y41076620D01*
X10415833Y41124239D01*
X10463452Y41171858D01*
X10511071Y41267096D01*
X10511071Y41362334D01*
X10463452Y41457572D01*
X10415833Y41505191D01*
X10320595Y41552810D01*
X10130119Y41600429D01*
X10034880Y41648048D01*
X9987261Y41695667D01*
X9939642Y41790905D01*
X9939642Y41886143D01*
X9987261Y41981381D01*
X10034880Y42029000D01*
X10130119Y42076620D01*
X10368214Y42076620D01*
X10511071Y42029000D01*
X7177738Y11596620D02*
X7511071Y10596620D01*
X7844404Y11596620D01*
X8130119Y10644239D02*
X8272976Y10596620D01*
X8511071Y10596620D01*
X8606309Y10644239D01*
X8653928Y10691858D01*
X8701547Y10787096D01*
X8701547Y10882334D01*
X8653928Y10977572D01*
X8606309Y11025191D01*
X8511071Y11072810D01*
X8320595Y11120429D01*
X8225357Y11168048D01*
X8177738Y11215667D01*
X8130119Y11310905D01*
X8130119Y11406143D01*
X8177738Y11501381D01*
X8225357Y11549000D01*
X8320595Y11596620D01*
X8558690Y11596620D01*
X8701547Y11549000D01*
X9320595Y11072810D02*
X9320595Y10596620D01*
X8987261Y11596620D02*
X9320595Y11072810D01*
X9653928Y11596620D01*
X9939642Y10644239D02*
X10082500Y10596620D01*
X10320595Y10596620D01*
X10415833Y10644239D01*
X10463452Y10691858D01*
X10511071Y10787096D01*
X10511071Y10882334D01*
X10463452Y10977572D01*
X10415833Y11025191D01*
X10320595Y11072810D01*
X10130119Y11120429D01*
X10034880Y11168048D01*
X9987261Y11215667D01*
X9939642Y11310905D01*
X9939642Y11406143D01*
X9987261Y11501381D01*
X10034880Y11549000D01*
X10130119Y11596620D01*
X10368214Y11596620D01*
X10511071Y11549000D01*
X7717404Y14089000D02*
X7622166Y14136620D01*
X7479309Y14136620D01*
X7336452Y14089000D01*
X7241214Y13993762D01*
X7193595Y13898524D01*
X7145976Y13708048D01*
X7145976Y13565191D01*
X7193595Y13374715D01*
X7241214Y13279477D01*
X7336452Y13184239D01*
X7479309Y13136620D01*
X7574547Y13136620D01*
X7717404Y13184239D01*
X7765023Y13231858D01*
X7765023Y13565191D01*
X7574547Y13565191D01*
X8193595Y13136620D02*
X8193595Y14136620D01*
X8765023Y13136620D01*
X8765023Y14136620D01*
X9241214Y13136620D02*
X9241214Y14136620D01*
X9479309Y14136620D01*
X9622166Y14089000D01*
X9717404Y13993762D01*
X9765023Y13898524D01*
X9812642Y13708048D01*
X9812642Y13565191D01*
X9765023Y13374715D01*
X9717404Y13279477D01*
X9622166Y13184239D01*
X9479309Y13136620D01*
X9241214Y13136620D01*
X7145976Y15724239D02*
X7288833Y15676620D01*
X7526928Y15676620D01*
X7622166Y15724239D01*
X7669785Y15771858D01*
X7717404Y15867096D01*
X7717404Y15962334D01*
X7669785Y16057572D01*
X7622166Y16105191D01*
X7526928Y16152810D01*
X7336452Y16200429D01*
X7241214Y16248048D01*
X7193595Y16295667D01*
X7145976Y16390905D01*
X7145976Y16486143D01*
X7193595Y16581381D01*
X7241214Y16629000D01*
X7336452Y16676620D01*
X7574547Y16676620D01*
X7717404Y16629000D01*
X8717404Y15771858D02*
X8669785Y15724239D01*
X8526928Y15676620D01*
X8431690Y15676620D01*
X8288833Y15724239D01*
X8193595Y15819477D01*
X8145976Y15914715D01*
X8098357Y16105191D01*
X8098357Y16248048D01*
X8145976Y16438524D01*
X8193595Y16533762D01*
X8288833Y16629000D01*
X8431690Y16676620D01*
X8526928Y16676620D01*
X8669785Y16629000D01*
X8717404Y16581381D01*
X9622166Y15676620D02*
X9145976Y15676620D01*
X9145976Y16676620D01*
X10145976Y16676620D02*
X10241214Y16676620D01*
X10336452Y16629000D01*
X10384071Y16581381D01*
X10431690Y16486143D01*
X10479309Y16295667D01*
X10479309Y16057572D01*
X10431690Y15867096D01*
X10384071Y15771858D01*
X10336452Y15724239D01*
X10241214Y15676620D01*
X10145976Y15676620D01*
X10050738Y15724239D01*
X10003119Y15771858D01*
X9955500Y15867096D01*
X9907880Y16057572D01*
X9907880Y16295667D01*
X9955500Y16486143D01*
X10003119Y16581381D01*
X10050738Y16629000D01*
X10145976Y16676620D01*
X11955500Y15295667D02*
X11907880Y15343286D01*
X11812642Y15486143D01*
X11765023Y15581381D01*
X11717404Y15724239D01*
X11669785Y15962334D01*
X11669785Y16152810D01*
X11717404Y16390905D01*
X11765023Y16533762D01*
X11812642Y16629000D01*
X11907880Y16771858D01*
X11955500Y16819477D01*
X12860261Y16629000D02*
X12765023Y16676620D01*
X12622166Y16676620D01*
X12479309Y16629000D01*
X12384071Y16533762D01*
X12336452Y16438524D01*
X12288833Y16248048D01*
X12288833Y16105191D01*
X12336452Y15914715D01*
X12384071Y15819477D01*
X12479309Y15724239D01*
X12622166Y15676620D01*
X12717404Y15676620D01*
X12860261Y15724239D01*
X12907880Y15771858D01*
X12907880Y16105191D01*
X12717404Y16105191D01*
X13336452Y15676620D02*
X13336452Y16676620D01*
X13717404Y16676620D01*
X13812642Y16629000D01*
X13860261Y16581381D01*
X13907880Y16486143D01*
X13907880Y16343286D01*
X13860261Y16248048D01*
X13812642Y16200429D01*
X13717404Y16152810D01*
X13336452Y16152810D01*
X14288833Y16581381D02*
X14336452Y16629000D01*
X14431690Y16676620D01*
X14669785Y16676620D01*
X14765023Y16629000D01*
X14812642Y16581381D01*
X14860261Y16486143D01*
X14860261Y16390905D01*
X14812642Y16248048D01*
X14241214Y15676620D01*
X14860261Y15676620D01*
X15479309Y16676620D02*
X15574547Y16676620D01*
X15669785Y16629000D01*
X15717404Y16581381D01*
X15765023Y16486143D01*
X15812642Y16295667D01*
X15812642Y16057572D01*
X15765023Y15867096D01*
X15717404Y15771858D01*
X15669785Y15724239D01*
X15574547Y15676620D01*
X15479309Y15676620D01*
X15384071Y15724239D01*
X15336452Y15771858D01*
X15288833Y15867096D01*
X15241214Y16057572D01*
X15241214Y16295667D01*
X15288833Y16486143D01*
X15336452Y16581381D01*
X15384071Y16629000D01*
X15479309Y16676620D01*
X16145976Y15295667D02*
X16193595Y15343286D01*
X16288833Y15486143D01*
X16336452Y15581381D01*
X16384071Y15724239D01*
X16431690Y15962334D01*
X16431690Y16152810D01*
X16384071Y16390905D01*
X16336452Y16533762D01*
X16288833Y16629000D01*
X16193595Y16771858D01*
X16145976Y16819477D01*
X7145976Y18264239D02*
X7288833Y18216620D01*
X7526928Y18216620D01*
X7622166Y18264239D01*
X7669785Y18311858D01*
X7717404Y18407096D01*
X7717404Y18502334D01*
X7669785Y18597572D01*
X7622166Y18645191D01*
X7526928Y18692810D01*
X7336452Y18740429D01*
X7241214Y18788048D01*
X7193595Y18835667D01*
X7145976Y18930905D01*
X7145976Y19026143D01*
X7193595Y19121381D01*
X7241214Y19169000D01*
X7336452Y19216620D01*
X7574547Y19216620D01*
X7717404Y19169000D01*
X8145976Y18216620D02*
X8145976Y19216620D01*
X8384071Y19216620D01*
X8526928Y19169000D01*
X8622166Y19073762D01*
X8669785Y18978524D01*
X8717404Y18788048D01*
X8717404Y18645191D01*
X8669785Y18454715D01*
X8622166Y18359477D01*
X8526928Y18264239D01*
X8384071Y18216620D01*
X8145976Y18216620D01*
X9098357Y18502334D02*
X9574547Y18502334D01*
X9003119Y18216620D02*
X9336452Y19216620D01*
X9669785Y18216620D01*
X10193595Y19216620D02*
X10288833Y19216620D01*
X10384071Y19169000D01*
X10431690Y19121381D01*
X10479309Y19026143D01*
X10526928Y18835667D01*
X10526928Y18597572D01*
X10479309Y18407096D01*
X10431690Y18311858D01*
X10384071Y18264239D01*
X10288833Y18216620D01*
X10193595Y18216620D01*
X10098357Y18264239D01*
X10050738Y18311858D01*
X10003119Y18407096D01*
X9955500Y18597572D01*
X9955500Y18835667D01*
X10003119Y19026143D01*
X10050738Y19121381D01*
X10098357Y19169000D01*
X10193595Y19216620D01*
X12003119Y17835667D02*
X11955500Y17883286D01*
X11860261Y18026143D01*
X11812642Y18121381D01*
X11765023Y18264239D01*
X11717404Y18502334D01*
X11717404Y18692810D01*
X11765023Y18930905D01*
X11812642Y19073762D01*
X11860261Y19169000D01*
X11955500Y19311858D01*
X12003119Y19359477D01*
X12907880Y19169000D02*
X12812642Y19216620D01*
X12669785Y19216620D01*
X12526928Y19169000D01*
X12431690Y19073762D01*
X12384071Y18978524D01*
X12336452Y18788048D01*
X12336452Y18645191D01*
X12384071Y18454715D01*
X12431690Y18359477D01*
X12526928Y18264239D01*
X12669785Y18216620D01*
X12765023Y18216620D01*
X12907880Y18264239D01*
X12955500Y18311858D01*
X12955500Y18645191D01*
X12765023Y18645191D01*
X13384071Y18216620D02*
X13384071Y19216620D01*
X13765023Y19216620D01*
X13860261Y19169000D01*
X13907880Y19121381D01*
X13955500Y19026143D01*
X13955500Y18883286D01*
X13907880Y18788048D01*
X13860261Y18740429D01*
X13765023Y18692810D01*
X13384071Y18692810D01*
X14336452Y19121381D02*
X14384071Y19169000D01*
X14479309Y19216620D01*
X14717404Y19216620D01*
X14812642Y19169000D01*
X14860261Y19121381D01*
X14907880Y19026143D01*
X14907880Y18930905D01*
X14860261Y18788048D01*
X14288833Y18216620D01*
X14907880Y18216620D01*
X15860261Y18216620D02*
X15288833Y18216620D01*
X15574547Y18216620D02*
X15574547Y19216620D01*
X15479309Y19073762D01*
X15384071Y18978524D01*
X15288833Y18930905D01*
X16193595Y17835667D02*
X16241214Y17883286D01*
X16336452Y18026143D01*
X16384071Y18121381D01*
X16431690Y18264239D01*
X16479309Y18502334D01*
X16479309Y18692810D01*
X16431690Y18930905D01*
X16384071Y19073762D01*
X16336452Y19169000D01*
X16241214Y19311858D01*
X16193595Y19359477D01*
X7225357Y21756620D02*
X7892023Y20756620D01*
X7892023Y21756620D02*
X7225357Y20756620D01*
X8272976Y20756620D02*
X8272976Y21756620D01*
X8511071Y21756620D01*
X8653928Y21709000D01*
X8749166Y21613762D01*
X8796785Y21518524D01*
X8844404Y21328048D01*
X8844404Y21185191D01*
X8796785Y20994715D01*
X8749166Y20899477D01*
X8653928Y20804239D01*
X8511071Y20756620D01*
X8272976Y20756620D01*
X9225357Y21042334D02*
X9701547Y21042334D01*
X9130119Y20756620D02*
X9463452Y21756620D01*
X9796785Y20756620D01*
X11177738Y20375667D02*
X11130119Y20423286D01*
X11034880Y20566143D01*
X10987261Y20661381D01*
X10939642Y20804239D01*
X10892023Y21042334D01*
X10892023Y21232810D01*
X10939642Y21470905D01*
X10987261Y21613762D01*
X11034880Y21709000D01*
X11130119Y21851858D01*
X11177738Y21899477D01*
X11558690Y20756620D02*
X11558690Y21756620D01*
X12130119Y20756620D01*
X12130119Y21756620D01*
X13177738Y20851858D02*
X13130119Y20804239D01*
X12987261Y20756620D01*
X12892023Y20756620D01*
X12749166Y20804239D01*
X12653928Y20899477D01*
X12606309Y20994715D01*
X12558690Y21185191D01*
X12558690Y21328048D01*
X12606309Y21518524D01*
X12653928Y21613762D01*
X12749166Y21709000D01*
X12892023Y21756620D01*
X12987261Y21756620D01*
X13130119Y21709000D01*
X13177738Y21661381D01*
X13511071Y20375667D02*
X13558690Y20423286D01*
X13653928Y20566143D01*
X13701547Y20661381D01*
X13749166Y20804239D01*
X13796785Y21042334D01*
X13796785Y21232810D01*
X13749166Y21470905D01*
X13701547Y21613762D01*
X13653928Y21709000D01*
X13558690Y21851858D01*
X13511071Y21899477D01*
X7225357Y24296620D02*
X7892023Y23296620D01*
X7892023Y24296620D02*
X7225357Y23296620D01*
X8844404Y23391858D02*
X8796785Y23344239D01*
X8653928Y23296620D01*
X8558690Y23296620D01*
X8415833Y23344239D01*
X8320595Y23439477D01*
X8272976Y23534715D01*
X8225357Y23725191D01*
X8225357Y23868048D01*
X8272976Y24058524D01*
X8320595Y24153762D01*
X8415833Y24249000D01*
X8558690Y24296620D01*
X8653928Y24296620D01*
X8796785Y24249000D01*
X8844404Y24201381D01*
X9749166Y23296620D02*
X9272976Y23296620D01*
X9272976Y24296620D01*
X11130119Y22915667D02*
X11082500Y22963286D01*
X10987261Y23106143D01*
X10939642Y23201381D01*
X10892023Y23344239D01*
X10844404Y23582334D01*
X10844404Y23772810D01*
X10892023Y24010905D01*
X10939642Y24153762D01*
X10987261Y24249000D01*
X11082500Y24391858D01*
X11130119Y24439477D01*
X11511071Y23296620D02*
X11511071Y24296620D01*
X12082500Y23296620D01*
X12082500Y24296620D01*
X13130119Y23391858D02*
X13082500Y23344239D01*
X12939642Y23296620D01*
X12844404Y23296620D01*
X12701547Y23344239D01*
X12606309Y23439477D01*
X12558690Y23534715D01*
X12511071Y23725191D01*
X12511071Y23868048D01*
X12558690Y24058524D01*
X12606309Y24153762D01*
X12701547Y24249000D01*
X12844404Y24296620D01*
X12939642Y24296620D01*
X13082500Y24249000D01*
X13130119Y24201381D01*
X13463452Y22915667D02*
X13511071Y22963286D01*
X13606309Y23106143D01*
X13653928Y23201381D01*
X13701547Y23344239D01*
X13749166Y23582334D01*
X13749166Y23772810D01*
X13701547Y24010905D01*
X13653928Y24153762D01*
X13606309Y24249000D01*
X13511071Y24391858D01*
X13463452Y24439477D01*
X7272976Y26122334D02*
X7749166Y26122334D01*
X7177738Y25836620D02*
X7511071Y26836620D01*
X7844404Y25836620D01*
X8177738Y25836620D02*
X8177738Y26836620D01*
X8415833Y26836620D01*
X8558690Y26789000D01*
X8653928Y26693762D01*
X8701547Y26598524D01*
X8749166Y26408048D01*
X8749166Y26265191D01*
X8701547Y26074715D01*
X8653928Y25979477D01*
X8558690Y25884239D01*
X8415833Y25836620D01*
X8177738Y25836620D01*
X9368214Y26836620D02*
X9463452Y26836620D01*
X9558690Y26789000D01*
X9606309Y26741381D01*
X9653928Y26646143D01*
X9701547Y26455667D01*
X9701547Y26217572D01*
X9653928Y26027096D01*
X9606309Y25931858D01*
X9558690Y25884239D01*
X9463452Y25836620D01*
X9368214Y25836620D01*
X9272976Y25884239D01*
X9225357Y25931858D01*
X9177738Y26027096D01*
X9130119Y26217572D01*
X9130119Y26455667D01*
X9177738Y26646143D01*
X9225357Y26741381D01*
X9272976Y26789000D01*
X9368214Y26836620D01*
X11177738Y25455667D02*
X11130119Y25503286D01*
X11034880Y25646143D01*
X10987261Y25741381D01*
X10939642Y25884239D01*
X10892023Y26122334D01*
X10892023Y26312810D01*
X10939642Y26550905D01*
X10987261Y26693762D01*
X11034880Y26789000D01*
X11130119Y26931858D01*
X11177738Y26979477D01*
X12082500Y26789000D02*
X11987261Y26836620D01*
X11844404Y26836620D01*
X11701547Y26789000D01*
X11606309Y26693762D01*
X11558690Y26598524D01*
X11511071Y26408048D01*
X11511071Y26265191D01*
X11558690Y26074715D01*
X11606309Y25979477D01*
X11701547Y25884239D01*
X11844404Y25836620D01*
X11939642Y25836620D01*
X12082500Y25884239D01*
X12130119Y25931858D01*
X12130119Y26265191D01*
X11939642Y26265191D01*
X12558690Y25836620D02*
X12558690Y26836620D01*
X12939642Y26836620D01*
X13034880Y26789000D01*
X13082500Y26741381D01*
X13130119Y26646143D01*
X13130119Y26503286D01*
X13082500Y26408048D01*
X13034880Y26360429D01*
X12939642Y26312810D01*
X12558690Y26312810D01*
X13463452Y26836620D02*
X14130119Y26836620D01*
X13701547Y25836620D01*
X14415833Y25455667D02*
X14463452Y25503286D01*
X14558690Y25646143D01*
X14606309Y25741381D01*
X14653928Y25884239D01*
X14701547Y26122334D01*
X14701547Y26312810D01*
X14653928Y26550905D01*
X14606309Y26693762D01*
X14558690Y26789000D01*
X14463452Y26931858D01*
X14415833Y26979477D01*
X7193595Y28376620D02*
X7193595Y29376620D01*
X7669785Y28376620D02*
X7669785Y29376620D01*
X8241214Y28376620D01*
X8241214Y29376620D01*
X8574547Y29376620D02*
X9145976Y29376620D01*
X8860261Y28376620D02*
X8860261Y29376620D01*
X10526928Y27995667D02*
X10479309Y28043286D01*
X10384071Y28186143D01*
X10336452Y28281381D01*
X10288833Y28424239D01*
X10241214Y28662334D01*
X10241214Y28852810D01*
X10288833Y29090905D01*
X10336452Y29233762D01*
X10384071Y29329000D01*
X10479309Y29471858D01*
X10526928Y29519477D01*
X11431690Y29329000D02*
X11336452Y29376620D01*
X11193595Y29376620D01*
X11050738Y29329000D01*
X10955500Y29233762D01*
X10907880Y29138524D01*
X10860261Y28948048D01*
X10860261Y28805191D01*
X10907880Y28614715D01*
X10955500Y28519477D01*
X11050738Y28424239D01*
X11193595Y28376620D01*
X11288833Y28376620D01*
X11431690Y28424239D01*
X11479309Y28471858D01*
X11479309Y28805191D01*
X11288833Y28805191D01*
X11907880Y28376620D02*
X11907880Y29376620D01*
X12288833Y29376620D01*
X12384071Y29329000D01*
X12431690Y29281381D01*
X12479309Y29186143D01*
X12479309Y29043286D01*
X12431690Y28948048D01*
X12384071Y28900429D01*
X12288833Y28852810D01*
X11907880Y28852810D01*
X13336452Y29376620D02*
X13145976Y29376620D01*
X13050738Y29329000D01*
X13003119Y29281381D01*
X12907880Y29138524D01*
X12860261Y28948048D01*
X12860261Y28567096D01*
X12907880Y28471858D01*
X12955500Y28424239D01*
X13050738Y28376620D01*
X13241214Y28376620D01*
X13336452Y28424239D01*
X13384071Y28471858D01*
X13431690Y28567096D01*
X13431690Y28805191D01*
X13384071Y28900429D01*
X13336452Y28948048D01*
X13241214Y28995667D01*
X13050738Y28995667D01*
X12955500Y28948048D01*
X12907880Y28900429D01*
X12860261Y28805191D01*
X13765023Y27995667D02*
X13812642Y28043286D01*
X13907880Y28186143D01*
X13955500Y28281381D01*
X14003119Y28424239D01*
X14050738Y28662334D01*
X14050738Y28852810D01*
X14003119Y29090905D01*
X13955500Y29233762D01*
X13907880Y29329000D01*
X13812642Y29471858D01*
X13765023Y29519477D01*
X61888666Y74612953D02*
X61888666Y75089143D01*
X62174380Y74517715D02*
X61174380Y74851048D01*
X62174380Y75184381D01*
X62174380Y75517715D02*
X61174380Y75517715D01*
X61174380Y75755810D01*
X61222000Y75898667D01*
X61317238Y75993905D01*
X61412476Y76041524D01*
X61602952Y76089143D01*
X61745809Y76089143D01*
X61936285Y76041524D01*
X62031523Y75993905D01*
X62126761Y75898667D01*
X62174380Y75755810D01*
X62174380Y75517715D01*
X62079142Y77089143D02*
X62126761Y77041524D01*
X62174380Y76898667D01*
X62174380Y76803429D01*
X62126761Y76660572D01*
X62031523Y76565334D01*
X61936285Y76517715D01*
X61745809Y76470096D01*
X61602952Y76470096D01*
X61412476Y76517715D01*
X61317238Y76565334D01*
X61222000Y76660572D01*
X61174380Y76803429D01*
X61174380Y76898667D01*
X61222000Y77041524D01*
X61269619Y77089143D01*
X61174380Y77708191D02*
X61174380Y77803429D01*
X61222000Y77898667D01*
X61269619Y77946286D01*
X61364857Y77993905D01*
X61555333Y78041524D01*
X61793428Y78041524D01*
X61983904Y77993905D01*
X62079142Y77946286D01*
X62126761Y77898667D01*
X62174380Y77803429D01*
X62174380Y77708191D01*
X62126761Y77612953D01*
X62079142Y77565334D01*
X61983904Y77517715D01*
X61793428Y77470096D01*
X61555333Y77470096D01*
X61364857Y77517715D01*
X61269619Y77565334D01*
X61222000Y77612953D01*
X61174380Y77708191D01*
X62269619Y78232000D02*
X62269619Y78993905D01*
X62174380Y79232000D02*
X61174380Y79232000D01*
X61174380Y79612953D01*
X61222000Y79708191D01*
X61269619Y79755810D01*
X61364857Y79803429D01*
X61507714Y79803429D01*
X61602952Y79755810D01*
X61650571Y79708191D01*
X61698190Y79612953D01*
X61698190Y79232000D01*
X61174380Y80232000D02*
X61983904Y80232000D01*
X62079142Y80279620D01*
X62126761Y80327239D01*
X62174380Y80422477D01*
X62174380Y80612953D01*
X62126761Y80708191D01*
X62079142Y80755810D01*
X61983904Y80803429D01*
X61174380Y80803429D01*
X62174380Y81279620D02*
X61174380Y81279620D01*
X61174380Y81660572D01*
X61222000Y81755810D01*
X61269619Y81803429D01*
X61364857Y81851048D01*
X61507714Y81851048D01*
X61602952Y81803429D01*
X61650571Y81755810D01*
X61698190Y81660572D01*
X61698190Y81279620D01*
X72556666Y74612953D02*
X72556666Y75089143D01*
X72842380Y74517715D02*
X71842380Y74851048D01*
X72842380Y75184381D01*
X72842380Y75517715D02*
X71842380Y75517715D01*
X71842380Y75755810D01*
X71890000Y75898667D01*
X71985238Y75993905D01*
X72080476Y76041524D01*
X72270952Y76089143D01*
X72413809Y76089143D01*
X72604285Y76041524D01*
X72699523Y75993905D01*
X72794761Y75898667D01*
X72842380Y75755810D01*
X72842380Y75517715D01*
X72747142Y77089143D02*
X72794761Y77041524D01*
X72842380Y76898667D01*
X72842380Y76803429D01*
X72794761Y76660572D01*
X72699523Y76565334D01*
X72604285Y76517715D01*
X72413809Y76470096D01*
X72270952Y76470096D01*
X72080476Y76517715D01*
X71985238Y76565334D01*
X71890000Y76660572D01*
X71842380Y76803429D01*
X71842380Y76898667D01*
X71890000Y77041524D01*
X71937619Y77089143D01*
X72842380Y78041524D02*
X72842380Y77470096D01*
X72842380Y77755810D02*
X71842380Y77755810D01*
X71985238Y77660572D01*
X72080476Y77565334D01*
X72128095Y77470096D01*
X72937619Y78232000D02*
X72937619Y78993905D01*
X72842380Y79232000D02*
X71842380Y79232000D01*
X71842380Y79612953D01*
X71890000Y79708191D01*
X71937619Y79755810D01*
X72032857Y79803429D01*
X72175714Y79803429D01*
X72270952Y79755810D01*
X72318571Y79708191D01*
X72366190Y79612953D01*
X72366190Y79232000D01*
X71842380Y80232000D02*
X72651904Y80232000D01*
X72747142Y80279620D01*
X72794761Y80327239D01*
X72842380Y80422477D01*
X72842380Y80612953D01*
X72794761Y80708191D01*
X72747142Y80755810D01*
X72651904Y80803429D01*
X71842380Y80803429D01*
X72842380Y81279620D02*
X71842380Y81279620D01*
X71842380Y81660572D01*
X71890000Y81755810D01*
X71937619Y81803429D01*
X72032857Y81851048D01*
X72175714Y81851048D01*
X72270952Y81803429D01*
X72318571Y81755810D01*
X72366190Y81660572D01*
X72366190Y81279620D01*
D11*
X41695928Y71457429D02*
X41883428Y72957429D01*
X42338785Y71457429D02*
X42436999Y72243143D01*
X42383428Y72386000D01*
X42249499Y72457429D01*
X42035214Y72457429D01*
X41883428Y72386000D01*
X41803071Y72314572D01*
X42963785Y72457429D02*
X43535214Y72457429D01*
X43240571Y72957429D02*
X43079857Y71671715D01*
X43133428Y71528858D01*
X43267357Y71457429D01*
X43410214Y71457429D01*
X43820928Y72457429D02*
X44392357Y72457429D01*
X44097714Y72957429D02*
X43936999Y71671715D01*
X43990571Y71528858D01*
X44124499Y71457429D01*
X44267357Y71457429D01*
X44892357Y72457429D02*
X44704857Y70957429D01*
X44883428Y72386000D02*
X45035214Y72457429D01*
X45320928Y72457429D01*
X45454857Y72386000D01*
X45517357Y72314572D01*
X45570928Y72171715D01*
X45517357Y71743143D01*
X45428071Y71600286D01*
X45347714Y71528858D01*
X45195928Y71457429D01*
X44910214Y71457429D01*
X44776285Y71528858D01*
X46061999Y71528858D02*
X46195928Y71457429D01*
X46481642Y71457429D01*
X46633428Y71528858D01*
X46722714Y71671715D01*
X46731642Y71743143D01*
X46678071Y71886000D01*
X46544142Y71957429D01*
X46329857Y71957429D01*
X46195928Y72028858D01*
X46142357Y72171715D01*
X46151285Y72243143D01*
X46240571Y72386000D01*
X46392357Y72457429D01*
X46606642Y72457429D01*
X46740571Y72386000D01*
X47356642Y71600286D02*
X47419142Y71528858D01*
X47338785Y71457429D01*
X47276285Y71528858D01*
X47356642Y71600286D01*
X47338785Y71457429D01*
X47454857Y72386000D02*
X47517357Y72314572D01*
X47436999Y72243143D01*
X47374499Y72314572D01*
X47454857Y72386000D01*
X47436999Y72243143D01*
X49320928Y73028858D02*
X47794142Y71100286D01*
X50892357Y73028858D02*
X49365571Y71100286D01*
X51669142Y72957429D02*
X51811999Y72957429D01*
X51945928Y72886000D01*
X52008428Y72814572D01*
X52061999Y72671715D01*
X52097714Y72386000D01*
X52053071Y72028858D01*
X51945928Y71743143D01*
X51856642Y71600286D01*
X51776285Y71528858D01*
X51624499Y71457429D01*
X51481642Y71457429D01*
X51347714Y71528858D01*
X51285214Y71600286D01*
X51231642Y71743143D01*
X51195928Y72028858D01*
X51240571Y72386000D01*
X51347714Y72671715D01*
X51437000Y72814572D01*
X51517357Y72886000D01*
X51669142Y72957429D01*
X53410214Y71457429D02*
X52553071Y71457429D01*
X52981642Y71457429D02*
X53169142Y72957429D01*
X52999499Y72743143D01*
X52838785Y72600286D01*
X52687000Y72528858D01*
X54526285Y72957429D02*
X54669142Y72957429D01*
X54803071Y72886000D01*
X54865571Y72814572D01*
X54919142Y72671715D01*
X54954857Y72386000D01*
X54910214Y72028858D01*
X54803071Y71743143D01*
X54713785Y71600286D01*
X54633428Y71528858D01*
X54481642Y71457429D01*
X54338785Y71457429D01*
X54204857Y71528858D01*
X54142357Y71600286D01*
X54088785Y71743143D01*
X54053071Y72028858D01*
X54097714Y72386000D01*
X54204857Y72671715D01*
X54294142Y72814572D01*
X54374500Y72886000D01*
X54526285Y72957429D01*
X55954857Y72957429D02*
X56097714Y72957429D01*
X56231642Y72886000D01*
X56294142Y72814572D01*
X56347714Y72671715D01*
X56383428Y72386000D01*
X56338785Y72028858D01*
X56231642Y71743143D01*
X56142357Y71600286D01*
X56062000Y71528858D01*
X55910214Y71457429D01*
X55767357Y71457429D01*
X55633428Y71528858D01*
X55570928Y71600286D01*
X55517357Y71743143D01*
X55481642Y72028858D01*
X55526285Y72386000D01*
X55633428Y72671715D01*
X55722714Y72814572D01*
X55803071Y72886000D01*
X55954857Y72957429D01*
X57695928Y71457429D02*
X56838785Y71457429D01*
X57267357Y71457429D02*
X57454857Y72957429D01*
X57285214Y72743143D01*
X57124500Y72600286D01*
X56972714Y72528858D01*
X58812000Y72957429D02*
X58954857Y72957429D01*
X59088785Y72886000D01*
X59151285Y72814572D01*
X59204857Y72671715D01*
X59240571Y72386000D01*
X59195928Y72028858D01*
X59088785Y71743143D01*
X58999500Y71600286D01*
X58919142Y71528858D01*
X58767357Y71457429D01*
X58624500Y71457429D01*
X58490571Y71528858D01*
X58428071Y71600286D01*
X58374500Y71743143D01*
X58338785Y72028858D01*
X58383428Y72386000D01*
X58490571Y72671715D01*
X58579857Y72814572D01*
X58660214Y72886000D01*
X58812000Y72957429D01*
X60240571Y72957429D02*
X60383428Y72957429D01*
X60517357Y72886000D01*
X60579857Y72814572D01*
X60633428Y72671715D01*
X60669142Y72386000D01*
X60624500Y72028858D01*
X60517357Y71743143D01*
X60428071Y71600286D01*
X60347714Y71528858D01*
X60195928Y71457429D01*
X60053071Y71457429D01*
X59919142Y71528858D01*
X59856642Y71600286D01*
X59803071Y71743143D01*
X59767357Y72028858D01*
X59812000Y72386000D01*
X59919142Y72671715D01*
X60008428Y72814572D01*
X60088785Y72886000D01*
X60240571Y72957429D01*
X61669142Y72957429D02*
X61812000Y72957429D01*
X61945928Y72886000D01*
X62008428Y72814572D01*
X62062000Y72671715D01*
X62097714Y72386000D01*
X62053071Y72028858D01*
X61945928Y71743143D01*
X61856642Y71600286D01*
X61776285Y71528858D01*
X61624500Y71457429D01*
X61481642Y71457429D01*
X61347714Y71528858D01*
X61285214Y71600286D01*
X61231642Y71743143D01*
X61195928Y72028858D01*
X61240571Y72386000D01*
X61347714Y72671715D01*
X61437000Y72814572D01*
X61517357Y72886000D01*
X61669142Y72957429D01*
X62642357Y71600286D02*
X62704857Y71528858D01*
X62624500Y71457429D01*
X62562000Y71528858D01*
X62642357Y71600286D01*
X62624500Y71457429D01*
X63195928Y71457429D02*
X64106642Y72457429D01*
X63320928Y72457429D02*
X63981642Y71457429D01*
X64535214Y72457429D02*
X64767357Y71457429D01*
X65249500Y72457429D02*
X64767357Y71457429D01*
X64579857Y71100286D01*
X64499500Y71028858D01*
X64347714Y70957429D01*
X65678071Y72457429D02*
X66463785Y72457429D01*
X65553071Y71457429D01*
X66338785Y71457429D01*
X6124357Y2242429D02*
X6311857Y3742429D01*
X6883285Y3742429D01*
X7017214Y3671000D01*
X7079714Y3599572D01*
X7133285Y3456715D01*
X7106500Y3242429D01*
X7017214Y3099572D01*
X6936857Y3028143D01*
X6785071Y2956715D01*
X6213642Y2956715D01*
X7624357Y2242429D02*
X7749357Y3242429D01*
X7811857Y3742429D02*
X7731500Y3671000D01*
X7794000Y3599572D01*
X7874357Y3671000D01*
X7811857Y3742429D01*
X7794000Y3599572D01*
X8990428Y2313858D02*
X8838642Y2242429D01*
X8552928Y2242429D01*
X8419000Y2313858D01*
X8356500Y2385286D01*
X8302928Y2528143D01*
X8356500Y2956715D01*
X8445785Y3099572D01*
X8526142Y3171000D01*
X8677928Y3242429D01*
X8963642Y3242429D01*
X9097571Y3171000D01*
X9838642Y2242429D02*
X9704714Y2313858D01*
X9642214Y2385286D01*
X9588642Y2528143D01*
X9642214Y2956715D01*
X9731500Y3099572D01*
X9811857Y3171000D01*
X9963642Y3242429D01*
X10177928Y3242429D01*
X10311857Y3171000D01*
X10374357Y3099572D01*
X10427928Y2956715D01*
X10374357Y2528143D01*
X10285071Y2385286D01*
X10204714Y2313858D01*
X10052928Y2242429D01*
X9838642Y2242429D01*
X12722571Y3028143D02*
X12927928Y2956715D01*
X12990428Y2885286D01*
X13044000Y2742429D01*
X13017214Y2528143D01*
X12927928Y2385286D01*
X12847571Y2313858D01*
X12695785Y2242429D01*
X12124357Y2242429D01*
X12311857Y3742429D01*
X12811857Y3742429D01*
X12945785Y3671000D01*
X13008285Y3599572D01*
X13061857Y3456715D01*
X13044000Y3313858D01*
X12954714Y3171000D01*
X12874357Y3099572D01*
X12722571Y3028143D01*
X12222571Y3028143D01*
X14267214Y2242429D02*
X14365428Y3028143D01*
X14311857Y3171000D01*
X14177928Y3242429D01*
X13892214Y3242429D01*
X13740428Y3171000D01*
X14276142Y2313858D02*
X14124357Y2242429D01*
X13767214Y2242429D01*
X13633285Y2313858D01*
X13579714Y2456715D01*
X13597571Y2599572D01*
X13686857Y2742429D01*
X13838642Y2813858D01*
X14195785Y2813858D01*
X14347571Y2885286D01*
X14919000Y2313858D02*
X15052928Y2242429D01*
X15338642Y2242429D01*
X15490428Y2313858D01*
X15579714Y2456715D01*
X15588642Y2528143D01*
X15535071Y2671000D01*
X15401142Y2742429D01*
X15186857Y2742429D01*
X15052928Y2813858D01*
X14999357Y2956715D01*
X15008285Y3028143D01*
X15097571Y3171000D01*
X15249357Y3242429D01*
X15463642Y3242429D01*
X15597571Y3171000D01*
X16776142Y2313858D02*
X16624357Y2242429D01*
X16338642Y2242429D01*
X16204714Y2313858D01*
X16151142Y2456715D01*
X16222571Y3028143D01*
X16311857Y3171000D01*
X16463642Y3242429D01*
X16749357Y3242429D01*
X16883285Y3171000D01*
X16936857Y3028143D01*
X16919000Y2885286D01*
X16186857Y2742429D01*
X17481500Y2242429D02*
X17669000Y3742429D01*
X17597571Y3171000D02*
X17749357Y3242429D01*
X18035071Y3242429D01*
X18169000Y3171000D01*
X18231500Y3099572D01*
X18285071Y2956715D01*
X18231500Y2528143D01*
X18142214Y2385286D01*
X18061857Y2313858D01*
X17910071Y2242429D01*
X17624357Y2242429D01*
X17490428Y2313858D01*
X19052928Y2242429D02*
X18919000Y2313858D01*
X18856500Y2385286D01*
X18802928Y2528143D01*
X18856500Y2956715D01*
X18945785Y3099572D01*
X19026142Y3171000D01*
X19177928Y3242429D01*
X19392214Y3242429D01*
X19526142Y3171000D01*
X19588642Y3099572D01*
X19642214Y2956715D01*
X19588642Y2528143D01*
X19499357Y2385286D01*
X19419000Y2313858D01*
X19267214Y2242429D01*
X19052928Y2242429D01*
X20838642Y2242429D02*
X20936857Y3028143D01*
X20883285Y3171000D01*
X20749357Y3242429D01*
X20463642Y3242429D01*
X20311857Y3171000D01*
X20847571Y2313858D02*
X20695785Y2242429D01*
X20338642Y2242429D01*
X20204714Y2313858D01*
X20151142Y2456715D01*
X20169000Y2599572D01*
X20258285Y2742429D01*
X20410071Y2813858D01*
X20767214Y2813858D01*
X20919000Y2885286D01*
X21552928Y2242429D02*
X21677928Y3242429D01*
X21642214Y2956715D02*
X21731500Y3099572D01*
X21811857Y3171000D01*
X21963642Y3242429D01*
X22106500Y3242429D01*
X23124357Y2242429D02*
X23311857Y3742429D01*
X23133285Y2313858D02*
X22981500Y2242429D01*
X22695785Y2242429D01*
X22561857Y2313858D01*
X22499357Y2385286D01*
X22445785Y2528143D01*
X22499357Y2956715D01*
X22588642Y3099572D01*
X22669000Y3171000D01*
X22820785Y3242429D01*
X23106500Y3242429D01*
X23240428Y3171000D01*
X24954714Y3742429D02*
X25267214Y2242429D01*
X25954714Y3742429D01*
X26740428Y3742429D02*
X26883285Y3742429D01*
X27017214Y3671000D01*
X27079714Y3599572D01*
X27133285Y3456715D01*
X27169000Y3171000D01*
X27124357Y2813858D01*
X27017214Y2528143D01*
X26927928Y2385286D01*
X26847571Y2313858D01*
X26695785Y2242429D01*
X26552928Y2242429D01*
X26419000Y2313858D01*
X26356500Y2385286D01*
X26302928Y2528143D01*
X26267214Y2813858D01*
X26311857Y3171000D01*
X26419000Y3456715D01*
X26508285Y3599572D01*
X26588642Y3671000D01*
X26740428Y3742429D01*
X27713642Y2385286D02*
X27776142Y2313858D01*
X27695785Y2242429D01*
X27633285Y2313858D01*
X27713642Y2385286D01*
X27695785Y2242429D01*
X28508285Y3599572D02*
X28588642Y3671000D01*
X28740428Y3742429D01*
X29097571Y3742429D01*
X29231500Y3671000D01*
X29294000Y3599572D01*
X29347571Y3456715D01*
X29329714Y3313858D01*
X29231500Y3099572D01*
X28267214Y2242429D01*
X29195785Y2242429D01*
X31079714Y3599572D02*
X31160071Y3671000D01*
X31311857Y3742429D01*
X31669000Y3742429D01*
X31802928Y3671000D01*
X31865428Y3599572D01*
X31919000Y3456715D01*
X31901142Y3313858D01*
X31802928Y3099572D01*
X30838642Y2242429D01*
X31767214Y2242429D01*
X32883285Y3742429D02*
X33026142Y3742429D01*
X33160071Y3671000D01*
X33222571Y3599572D01*
X33276142Y3456715D01*
X33311857Y3171000D01*
X33267214Y2813858D01*
X33160071Y2528143D01*
X33070785Y2385286D01*
X32990428Y2313858D01*
X32838642Y2242429D01*
X32695785Y2242429D01*
X32561857Y2313858D01*
X32499357Y2385286D01*
X32445785Y2528143D01*
X32410071Y2813858D01*
X32454714Y3171000D01*
X32561857Y3456715D01*
X32651142Y3599572D01*
X32731500Y3671000D01*
X32883285Y3742429D01*
X33936857Y3599572D02*
X34017214Y3671000D01*
X34169000Y3742429D01*
X34526142Y3742429D01*
X34660071Y3671000D01*
X34722571Y3599572D01*
X34776142Y3456715D01*
X34758285Y3313858D01*
X34660071Y3099572D01*
X33695785Y2242429D01*
X34624357Y2242429D01*
X36052928Y2242429D02*
X35195785Y2242429D01*
X35624357Y2242429D02*
X35811857Y3742429D01*
X35642214Y3528143D01*
X35481500Y3385286D01*
X35329714Y3313858D01*
D12*
X41932142Y74080858D02*
X42307142Y77080858D01*
X43646428Y74080858D02*
X42575000Y75795143D01*
X44021428Y77080858D02*
X42092857Y75366572D01*
X44932142Y74080858D02*
X45307142Y77080858D01*
X46450000Y77080858D02*
X46789285Y74080858D01*
X47628571Y76223715D01*
X47932142Y74080858D01*
X49021428Y77080858D01*
X49789285Y74080858D02*
X50164285Y77080858D01*
X51217857Y74080858D02*
X51592857Y77080858D01*
X52932142Y74080858D02*
X51860714Y75795143D01*
X53307142Y77080858D02*
X51378571Y75366572D01*
X54217857Y74080858D02*
X54592857Y77080858D01*
X55592857Y77080858D02*
X57307142Y77080858D01*
X56075000Y74080858D02*
X56450000Y77080858D01*
D10*
X55300571Y54183596D02*
X55300571Y54516929D01*
X55824380Y54659786D02*
X55824380Y54183596D01*
X54824380Y54183596D01*
X54824380Y54659786D01*
X55300571Y55088358D02*
X55300571Y55421691D01*
X55824380Y55564548D02*
X55824380Y55088358D01*
X54824380Y55088358D01*
X54824380Y55564548D01*
X55824380Y55993120D02*
X54824380Y55993120D01*
X54824380Y56374072D01*
X54872000Y56469310D01*
X54919619Y56516929D01*
X55014857Y56564548D01*
X55157714Y56564548D01*
X55252952Y56516929D01*
X55300571Y56469310D01*
X55348190Y56374072D01*
X55348190Y55993120D01*
X55824380Y57564548D02*
X55348190Y57231215D01*
X55824380Y56993120D02*
X54824380Y56993120D01*
X54824380Y57374072D01*
X54872000Y57469310D01*
X54919619Y57516929D01*
X55014857Y57564548D01*
X55157714Y57564548D01*
X55252952Y57516929D01*
X55300571Y57469310D01*
X55348190Y57374072D01*
X55348190Y56993120D01*
X54824380Y58183596D02*
X54824380Y58374072D01*
X54872000Y58469310D01*
X54967238Y58564548D01*
X55157714Y58612167D01*
X55491047Y58612167D01*
X55681523Y58564548D01*
X55776761Y58469310D01*
X55824380Y58374072D01*
X55824380Y58183596D01*
X55776761Y58088358D01*
X55681523Y57993120D01*
X55491047Y57945500D01*
X55157714Y57945500D01*
X54967238Y57993120D01*
X54872000Y58088358D01*
X54824380Y58183596D01*
X55824380Y59040739D02*
X54824380Y59040739D01*
X55538666Y59374072D01*
X54824380Y59707405D01*
X55824380Y59707405D01*
X55919619Y59945500D02*
X55919619Y60707405D01*
X55538666Y60897881D02*
X55538666Y61374072D01*
X55824380Y60802643D02*
X54824380Y61135977D01*
X55824380Y61469310D01*
X54824380Y61993120D02*
X54824380Y62088358D01*
X54872000Y62183596D01*
X54919619Y62231215D01*
X55014857Y62278834D01*
X55205333Y62326453D01*
X55443428Y62326453D01*
X55633904Y62278834D01*
X55729142Y62231215D01*
X55776761Y62183596D01*
X55824380Y62088358D01*
X55824380Y61993120D01*
X55776761Y61897881D01*
X55729142Y61850262D01*
X55633904Y61802643D01*
X55443428Y61755024D01*
X55205333Y61755024D01*
X55014857Y61802643D01*
X54919619Y61850262D01*
X54872000Y61897881D01*
X54824380Y61993120D01*
X55919619Y62516929D02*
X55919619Y63278834D01*
X55824380Y63516929D02*
X54824380Y63516929D01*
X54824380Y63897881D01*
X54872000Y63993120D01*
X54919619Y64040739D01*
X55014857Y64088358D01*
X55157714Y64088358D01*
X55252952Y64040739D01*
X55300571Y63993120D01*
X55348190Y63897881D01*
X55348190Y63516929D01*
X54824380Y64516929D02*
X55633904Y64516929D01*
X55729142Y64564548D01*
X55776761Y64612167D01*
X55824380Y64707405D01*
X55824380Y64897881D01*
X55776761Y64993120D01*
X55729142Y65040739D01*
X55633904Y65088358D01*
X54824380Y65088358D01*
X55824380Y65564548D02*
X54824380Y65564548D01*
X54824380Y65945500D01*
X54872000Y66040739D01*
X54919619Y66088358D01*
X55014857Y66135977D01*
X55157714Y66135977D01*
X55252952Y66088358D01*
X55300571Y66040739D01*
X55348190Y65945500D01*
X55348190Y65564548D01*
X44886571Y54183596D02*
X44886571Y54516929D01*
X45410380Y54659786D02*
X45410380Y54183596D01*
X44410380Y54183596D01*
X44410380Y54659786D01*
X44886571Y55088358D02*
X44886571Y55421691D01*
X45410380Y55564548D02*
X45410380Y55088358D01*
X44410380Y55088358D01*
X44410380Y55564548D01*
X45410380Y55993120D02*
X44410380Y55993120D01*
X44410380Y56374072D01*
X44458000Y56469310D01*
X44505619Y56516929D01*
X44600857Y56564548D01*
X44743714Y56564548D01*
X44838952Y56516929D01*
X44886571Y56469310D01*
X44934190Y56374072D01*
X44934190Y55993120D01*
X45410380Y57564548D02*
X44934190Y57231215D01*
X45410380Y56993120D02*
X44410380Y56993120D01*
X44410380Y57374072D01*
X44458000Y57469310D01*
X44505619Y57516929D01*
X44600857Y57564548D01*
X44743714Y57564548D01*
X44838952Y57516929D01*
X44886571Y57469310D01*
X44934190Y57374072D01*
X44934190Y56993120D01*
X44410380Y58183596D02*
X44410380Y58374072D01*
X44458000Y58469310D01*
X44553238Y58564548D01*
X44743714Y58612167D01*
X45077047Y58612167D01*
X45267523Y58564548D01*
X45362761Y58469310D01*
X45410380Y58374072D01*
X45410380Y58183596D01*
X45362761Y58088358D01*
X45267523Y57993120D01*
X45077047Y57945500D01*
X44743714Y57945500D01*
X44553238Y57993120D01*
X44458000Y58088358D01*
X44410380Y58183596D01*
X45410380Y59040739D02*
X44410380Y59040739D01*
X45124666Y59374072D01*
X44410380Y59707405D01*
X45410380Y59707405D01*
X45505619Y59945500D02*
X45505619Y60707405D01*
X44410380Y60850262D02*
X45410380Y61088358D01*
X44696095Y61278834D01*
X45410380Y61469310D01*
X44410380Y61707405D01*
X45410380Y62088358D02*
X44410380Y62088358D01*
X44410380Y62469310D01*
X44458000Y62564548D01*
X44505619Y62612167D01*
X44600857Y62659786D01*
X44743714Y62659786D01*
X44838952Y62612167D01*
X44886571Y62564548D01*
X44934190Y62469310D01*
X44934190Y62088358D01*
X60230095Y51633429D02*
X60563428Y51633429D01*
X60706285Y51109620D02*
X60230095Y51109620D01*
X60230095Y52109620D01*
X60706285Y52109620D01*
X61134857Y51633429D02*
X61468190Y51633429D01*
X61611047Y51109620D02*
X61134857Y51109620D01*
X61134857Y52109620D01*
X61611047Y52109620D01*
X62039619Y51109620D02*
X62039619Y52109620D01*
X62420571Y52109620D01*
X62515809Y52062000D01*
X62563428Y52014381D01*
X62611047Y51919143D01*
X62611047Y51776286D01*
X62563428Y51681048D01*
X62515809Y51633429D01*
X62420571Y51585810D01*
X62039619Y51585810D01*
X63611047Y51109620D02*
X63277714Y51585810D01*
X63039619Y51109620D02*
X63039619Y52109620D01*
X63420571Y52109620D01*
X63515809Y52062000D01*
X63563428Y52014381D01*
X63611047Y51919143D01*
X63611047Y51776286D01*
X63563428Y51681048D01*
X63515809Y51633429D01*
X63420571Y51585810D01*
X63039619Y51585810D01*
X64230095Y52109620D02*
X64420571Y52109620D01*
X64515809Y52062000D01*
X64611047Y51966762D01*
X64658666Y51776286D01*
X64658666Y51442953D01*
X64611047Y51252477D01*
X64515809Y51157239D01*
X64420571Y51109620D01*
X64230095Y51109620D01*
X64134857Y51157239D01*
X64039619Y51252477D01*
X63992000Y51442953D01*
X63992000Y51776286D01*
X64039619Y51966762D01*
X64134857Y52062000D01*
X64230095Y52109620D01*
X65087238Y51109620D02*
X65087238Y52109620D01*
X65420571Y51395334D01*
X65753904Y52109620D01*
X65753904Y51109620D01*
D13*
%TO.C,J5*%
X93666000Y45018000D02*
X94996000Y45018000D01*
X93666000Y43688000D02*
X93666000Y45018000D01*
X93666000Y42418000D02*
X96326000Y42418000D01*
X96326000Y42418000D02*
X96326000Y22038000D01*
X93666000Y42418000D02*
X93666000Y22038000D01*
X93666000Y22038000D02*
X96326000Y22038000D01*
%TO.C,J2*%
X3750000Y68513000D02*
X5080000Y68513000D01*
X3750000Y67183000D02*
X3750000Y68513000D01*
X3750000Y65913000D02*
X6410000Y65913000D01*
X6410000Y65913000D02*
X6410000Y60773000D01*
X3750000Y65913000D02*
X3750000Y60773000D01*
X3750000Y60773000D02*
X6410000Y60773000D01*
%TO.C,J1*%
X3750000Y86293000D02*
X5080000Y86293000D01*
X3750000Y84963000D02*
X3750000Y86293000D01*
X6350000Y86293000D02*
X8950000Y86293000D01*
X6350000Y83693000D02*
X6350000Y86293000D01*
X3750000Y83693000D02*
X6350000Y83693000D01*
X8950000Y86293000D02*
X8950000Y76013000D01*
X3750000Y83693000D02*
X3750000Y76013000D01*
X3750000Y76013000D02*
X8950000Y76013000D01*
%TO.C,SW1*%
X59544000Y7826000D02*
X59544000Y6326000D01*
X60794000Y3826000D02*
X65294000Y3826000D01*
X66544000Y6326000D02*
X66544000Y7826000D01*
X65294000Y10326000D02*
X60794000Y10326000D01*
%TO.C,R5*%
X72490000Y92932000D02*
X69750000Y92932000D01*
X69750000Y92932000D02*
X69750000Y86392000D01*
X69750000Y86392000D02*
X72490000Y86392000D01*
X72490000Y86392000D02*
X72490000Y92932000D01*
X71120000Y93702000D02*
X71120000Y92932000D01*
X71120000Y85622000D02*
X71120000Y86392000D01*
%TO.C,R18*%
X23900000Y18796000D02*
X24670000Y18796000D01*
X31980000Y18796000D02*
X31210000Y18796000D01*
X24670000Y17426000D02*
X31210000Y17426000D01*
X24670000Y20166000D02*
X24670000Y17426000D01*
X31210000Y20166000D02*
X24670000Y20166000D01*
X31210000Y17426000D02*
X31210000Y20166000D01*
%TO.C,R17*%
X23900000Y13716000D02*
X24670000Y13716000D01*
X31980000Y13716000D02*
X31210000Y13716000D01*
X24670000Y12346000D02*
X31210000Y12346000D01*
X24670000Y15086000D02*
X24670000Y12346000D01*
X31210000Y15086000D02*
X24670000Y15086000D01*
X31210000Y12346000D02*
X31210000Y15086000D01*
%TO.C,R16*%
X23900000Y8636000D02*
X24670000Y8636000D01*
X31980000Y8636000D02*
X31210000Y8636000D01*
X24670000Y7266000D02*
X31210000Y7266000D01*
X24670000Y10006000D02*
X24670000Y7266000D01*
X31210000Y10006000D02*
X24670000Y10006000D01*
X31210000Y7266000D02*
X31210000Y10006000D01*
%TO.C,R15*%
X76200000Y93702000D02*
X76200000Y92932000D01*
X76200000Y85622000D02*
X76200000Y86392000D01*
X74830000Y92932000D02*
X74830000Y86392000D01*
X77570000Y92932000D02*
X74830000Y92932000D01*
X77570000Y86392000D02*
X77570000Y92932000D01*
X74830000Y86392000D02*
X77570000Y86392000D01*
%TO.C,R14*%
X73184000Y52170000D02*
X73184000Y49430000D01*
X73184000Y49430000D02*
X79724000Y49430000D01*
X79724000Y49430000D02*
X79724000Y52170000D01*
X79724000Y52170000D02*
X73184000Y52170000D01*
X72414000Y50800000D02*
X73184000Y50800000D01*
X80494000Y50800000D02*
X79724000Y50800000D01*
%TO.C,R13*%
X73184000Y57250000D02*
X73184000Y54510000D01*
X73184000Y54510000D02*
X79724000Y54510000D01*
X79724000Y54510000D02*
X79724000Y57250000D01*
X79724000Y57250000D02*
X73184000Y57250000D01*
X72414000Y55880000D02*
X73184000Y55880000D01*
X80494000Y55880000D02*
X79724000Y55880000D01*
%TO.C,R12*%
X73184000Y62330000D02*
X73184000Y59590000D01*
X73184000Y59590000D02*
X79724000Y59590000D01*
X79724000Y59590000D02*
X79724000Y62330000D01*
X79724000Y62330000D02*
X73184000Y62330000D01*
X72414000Y60960000D02*
X73184000Y60960000D01*
X80494000Y60960000D02*
X79724000Y60960000D01*
%TO.C,R11*%
X73184000Y67410000D02*
X73184000Y64670000D01*
X73184000Y64670000D02*
X79724000Y64670000D01*
X79724000Y64670000D02*
X79724000Y67410000D01*
X79724000Y67410000D02*
X73184000Y67410000D01*
X72414000Y66040000D02*
X73184000Y66040000D01*
X80494000Y66040000D02*
X79724000Y66040000D01*
%TO.C,R9*%
X54510000Y86392000D02*
X57250000Y86392000D01*
X57250000Y86392000D02*
X57250000Y92932000D01*
X57250000Y92932000D02*
X54510000Y92932000D01*
X54510000Y92932000D02*
X54510000Y86392000D01*
X55880000Y85622000D02*
X55880000Y86392000D01*
X55880000Y93702000D02*
X55880000Y92932000D01*
%TO.C,R8*%
X44550000Y92932000D02*
X41810000Y92932000D01*
X41810000Y92932000D02*
X41810000Y86392000D01*
X41810000Y86392000D02*
X44550000Y86392000D01*
X44550000Y86392000D02*
X44550000Y92932000D01*
X43180000Y93702000D02*
X43180000Y92932000D01*
X43180000Y85622000D02*
X43180000Y86392000D01*
%TO.C,R7*%
X24670000Y30326000D02*
X24670000Y27586000D01*
X24670000Y27586000D02*
X31210000Y27586000D01*
X31210000Y27586000D02*
X31210000Y30326000D01*
X31210000Y30326000D02*
X24670000Y30326000D01*
X23900000Y28956000D02*
X24670000Y28956000D01*
X31980000Y28956000D02*
X31210000Y28956000D01*
%TO.C,R6*%
X24670000Y25246000D02*
X24670000Y22506000D01*
X24670000Y22506000D02*
X31210000Y22506000D01*
X31210000Y22506000D02*
X31210000Y25246000D01*
X31210000Y25246000D02*
X24670000Y25246000D01*
X23900000Y23876000D02*
X24670000Y23876000D01*
X31980000Y23876000D02*
X31210000Y23876000D01*
%TO.C,R4*%
X64670000Y86392000D02*
X67410000Y86392000D01*
X67410000Y86392000D02*
X67410000Y92932000D01*
X67410000Y92932000D02*
X64670000Y92932000D01*
X64670000Y92932000D02*
X64670000Y86392000D01*
X66040000Y85622000D02*
X66040000Y86392000D01*
X66040000Y93702000D02*
X66040000Y92932000D01*
%TO.C,R3*%
X59590000Y86392000D02*
X62330000Y86392000D01*
X62330000Y86392000D02*
X62330000Y92932000D01*
X62330000Y92932000D02*
X59590000Y92932000D01*
X59590000Y92932000D02*
X59590000Y86392000D01*
X60960000Y85622000D02*
X60960000Y86392000D01*
X60960000Y93702000D02*
X60960000Y92932000D01*
%TO.C,R2*%
X84360000Y20166000D02*
X84360000Y17426000D01*
X84360000Y17426000D02*
X90900000Y17426000D01*
X90900000Y17426000D02*
X90900000Y20166000D01*
X90900000Y20166000D02*
X84360000Y20166000D01*
X83590000Y18796000D02*
X84360000Y18796000D01*
X91670000Y18796000D02*
X90900000Y18796000D01*
%TO.C,R1*%
X84360000Y15086000D02*
X84360000Y12346000D01*
X84360000Y12346000D02*
X90900000Y12346000D01*
X90900000Y12346000D02*
X90900000Y15086000D01*
X90900000Y15086000D02*
X84360000Y15086000D01*
X83590000Y13716000D02*
X84360000Y13716000D01*
X91670000Y13716000D02*
X90900000Y13716000D01*
%TO.C,R0*%
X84360000Y10006000D02*
X84360000Y7266000D01*
X84360000Y7266000D02*
X90900000Y7266000D01*
X90900000Y7266000D02*
X90900000Y10006000D01*
X90900000Y10006000D02*
X84360000Y10006000D01*
X83590000Y8636000D02*
X84360000Y8636000D01*
X91670000Y8636000D02*
X90900000Y8636000D01*
%TO.C,D2*%
X7618000Y91412000D02*
X7937000Y91412000D01*
X10097000Y91412000D02*
X10416000Y91412000D01*
X10097961Y95154713D02*
G75*
G02*
X10097000Y91788670I-1080961J-1682713D01*
G01*
X7936039Y95154713D02*
G75*
G03*
X7937000Y91788670I1080961J-1682713D01*
G01*
X10097724Y95715242D02*
G75*
G02*
X10415749Y91412000I-1080724J-2243242D01*
G01*
X7936276Y95715242D02*
G75*
G03*
X7618251Y91412000I1080724J-2243242D01*
G01*
%TO.C,D1*%
X22350000Y35786000D02*
X22669000Y35786000D01*
X24829000Y35786000D02*
X25148000Y35786000D01*
X24829961Y39528713D02*
G75*
G02*
X24829000Y36162670I-1080961J-1682713D01*
G01*
X22668039Y39528713D02*
G75*
G03*
X22669000Y36162670I1080961J-1682713D01*
G01*
X24829724Y40089242D02*
G75*
G02*
X25147749Y35786000I-1080724J-2243242D01*
G01*
X22668276Y40089242D02*
G75*
G03*
X22350251Y35786000I1080724J-2243242D01*
G01*
%TO.C,D0*%
X30732000Y35786000D02*
X31051000Y35786000D01*
X33211000Y35786000D02*
X33530000Y35786000D01*
X33211961Y39528713D02*
G75*
G02*
X33211000Y36162670I-1080961J-1682713D01*
G01*
X31050039Y39528713D02*
G75*
G03*
X31051000Y36162670I1080961J-1682713D01*
G01*
X33211724Y40089242D02*
G75*
G02*
X33529749Y35786000I-1080724J-2243242D01*
G01*
X31050276Y40089242D02*
G75*
G03*
X30732251Y35786000I1080724J-2243242D01*
G01*
%TO.C,C8*%
X63778000Y65986000D02*
X59238000Y65986000D01*
X63778000Y68126000D02*
X59238000Y68126000D01*
X63778000Y65986000D02*
X63778000Y66001000D01*
X63778000Y68111000D02*
X63778000Y68126000D01*
X59238000Y65986000D02*
X59238000Y66001000D01*
X59238000Y68111000D02*
X59238000Y68126000D01*
%TO.C,C6*%
X61555500Y46174000D02*
X57015500Y46174000D01*
X61555500Y48314000D02*
X57015500Y48314000D01*
X61555500Y46174000D02*
X61555500Y46189000D01*
X61555500Y48299000D02*
X61555500Y48314000D01*
X57015500Y46174000D02*
X57015500Y46189000D01*
X57015500Y48299000D02*
X57015500Y48314000D01*
%TO.C,C5*%
X80210000Y89892000D02*
X80210000Y94432000D01*
X82350000Y89892000D02*
X82350000Y94432000D01*
X80210000Y89892000D02*
X80225000Y89892000D01*
X82335000Y89892000D02*
X82350000Y89892000D01*
X80210000Y94432000D02*
X80225000Y94432000D01*
X82335000Y94432000D02*
X82350000Y94432000D01*
%TO.C,C2*%
X38330000Y24946000D02*
X42870000Y24946000D01*
X38330000Y22806000D02*
X42870000Y22806000D01*
X38330000Y24946000D02*
X38330000Y24931000D01*
X38330000Y22821000D02*
X38330000Y22806000D01*
X42870000Y24946000D02*
X42870000Y24931000D01*
X42870000Y22821000D02*
X42870000Y22806000D01*
%TO.C,C1*%
X38330000Y19866000D02*
X42870000Y19866000D01*
X38330000Y17726000D02*
X42870000Y17726000D01*
X38330000Y19866000D02*
X38330000Y19851000D01*
X38330000Y17741000D02*
X38330000Y17726000D01*
X42870000Y19866000D02*
X42870000Y19851000D01*
X42870000Y17741000D02*
X42870000Y17726000D01*
%TO.C,C0*%
X38330000Y14786000D02*
X42870000Y14786000D01*
X38330000Y12646000D02*
X42870000Y12646000D01*
X38330000Y14786000D02*
X38330000Y14771000D01*
X38330000Y12661000D02*
X38330000Y12646000D01*
X42870000Y14786000D02*
X42870000Y14771000D01*
X42870000Y12661000D02*
X42870000Y12646000D01*
%TO.C,U1*%
X32385000Y96012000D02*
X32385000Y97282000D01*
X23495000Y96012000D02*
X23495000Y97282000D01*
X17145000Y44577000D02*
X17145000Y93472000D01*
X38735000Y44577000D02*
X38735000Y94742000D01*
X17145000Y44577000D02*
X38735000Y44577000D01*
X17145000Y96647000D02*
X17145000Y94107000D01*
X20320000Y96647000D02*
X17145000Y96647000D01*
%TO.C,SW2*%
X47606000Y7826000D02*
X47606000Y6326000D01*
X48856000Y3826000D02*
X53356000Y3826000D01*
X54606000Y6326000D02*
X54606000Y7826000D01*
X53356000Y10326000D02*
X48856000Y10326000D01*
%TO.C,SW0*%
X71482000Y7826000D02*
X71482000Y6326000D01*
X72732000Y3826000D02*
X77232000Y3826000D01*
X78482000Y6326000D02*
X78482000Y7826000D01*
X77232000Y10326000D02*
X72732000Y10326000D01*
%TO.C,JP2*%
X68266000Y75378000D02*
X70926000Y75378000D01*
X68266000Y77978000D02*
X68266000Y75378000D01*
X70926000Y77978000D02*
X70926000Y75378000D01*
X68266000Y77978000D02*
X70926000Y77978000D01*
X68266000Y79248000D02*
X68266000Y80578000D01*
X68266000Y80578000D02*
X69596000Y80578000D01*
%TO.C,JP1*%
X63186000Y75378000D02*
X65846000Y75378000D01*
X63186000Y77978000D02*
X63186000Y75378000D01*
X65846000Y77978000D02*
X65846000Y75378000D01*
X63186000Y77978000D02*
X65846000Y77978000D01*
X63186000Y79248000D02*
X63186000Y80578000D01*
X63186000Y80578000D02*
X64516000Y80578000D01*
%TO.C,J6*%
X93666000Y52518000D02*
X96326000Y52518000D01*
X93666000Y57658000D02*
X93666000Y52518000D01*
X96326000Y57658000D02*
X96326000Y52518000D01*
X93666000Y57658000D02*
X96326000Y57658000D01*
X93666000Y58928000D02*
X93666000Y60258000D01*
X93666000Y60258000D02*
X94996000Y60258000D01*
%TO.C,J7*%
X93666000Y67758000D02*
X96326000Y67758000D01*
X93666000Y72898000D02*
X93666000Y67758000D01*
X96326000Y72898000D02*
X96326000Y67758000D01*
X93666000Y72898000D02*
X96326000Y72898000D01*
X93666000Y74168000D02*
X93666000Y75498000D01*
X93666000Y75498000D02*
X94996000Y75498000D01*
%TO.C,J4*%
X3750000Y27813000D02*
X6410000Y27813000D01*
X3750000Y27813000D02*
X3750000Y9973000D01*
X3750000Y9973000D02*
X6410000Y9973000D01*
X6410000Y27813000D02*
X6410000Y9973000D01*
X6410000Y30413000D02*
X6410000Y29083000D01*
X5080000Y30413000D02*
X6410000Y30413000D01*
%TO.C,R10*%
X47430000Y94642000D02*
X47430000Y91842000D01*
X51630000Y94642000D02*
X51630000Y91842000D01*
X51639242Y94628037D02*
G75*
G03*
X47430000Y94642000I-2109242J-1386037D01*
G01*
X47420758Y91855963D02*
G75*
G03*
X51630000Y91842000I2109242J1386037D01*
G01*
%TO.C,J3*%
X3750000Y50673000D02*
X6410000Y50673000D01*
X3750000Y50673000D02*
X3750000Y37913000D01*
X3750000Y37913000D02*
X6410000Y37913000D01*
X6410000Y50673000D02*
X6410000Y37913000D01*
X6410000Y53273000D02*
X6410000Y51943000D01*
X5080000Y53273000D02*
X6410000Y53273000D01*
%TO.C,SW5*%
X85106000Y93678500D02*
X85106000Y89178500D01*
X89106000Y94928500D02*
X87606000Y94928500D01*
X91606000Y89178500D02*
X91606000Y93678500D01*
X87606000Y87928500D02*
X89106000Y87928500D01*
%TO.C,U3*%
X61954000Y63052000D02*
X60304000Y63052000D01*
X60304000Y63052000D02*
X60304000Y52772000D01*
X60304000Y52772000D02*
X65604000Y52772000D01*
X65604000Y52772000D02*
X65604000Y63052000D01*
X65604000Y63052000D02*
X63954000Y63052000D01*
X63954000Y63052000D02*
G75*
G02*
X61954000Y63052000I-1000000J0D01*
G01*
%TO.C,JP3*%
X46295000Y55312000D02*
X48955000Y55312000D01*
X46295000Y57912000D02*
X46295000Y55312000D01*
X48955000Y57912000D02*
X48955000Y55312000D01*
X46295000Y57912000D02*
X48955000Y57912000D01*
X46295000Y59182000D02*
X46295000Y60512000D01*
X46295000Y60512000D02*
X47625000Y60512000D01*
%TO.C,JP4*%
X51375000Y55312000D02*
X54035000Y55312000D01*
X51375000Y57912000D02*
X51375000Y55312000D01*
X54035000Y57912000D02*
X54035000Y55312000D01*
X51375000Y57912000D02*
X54035000Y57912000D01*
X51375000Y59182000D02*
X51375000Y60512000D01*
X51375000Y60512000D02*
X52705000Y60512000D01*
D10*
%TO.C,U2*%
X49205500Y44580000D02*
X53205500Y44580000D01*
X49205500Y40680000D02*
X49205500Y44580000D01*
X49205500Y16380000D02*
X49205500Y20380000D01*
X53105500Y16380000D02*
X49205500Y16380000D01*
X76905500Y16380000D02*
X72905500Y16380000D01*
X76905500Y20280000D02*
X76905500Y16380000D01*
X76905500Y44580000D02*
X76905500Y40580000D01*
X73005500Y44580000D02*
X76905500Y44580000D01*
%TO.C,J5*%
X94662666Y46565620D02*
X94662666Y45851334D01*
X94615047Y45708477D01*
X94519809Y45613239D01*
X94376952Y45565620D01*
X94281714Y45565620D01*
X95615047Y46565620D02*
X95138857Y46565620D01*
X95091238Y46089429D01*
X95138857Y46137048D01*
X95234095Y46184667D01*
X95472190Y46184667D01*
X95567428Y46137048D01*
X95615047Y46089429D01*
X95662666Y45994191D01*
X95662666Y45756096D01*
X95615047Y45660858D01*
X95567428Y45613239D01*
X95472190Y45565620D01*
X95234095Y45565620D01*
X95138857Y45613239D01*
X95091238Y45660858D01*
%TO.C,J2*%
X4746666Y70060620D02*
X4746666Y69346334D01*
X4699047Y69203477D01*
X4603809Y69108239D01*
X4460952Y69060620D01*
X4365714Y69060620D01*
X5175238Y69965381D02*
X5222857Y70013000D01*
X5318095Y70060620D01*
X5556190Y70060620D01*
X5651428Y70013000D01*
X5699047Y69965381D01*
X5746666Y69870143D01*
X5746666Y69774905D01*
X5699047Y69632048D01*
X5127619Y69060620D01*
X5746666Y69060620D01*
%TO.C,J1*%
X6016666Y87840620D02*
X6016666Y87126334D01*
X5969047Y86983477D01*
X5873809Y86888239D01*
X5730952Y86840620D01*
X5635714Y86840620D01*
X7016666Y86840620D02*
X6445238Y86840620D01*
X6730952Y86840620D02*
X6730952Y87840620D01*
X6635714Y87697762D01*
X6540476Y87602524D01*
X6445238Y87554905D01*
%TO.C,SW1*%
X59118666Y2135239D02*
X59261523Y2087620D01*
X59499619Y2087620D01*
X59594857Y2135239D01*
X59642476Y2182858D01*
X59690095Y2278096D01*
X59690095Y2373334D01*
X59642476Y2468572D01*
X59594857Y2516191D01*
X59499619Y2563810D01*
X59309142Y2611429D01*
X59213904Y2659048D01*
X59166285Y2706667D01*
X59118666Y2801905D01*
X59118666Y2897143D01*
X59166285Y2992381D01*
X59213904Y3040000D01*
X59309142Y3087620D01*
X59547238Y3087620D01*
X59690095Y3040000D01*
X60023428Y3087620D02*
X60261523Y2087620D01*
X60452000Y2801905D01*
X60642476Y2087620D01*
X60880571Y3087620D01*
X61785333Y2087620D02*
X61213904Y2087620D01*
X61499619Y2087620D02*
X61499619Y3087620D01*
X61404380Y2944762D01*
X61309142Y2849524D01*
X61213904Y2801905D01*
%TO.C,R5*%
X69286380Y89495334D02*
X68810190Y89162000D01*
X69286380Y88923905D02*
X68286380Y88923905D01*
X68286380Y89304858D01*
X68334000Y89400096D01*
X68381619Y89447715D01*
X68476857Y89495334D01*
X68619714Y89495334D01*
X68714952Y89447715D01*
X68762571Y89400096D01*
X68810190Y89304858D01*
X68810190Y88923905D01*
X68286380Y90400096D02*
X68286380Y89923905D01*
X68762571Y89876286D01*
X68714952Y89923905D01*
X68667333Y90019143D01*
X68667333Y90257239D01*
X68714952Y90352477D01*
X68762571Y90400096D01*
X68857809Y90447715D01*
X69095904Y90447715D01*
X69191142Y90400096D01*
X69238761Y90352477D01*
X69286380Y90257239D01*
X69286380Y90019143D01*
X69238761Y89923905D01*
X69191142Y89876286D01*
%TO.C,R18*%
X27297142Y15973620D02*
X26963809Y16449810D01*
X26725714Y15973620D02*
X26725714Y16973620D01*
X27106666Y16973620D01*
X27201904Y16926000D01*
X27249523Y16878381D01*
X27297142Y16783143D01*
X27297142Y16640286D01*
X27249523Y16545048D01*
X27201904Y16497429D01*
X27106666Y16449810D01*
X26725714Y16449810D01*
X28249523Y15973620D02*
X27678095Y15973620D01*
X27963809Y15973620D02*
X27963809Y16973620D01*
X27868571Y16830762D01*
X27773333Y16735524D01*
X27678095Y16687905D01*
X28820952Y16545048D02*
X28725714Y16592667D01*
X28678095Y16640286D01*
X28630476Y16735524D01*
X28630476Y16783143D01*
X28678095Y16878381D01*
X28725714Y16926000D01*
X28820952Y16973620D01*
X29011428Y16973620D01*
X29106666Y16926000D01*
X29154285Y16878381D01*
X29201904Y16783143D01*
X29201904Y16735524D01*
X29154285Y16640286D01*
X29106666Y16592667D01*
X29011428Y16545048D01*
X28820952Y16545048D01*
X28725714Y16497429D01*
X28678095Y16449810D01*
X28630476Y16354572D01*
X28630476Y16164096D01*
X28678095Y16068858D01*
X28725714Y16021239D01*
X28820952Y15973620D01*
X29011428Y15973620D01*
X29106666Y16021239D01*
X29154285Y16068858D01*
X29201904Y16164096D01*
X29201904Y16354572D01*
X29154285Y16449810D01*
X29106666Y16497429D01*
X29011428Y16545048D01*
%TO.C,R17*%
X27297142Y10893620D02*
X26963809Y11369810D01*
X26725714Y10893620D02*
X26725714Y11893620D01*
X27106666Y11893620D01*
X27201904Y11846000D01*
X27249523Y11798381D01*
X27297142Y11703143D01*
X27297142Y11560286D01*
X27249523Y11465048D01*
X27201904Y11417429D01*
X27106666Y11369810D01*
X26725714Y11369810D01*
X28249523Y10893620D02*
X27678095Y10893620D01*
X27963809Y10893620D02*
X27963809Y11893620D01*
X27868571Y11750762D01*
X27773333Y11655524D01*
X27678095Y11607905D01*
X28582857Y11893620D02*
X29249523Y11893620D01*
X28820952Y10893620D01*
%TO.C,R16*%
X27297142Y5813620D02*
X26963809Y6289810D01*
X26725714Y5813620D02*
X26725714Y6813620D01*
X27106666Y6813620D01*
X27201904Y6766000D01*
X27249523Y6718381D01*
X27297142Y6623143D01*
X27297142Y6480286D01*
X27249523Y6385048D01*
X27201904Y6337429D01*
X27106666Y6289810D01*
X26725714Y6289810D01*
X28249523Y5813620D02*
X27678095Y5813620D01*
X27963809Y5813620D02*
X27963809Y6813620D01*
X27868571Y6670762D01*
X27773333Y6575524D01*
X27678095Y6527905D01*
X29106666Y6813620D02*
X28916190Y6813620D01*
X28820952Y6766000D01*
X28773333Y6718381D01*
X28678095Y6575524D01*
X28630476Y6385048D01*
X28630476Y6004096D01*
X28678095Y5908858D01*
X28725714Y5861239D01*
X28820952Y5813620D01*
X29011428Y5813620D01*
X29106666Y5861239D01*
X29154285Y5908858D01*
X29201904Y6004096D01*
X29201904Y6242191D01*
X29154285Y6337429D01*
X29106666Y6385048D01*
X29011428Y6432667D01*
X28820952Y6432667D01*
X28725714Y6385048D01*
X28678095Y6337429D01*
X28630476Y6242191D01*
%TO.C,R15*%
X74282380Y89019143D02*
X73806190Y88685810D01*
X74282380Y88447715D02*
X73282380Y88447715D01*
X73282380Y88828667D01*
X73330000Y88923905D01*
X73377619Y88971524D01*
X73472857Y89019143D01*
X73615714Y89019143D01*
X73710952Y88971524D01*
X73758571Y88923905D01*
X73806190Y88828667D01*
X73806190Y88447715D01*
X74282380Y89971524D02*
X74282380Y89400096D01*
X74282380Y89685810D02*
X73282380Y89685810D01*
X73425238Y89590572D01*
X73520476Y89495334D01*
X73568095Y89400096D01*
X73282380Y90876286D02*
X73282380Y90400096D01*
X73758571Y90352477D01*
X73710952Y90400096D01*
X73663333Y90495334D01*
X73663333Y90733429D01*
X73710952Y90828667D01*
X73758571Y90876286D01*
X73853809Y90923905D01*
X74091904Y90923905D01*
X74187142Y90876286D01*
X74234761Y90828667D01*
X74282380Y90733429D01*
X74282380Y90495334D01*
X74234761Y90400096D01*
X74187142Y90352477D01*
%TO.C,R14*%
X75811142Y52717620D02*
X75477809Y53193810D01*
X75239714Y52717620D02*
X75239714Y53717620D01*
X75620666Y53717620D01*
X75715904Y53670000D01*
X75763523Y53622381D01*
X75811142Y53527143D01*
X75811142Y53384286D01*
X75763523Y53289048D01*
X75715904Y53241429D01*
X75620666Y53193810D01*
X75239714Y53193810D01*
X76763523Y52717620D02*
X76192095Y52717620D01*
X76477809Y52717620D02*
X76477809Y53717620D01*
X76382571Y53574762D01*
X76287333Y53479524D01*
X76192095Y53431905D01*
X77620666Y53384286D02*
X77620666Y52717620D01*
X77382571Y53765239D02*
X77144476Y53050953D01*
X77763523Y53050953D01*
%TO.C,R13*%
X75811142Y57797620D02*
X75477809Y58273810D01*
X75239714Y57797620D02*
X75239714Y58797620D01*
X75620666Y58797620D01*
X75715904Y58750000D01*
X75763523Y58702381D01*
X75811142Y58607143D01*
X75811142Y58464286D01*
X75763523Y58369048D01*
X75715904Y58321429D01*
X75620666Y58273810D01*
X75239714Y58273810D01*
X76763523Y57797620D02*
X76192095Y57797620D01*
X76477809Y57797620D02*
X76477809Y58797620D01*
X76382571Y58654762D01*
X76287333Y58559524D01*
X76192095Y58511905D01*
X77096857Y58797620D02*
X77715904Y58797620D01*
X77382571Y58416667D01*
X77525428Y58416667D01*
X77620666Y58369048D01*
X77668285Y58321429D01*
X77715904Y58226191D01*
X77715904Y57988096D01*
X77668285Y57892858D01*
X77620666Y57845239D01*
X77525428Y57797620D01*
X77239714Y57797620D01*
X77144476Y57845239D01*
X77096857Y57892858D01*
%TO.C,R12*%
X75811142Y62877620D02*
X75477809Y63353810D01*
X75239714Y62877620D02*
X75239714Y63877620D01*
X75620666Y63877620D01*
X75715904Y63830000D01*
X75763523Y63782381D01*
X75811142Y63687143D01*
X75811142Y63544286D01*
X75763523Y63449048D01*
X75715904Y63401429D01*
X75620666Y63353810D01*
X75239714Y63353810D01*
X76763523Y62877620D02*
X76192095Y62877620D01*
X76477809Y62877620D02*
X76477809Y63877620D01*
X76382571Y63734762D01*
X76287333Y63639524D01*
X76192095Y63591905D01*
X77144476Y63782381D02*
X77192095Y63830000D01*
X77287333Y63877620D01*
X77525428Y63877620D01*
X77620666Y63830000D01*
X77668285Y63782381D01*
X77715904Y63687143D01*
X77715904Y63591905D01*
X77668285Y63449048D01*
X77096857Y62877620D01*
X77715904Y62877620D01*
%TO.C,R11*%
X75811142Y67957620D02*
X75477809Y68433810D01*
X75239714Y67957620D02*
X75239714Y68957620D01*
X75620666Y68957620D01*
X75715904Y68910000D01*
X75763523Y68862381D01*
X75811142Y68767143D01*
X75811142Y68624286D01*
X75763523Y68529048D01*
X75715904Y68481429D01*
X75620666Y68433810D01*
X75239714Y68433810D01*
X76763523Y67957620D02*
X76192095Y67957620D01*
X76477809Y67957620D02*
X76477809Y68957620D01*
X76382571Y68814762D01*
X76287333Y68719524D01*
X76192095Y68671905D01*
X77715904Y67957620D02*
X77144476Y67957620D01*
X77430190Y67957620D02*
X77430190Y68957620D01*
X77334952Y68814762D01*
X77239714Y68719524D01*
X77144476Y68671905D01*
%TO.C,R9*%
X54046380Y89495334D02*
X53570190Y89162000D01*
X54046380Y88923905D02*
X53046380Y88923905D01*
X53046380Y89304858D01*
X53094000Y89400096D01*
X53141619Y89447715D01*
X53236857Y89495334D01*
X53379714Y89495334D01*
X53474952Y89447715D01*
X53522571Y89400096D01*
X53570190Y89304858D01*
X53570190Y88923905D01*
X54046380Y89971524D02*
X54046380Y90162000D01*
X53998761Y90257239D01*
X53951142Y90304858D01*
X53808285Y90400096D01*
X53617809Y90447715D01*
X53236857Y90447715D01*
X53141619Y90400096D01*
X53094000Y90352477D01*
X53046380Y90257239D01*
X53046380Y90066762D01*
X53094000Y89971524D01*
X53141619Y89923905D01*
X53236857Y89876286D01*
X53474952Y89876286D01*
X53570190Y89923905D01*
X53617809Y89971524D01*
X53665428Y90066762D01*
X53665428Y90257239D01*
X53617809Y90352477D01*
X53570190Y90400096D01*
X53474952Y90447715D01*
%TO.C,R8*%
X41346380Y89495334D02*
X40870190Y89162000D01*
X41346380Y88923905D02*
X40346380Y88923905D01*
X40346380Y89304858D01*
X40394000Y89400096D01*
X40441619Y89447715D01*
X40536857Y89495334D01*
X40679714Y89495334D01*
X40774952Y89447715D01*
X40822571Y89400096D01*
X40870190Y89304858D01*
X40870190Y88923905D01*
X40774952Y90066762D02*
X40727333Y89971524D01*
X40679714Y89923905D01*
X40584476Y89876286D01*
X40536857Y89876286D01*
X40441619Y89923905D01*
X40394000Y89971524D01*
X40346380Y90066762D01*
X40346380Y90257239D01*
X40394000Y90352477D01*
X40441619Y90400096D01*
X40536857Y90447715D01*
X40584476Y90447715D01*
X40679714Y90400096D01*
X40727333Y90352477D01*
X40774952Y90257239D01*
X40774952Y90066762D01*
X40822571Y89971524D01*
X40870190Y89923905D01*
X40965428Y89876286D01*
X41155904Y89876286D01*
X41251142Y89923905D01*
X41298761Y89971524D01*
X41346380Y90066762D01*
X41346380Y90257239D01*
X41298761Y90352477D01*
X41251142Y90400096D01*
X41155904Y90447715D01*
X40965428Y90447715D01*
X40870190Y90400096D01*
X40822571Y90352477D01*
X40774952Y90257239D01*
%TO.C,R7*%
X27773333Y26217620D02*
X27440000Y26693810D01*
X27201904Y26217620D02*
X27201904Y27217620D01*
X27582857Y27217620D01*
X27678095Y27170000D01*
X27725714Y27122381D01*
X27773333Y27027143D01*
X27773333Y26884286D01*
X27725714Y26789048D01*
X27678095Y26741429D01*
X27582857Y26693810D01*
X27201904Y26693810D01*
X28106666Y27217620D02*
X28773333Y27217620D01*
X28344761Y26217620D01*
%TO.C,R6*%
X27773333Y21137620D02*
X27440000Y21613810D01*
X27201904Y21137620D02*
X27201904Y22137620D01*
X27582857Y22137620D01*
X27678095Y22090000D01*
X27725714Y22042381D01*
X27773333Y21947143D01*
X27773333Y21804286D01*
X27725714Y21709048D01*
X27678095Y21661429D01*
X27582857Y21613810D01*
X27201904Y21613810D01*
X28630476Y22137620D02*
X28440000Y22137620D01*
X28344761Y22090000D01*
X28297142Y22042381D01*
X28201904Y21899524D01*
X28154285Y21709048D01*
X28154285Y21328096D01*
X28201904Y21232858D01*
X28249523Y21185239D01*
X28344761Y21137620D01*
X28535238Y21137620D01*
X28630476Y21185239D01*
X28678095Y21232858D01*
X28725714Y21328096D01*
X28725714Y21566191D01*
X28678095Y21661429D01*
X28630476Y21709048D01*
X28535238Y21756667D01*
X28344761Y21756667D01*
X28249523Y21709048D01*
X28201904Y21661429D01*
X28154285Y21566191D01*
%TO.C,R4*%
X64206380Y89495334D02*
X63730190Y89162000D01*
X64206380Y88923905D02*
X63206380Y88923905D01*
X63206380Y89304858D01*
X63254000Y89400096D01*
X63301619Y89447715D01*
X63396857Y89495334D01*
X63539714Y89495334D01*
X63634952Y89447715D01*
X63682571Y89400096D01*
X63730190Y89304858D01*
X63730190Y88923905D01*
X63539714Y90352477D02*
X64206380Y90352477D01*
X63158761Y90114381D02*
X63873047Y89876286D01*
X63873047Y90495334D01*
%TO.C,R3*%
X59126380Y89495334D02*
X58650190Y89162000D01*
X59126380Y88923905D02*
X58126380Y88923905D01*
X58126380Y89304858D01*
X58174000Y89400096D01*
X58221619Y89447715D01*
X58316857Y89495334D01*
X58459714Y89495334D01*
X58554952Y89447715D01*
X58602571Y89400096D01*
X58650190Y89304858D01*
X58650190Y88923905D01*
X58126380Y89828667D02*
X58126380Y90447715D01*
X58507333Y90114381D01*
X58507333Y90257239D01*
X58554952Y90352477D01*
X58602571Y90400096D01*
X58697809Y90447715D01*
X58935904Y90447715D01*
X59031142Y90400096D01*
X59078761Y90352477D01*
X59126380Y90257239D01*
X59126380Y89971524D01*
X59078761Y89876286D01*
X59031142Y89828667D01*
%TO.C,R2*%
X87463333Y16057620D02*
X87130000Y16533810D01*
X86891904Y16057620D02*
X86891904Y17057620D01*
X87272857Y17057620D01*
X87368095Y17010000D01*
X87415714Y16962381D01*
X87463333Y16867143D01*
X87463333Y16724286D01*
X87415714Y16629048D01*
X87368095Y16581429D01*
X87272857Y16533810D01*
X86891904Y16533810D01*
X87844285Y16962381D02*
X87891904Y17010000D01*
X87987142Y17057620D01*
X88225238Y17057620D01*
X88320476Y17010000D01*
X88368095Y16962381D01*
X88415714Y16867143D01*
X88415714Y16771905D01*
X88368095Y16629048D01*
X87796666Y16057620D01*
X88415714Y16057620D01*
%TO.C,R1*%
X87463333Y10977620D02*
X87130000Y11453810D01*
X86891904Y10977620D02*
X86891904Y11977620D01*
X87272857Y11977620D01*
X87368095Y11930000D01*
X87415714Y11882381D01*
X87463333Y11787143D01*
X87463333Y11644286D01*
X87415714Y11549048D01*
X87368095Y11501429D01*
X87272857Y11453810D01*
X86891904Y11453810D01*
X88415714Y10977620D02*
X87844285Y10977620D01*
X88130000Y10977620D02*
X88130000Y11977620D01*
X88034761Y11834762D01*
X87939523Y11739524D01*
X87844285Y11691905D01*
%TO.C,R0*%
X87463333Y5770620D02*
X87130000Y6246810D01*
X86891904Y5770620D02*
X86891904Y6770620D01*
X87272857Y6770620D01*
X87368095Y6723000D01*
X87415714Y6675381D01*
X87463333Y6580143D01*
X87463333Y6437286D01*
X87415714Y6342048D01*
X87368095Y6294429D01*
X87272857Y6246810D01*
X86891904Y6246810D01*
X88082380Y6770620D02*
X88177619Y6770620D01*
X88272857Y6723000D01*
X88320476Y6675381D01*
X88368095Y6580143D01*
X88415714Y6389667D01*
X88415714Y6151572D01*
X88368095Y5961096D01*
X88320476Y5865858D01*
X88272857Y5818239D01*
X88177619Y5770620D01*
X88082380Y5770620D01*
X87987142Y5818239D01*
X87939523Y5865858D01*
X87891904Y5961096D01*
X87844285Y6151572D01*
X87844285Y6389667D01*
X87891904Y6580143D01*
X87939523Y6675381D01*
X87987142Y6723000D01*
X88082380Y6770620D01*
%TO.C,D2*%
X8278904Y96512120D02*
X8278904Y97512120D01*
X8517000Y97512120D01*
X8659857Y97464500D01*
X8755095Y97369262D01*
X8802714Y97274024D01*
X8850333Y97083548D01*
X8850333Y96940691D01*
X8802714Y96750215D01*
X8755095Y96654977D01*
X8659857Y96559739D01*
X8517000Y96512120D01*
X8278904Y96512120D01*
X9231285Y97416881D02*
X9278904Y97464500D01*
X9374142Y97512120D01*
X9612238Y97512120D01*
X9707476Y97464500D01*
X9755095Y97416881D01*
X9802714Y97321643D01*
X9802714Y97226405D01*
X9755095Y97083548D01*
X9183666Y96512120D01*
X9802714Y96512120D01*
%TO.C,D1*%
X23010904Y33837620D02*
X23010904Y34837620D01*
X23249000Y34837620D01*
X23391857Y34790000D01*
X23487095Y34694762D01*
X23534714Y34599524D01*
X23582333Y34409048D01*
X23582333Y34266191D01*
X23534714Y34075715D01*
X23487095Y33980477D01*
X23391857Y33885239D01*
X23249000Y33837620D01*
X23010904Y33837620D01*
X24534714Y33837620D02*
X23963285Y33837620D01*
X24249000Y33837620D02*
X24249000Y34837620D01*
X24153761Y34694762D01*
X24058523Y34599524D01*
X23963285Y34551905D01*
%TO.C,D0*%
X31392904Y33837620D02*
X31392904Y34837620D01*
X31631000Y34837620D01*
X31773857Y34790000D01*
X31869095Y34694762D01*
X31916714Y34599524D01*
X31964333Y34409048D01*
X31964333Y34266191D01*
X31916714Y34075715D01*
X31869095Y33980477D01*
X31773857Y33885239D01*
X31631000Y33837620D01*
X31392904Y33837620D01*
X32583380Y34837620D02*
X32678619Y34837620D01*
X32773857Y34790000D01*
X32821476Y34742381D01*
X32869095Y34647143D01*
X32916714Y34456667D01*
X32916714Y34218572D01*
X32869095Y34028096D01*
X32821476Y33932858D01*
X32773857Y33885239D01*
X32678619Y33837620D01*
X32583380Y33837620D01*
X32488142Y33885239D01*
X32440523Y33932858D01*
X32392904Y34028096D01*
X32345285Y34218572D01*
X32345285Y34456667D01*
X32392904Y34647143D01*
X32440523Y34742381D01*
X32488142Y34790000D01*
X32583380Y34837620D01*
%TO.C,C8*%
X61341333Y68730858D02*
X61293714Y68683239D01*
X61150857Y68635620D01*
X61055619Y68635620D01*
X60912761Y68683239D01*
X60817523Y68778477D01*
X60769904Y68873715D01*
X60722285Y69064191D01*
X60722285Y69207048D01*
X60769904Y69397524D01*
X60817523Y69492762D01*
X60912761Y69588000D01*
X61055619Y69635620D01*
X61150857Y69635620D01*
X61293714Y69588000D01*
X61341333Y69540381D01*
X61912761Y69207048D02*
X61817523Y69254667D01*
X61769904Y69302286D01*
X61722285Y69397524D01*
X61722285Y69445143D01*
X61769904Y69540381D01*
X61817523Y69588000D01*
X61912761Y69635620D01*
X62103238Y69635620D01*
X62198476Y69588000D01*
X62246095Y69540381D01*
X62293714Y69445143D01*
X62293714Y69397524D01*
X62246095Y69302286D01*
X62198476Y69254667D01*
X62103238Y69207048D01*
X61912761Y69207048D01*
X61817523Y69159429D01*
X61769904Y69111810D01*
X61722285Y69016572D01*
X61722285Y68826096D01*
X61769904Y68730858D01*
X61817523Y68683239D01*
X61912761Y68635620D01*
X62103238Y68635620D01*
X62198476Y68683239D01*
X62246095Y68730858D01*
X62293714Y68826096D01*
X62293714Y69016572D01*
X62246095Y69111810D01*
X62198476Y69159429D01*
X62103238Y69207048D01*
%TO.C,C6*%
X59015333Y48918858D02*
X58967714Y48871239D01*
X58824857Y48823620D01*
X58729619Y48823620D01*
X58586761Y48871239D01*
X58491523Y48966477D01*
X58443904Y49061715D01*
X58396285Y49252191D01*
X58396285Y49395048D01*
X58443904Y49585524D01*
X58491523Y49680762D01*
X58586761Y49776000D01*
X58729619Y49823620D01*
X58824857Y49823620D01*
X58967714Y49776000D01*
X59015333Y49728381D01*
X59872476Y49823620D02*
X59682000Y49823620D01*
X59586761Y49776000D01*
X59539142Y49728381D01*
X59443904Y49585524D01*
X59396285Y49395048D01*
X59396285Y49014096D01*
X59443904Y48918858D01*
X59491523Y48871239D01*
X59586761Y48823620D01*
X59777238Y48823620D01*
X59872476Y48871239D01*
X59920095Y48918858D01*
X59967714Y49014096D01*
X59967714Y49252191D01*
X59920095Y49347429D01*
X59872476Y49395048D01*
X59777238Y49442667D01*
X59586761Y49442667D01*
X59491523Y49395048D01*
X59443904Y49347429D01*
X59396285Y49252191D01*
%TO.C,C5*%
X79605142Y91844834D02*
X79652761Y91797215D01*
X79700380Y91654358D01*
X79700380Y91559120D01*
X79652761Y91416262D01*
X79557523Y91321024D01*
X79462285Y91273405D01*
X79271809Y91225786D01*
X79128952Y91225786D01*
X78938476Y91273405D01*
X78843238Y91321024D01*
X78748000Y91416262D01*
X78700380Y91559120D01*
X78700380Y91654358D01*
X78748000Y91797215D01*
X78795619Y91844834D01*
X78700380Y92749596D02*
X78700380Y92273405D01*
X79176571Y92225786D01*
X79128952Y92273405D01*
X79081333Y92368643D01*
X79081333Y92606739D01*
X79128952Y92701977D01*
X79176571Y92749596D01*
X79271809Y92797215D01*
X79509904Y92797215D01*
X79605142Y92749596D01*
X79652761Y92701977D01*
X79700380Y92606739D01*
X79700380Y92368643D01*
X79652761Y92273405D01*
X79605142Y92225786D01*
%TO.C,C2*%
X40433333Y21146858D02*
X40385714Y21099239D01*
X40242857Y21051620D01*
X40147619Y21051620D01*
X40004761Y21099239D01*
X39909523Y21194477D01*
X39861904Y21289715D01*
X39814285Y21480191D01*
X39814285Y21623048D01*
X39861904Y21813524D01*
X39909523Y21908762D01*
X40004761Y22004000D01*
X40147619Y22051620D01*
X40242857Y22051620D01*
X40385714Y22004000D01*
X40433333Y21956381D01*
X40814285Y21956381D02*
X40861904Y22004000D01*
X40957142Y22051620D01*
X41195238Y22051620D01*
X41290476Y22004000D01*
X41338095Y21956381D01*
X41385714Y21861143D01*
X41385714Y21765905D01*
X41338095Y21623048D01*
X40766666Y21051620D01*
X41385714Y21051620D01*
%TO.C,C1*%
X40433333Y16066858D02*
X40385714Y16019239D01*
X40242857Y15971620D01*
X40147619Y15971620D01*
X40004761Y16019239D01*
X39909523Y16114477D01*
X39861904Y16209715D01*
X39814285Y16400191D01*
X39814285Y16543048D01*
X39861904Y16733524D01*
X39909523Y16828762D01*
X40004761Y16924000D01*
X40147619Y16971620D01*
X40242857Y16971620D01*
X40385714Y16924000D01*
X40433333Y16876381D01*
X41385714Y15971620D02*
X40814285Y15971620D01*
X41100000Y15971620D02*
X41100000Y16971620D01*
X41004761Y16828762D01*
X40909523Y16733524D01*
X40814285Y16685905D01*
%TO.C,C0*%
X40433333Y10986858D02*
X40385714Y10939239D01*
X40242857Y10891620D01*
X40147619Y10891620D01*
X40004761Y10939239D01*
X39909523Y11034477D01*
X39861904Y11129715D01*
X39814285Y11320191D01*
X39814285Y11463048D01*
X39861904Y11653524D01*
X39909523Y11748762D01*
X40004761Y11844000D01*
X40147619Y11891620D01*
X40242857Y11891620D01*
X40385714Y11844000D01*
X40433333Y11796381D01*
X41052380Y11891620D02*
X41147619Y11891620D01*
X41242857Y11844000D01*
X41290476Y11796381D01*
X41338095Y11701143D01*
X41385714Y11510667D01*
X41385714Y11272572D01*
X41338095Y11082096D01*
X41290476Y10986858D01*
X41242857Y10939239D01*
X41147619Y10891620D01*
X41052380Y10891620D01*
X40957142Y10939239D01*
X40909523Y10986858D01*
X40861904Y11082096D01*
X40814285Y11272572D01*
X40814285Y11510667D01*
X40861904Y11701143D01*
X40909523Y11796381D01*
X40957142Y11844000D01*
X41052380Y11891620D01*
%TO.C,U1*%
X27178095Y44489620D02*
X27178095Y43680096D01*
X27225714Y43584858D01*
X27273333Y43537239D01*
X27368571Y43489620D01*
X27559047Y43489620D01*
X27654285Y43537239D01*
X27701904Y43584858D01*
X27749523Y43680096D01*
X27749523Y44489620D01*
X28749523Y43489620D02*
X28178095Y43489620D01*
X28463809Y43489620D02*
X28463809Y44489620D01*
X28368571Y44346762D01*
X28273333Y44251524D01*
X28178095Y44203905D01*
%TO.C,SW2*%
X46926666Y2135239D02*
X47069523Y2087620D01*
X47307619Y2087620D01*
X47402857Y2135239D01*
X47450476Y2182858D01*
X47498095Y2278096D01*
X47498095Y2373334D01*
X47450476Y2468572D01*
X47402857Y2516191D01*
X47307619Y2563810D01*
X47117142Y2611429D01*
X47021904Y2659048D01*
X46974285Y2706667D01*
X46926666Y2801905D01*
X46926666Y2897143D01*
X46974285Y2992381D01*
X47021904Y3040000D01*
X47117142Y3087620D01*
X47355238Y3087620D01*
X47498095Y3040000D01*
X47831428Y3087620D02*
X48069523Y2087620D01*
X48260000Y2801905D01*
X48450476Y2087620D01*
X48688571Y3087620D01*
X49021904Y2992381D02*
X49069523Y3040000D01*
X49164761Y3087620D01*
X49402857Y3087620D01*
X49498095Y3040000D01*
X49545714Y2992381D01*
X49593333Y2897143D01*
X49593333Y2801905D01*
X49545714Y2659048D01*
X48974285Y2087620D01*
X49593333Y2087620D01*
%TO.C,SW0*%
X70802666Y2135239D02*
X70945523Y2087620D01*
X71183619Y2087620D01*
X71278857Y2135239D01*
X71326476Y2182858D01*
X71374095Y2278096D01*
X71374095Y2373334D01*
X71326476Y2468572D01*
X71278857Y2516191D01*
X71183619Y2563810D01*
X70993142Y2611429D01*
X70897904Y2659048D01*
X70850285Y2706667D01*
X70802666Y2801905D01*
X70802666Y2897143D01*
X70850285Y2992381D01*
X70897904Y3040000D01*
X70993142Y3087620D01*
X71231238Y3087620D01*
X71374095Y3040000D01*
X71707428Y3087620D02*
X71945523Y2087620D01*
X72136000Y2801905D01*
X72326476Y2087620D01*
X72564571Y3087620D01*
X73136000Y3087620D02*
X73231238Y3087620D01*
X73326476Y3040000D01*
X73374095Y2992381D01*
X73421714Y2897143D01*
X73469333Y2706667D01*
X73469333Y2468572D01*
X73421714Y2278096D01*
X73374095Y2182858D01*
X73326476Y2135239D01*
X73231238Y2087620D01*
X73136000Y2087620D01*
X73040761Y2135239D01*
X72993142Y2182858D01*
X72945523Y2278096D01*
X72897904Y2468572D01*
X72897904Y2706667D01*
X72945523Y2897143D01*
X72993142Y2992381D01*
X73040761Y3040000D01*
X73136000Y3087620D01*
%TO.C,JP2*%
X68762666Y82125620D02*
X68762666Y81411334D01*
X68715047Y81268477D01*
X68619809Y81173239D01*
X68476952Y81125620D01*
X68381714Y81125620D01*
X69238857Y81125620D02*
X69238857Y82125620D01*
X69619809Y82125620D01*
X69715047Y82078000D01*
X69762666Y82030381D01*
X69810285Y81935143D01*
X69810285Y81792286D01*
X69762666Y81697048D01*
X69715047Y81649429D01*
X69619809Y81601810D01*
X69238857Y81601810D01*
X70191238Y82030381D02*
X70238857Y82078000D01*
X70334095Y82125620D01*
X70572190Y82125620D01*
X70667428Y82078000D01*
X70715047Y82030381D01*
X70762666Y81935143D01*
X70762666Y81839905D01*
X70715047Y81697048D01*
X70143619Y81125620D01*
X70762666Y81125620D01*
%TO.C,JP1*%
X63682666Y82125620D02*
X63682666Y81411334D01*
X63635047Y81268477D01*
X63539809Y81173239D01*
X63396952Y81125620D01*
X63301714Y81125620D01*
X64158857Y81125620D02*
X64158857Y82125620D01*
X64539809Y82125620D01*
X64635047Y82078000D01*
X64682666Y82030381D01*
X64730285Y81935143D01*
X64730285Y81792286D01*
X64682666Y81697048D01*
X64635047Y81649429D01*
X64539809Y81601810D01*
X64158857Y81601810D01*
X65682666Y81125620D02*
X65111238Y81125620D01*
X65396952Y81125620D02*
X65396952Y82125620D01*
X65301714Y81982762D01*
X65206476Y81887524D01*
X65111238Y81839905D01*
%TO.C,J6*%
X94662666Y61805620D02*
X94662666Y61091334D01*
X94615047Y60948477D01*
X94519809Y60853239D01*
X94376952Y60805620D01*
X94281714Y60805620D01*
X95567428Y61805620D02*
X95376952Y61805620D01*
X95281714Y61758000D01*
X95234095Y61710381D01*
X95138857Y61567524D01*
X95091238Y61377048D01*
X95091238Y60996096D01*
X95138857Y60900858D01*
X95186476Y60853239D01*
X95281714Y60805620D01*
X95472190Y60805620D01*
X95567428Y60853239D01*
X95615047Y60900858D01*
X95662666Y60996096D01*
X95662666Y61234191D01*
X95615047Y61329429D01*
X95567428Y61377048D01*
X95472190Y61424667D01*
X95281714Y61424667D01*
X95186476Y61377048D01*
X95138857Y61329429D01*
X95091238Y61234191D01*
%TO.C,J7*%
X94662666Y77045620D02*
X94662666Y76331334D01*
X94615047Y76188477D01*
X94519809Y76093239D01*
X94376952Y76045620D01*
X94281714Y76045620D01*
X95043619Y77045620D02*
X95710285Y77045620D01*
X95281714Y76045620D01*
%TO.C,J4*%
X4746666Y32400620D02*
X4746666Y31686334D01*
X4699047Y31543477D01*
X4603809Y31448239D01*
X4460952Y31400620D01*
X4365714Y31400620D01*
X5651428Y32067286D02*
X5651428Y31400620D01*
X5413333Y32448239D02*
X5175238Y31733953D01*
X5794285Y31733953D01*
%TO.C,R10*%
X46934380Y92599143D02*
X46458190Y92265810D01*
X46934380Y92027715D02*
X45934380Y92027715D01*
X45934380Y92408667D01*
X45982000Y92503905D01*
X46029619Y92551524D01*
X46124857Y92599143D01*
X46267714Y92599143D01*
X46362952Y92551524D01*
X46410571Y92503905D01*
X46458190Y92408667D01*
X46458190Y92027715D01*
X46934380Y93551524D02*
X46934380Y92980096D01*
X46934380Y93265810D02*
X45934380Y93265810D01*
X46077238Y93170572D01*
X46172476Y93075334D01*
X46220095Y92980096D01*
X45934380Y94170572D02*
X45934380Y94265810D01*
X45982000Y94361048D01*
X46029619Y94408667D01*
X46124857Y94456286D01*
X46315333Y94503905D01*
X46553428Y94503905D01*
X46743904Y94456286D01*
X46839142Y94408667D01*
X46886761Y94361048D01*
X46934380Y94265810D01*
X46934380Y94170572D01*
X46886761Y94075334D01*
X46839142Y94027715D01*
X46743904Y93980096D01*
X46553428Y93932477D01*
X46315333Y93932477D01*
X46124857Y93980096D01*
X46029619Y94027715D01*
X45982000Y94075334D01*
X45934380Y94170572D01*
%TO.C,J3*%
X4746666Y55260620D02*
X4746666Y54546334D01*
X4699047Y54403477D01*
X4603809Y54308239D01*
X4460952Y54260620D01*
X4365714Y54260620D01*
X5127619Y55260620D02*
X5746666Y55260620D01*
X5413333Y54879667D01*
X5556190Y54879667D01*
X5651428Y54832048D01*
X5699047Y54784429D01*
X5746666Y54689191D01*
X5746666Y54451096D01*
X5699047Y54355858D01*
X5651428Y54308239D01*
X5556190Y54260620D01*
X5270476Y54260620D01*
X5175238Y54308239D01*
X5127619Y54355858D01*
%TO.C,SW5*%
X84224761Y90360667D02*
X84272380Y90503524D01*
X84272380Y90741620D01*
X84224761Y90836858D01*
X84177142Y90884477D01*
X84081904Y90932096D01*
X83986666Y90932096D01*
X83891428Y90884477D01*
X83843809Y90836858D01*
X83796190Y90741620D01*
X83748571Y90551143D01*
X83700952Y90455905D01*
X83653333Y90408286D01*
X83558095Y90360667D01*
X83462857Y90360667D01*
X83367619Y90408286D01*
X83320000Y90455905D01*
X83272380Y90551143D01*
X83272380Y90789239D01*
X83320000Y90932096D01*
X83272380Y91265429D02*
X84272380Y91503524D01*
X83558095Y91694000D01*
X84272380Y91884477D01*
X83272380Y92122572D01*
X83272380Y92979715D02*
X83272380Y92503524D01*
X83748571Y92455905D01*
X83700952Y92503524D01*
X83653333Y92598762D01*
X83653333Y92836858D01*
X83700952Y92932096D01*
X83748571Y92979715D01*
X83843809Y93027334D01*
X84081904Y93027334D01*
X84177142Y92979715D01*
X84224761Y92932096D01*
X84272380Y92836858D01*
X84272380Y92598762D01*
X84224761Y92503524D01*
X84177142Y92455905D01*
%TO.C,U3*%
X62192095Y64599620D02*
X62192095Y63790096D01*
X62239714Y63694858D01*
X62287333Y63647239D01*
X62382571Y63599620D01*
X62573047Y63599620D01*
X62668285Y63647239D01*
X62715904Y63694858D01*
X62763523Y63790096D01*
X62763523Y64599620D01*
X63144476Y64599620D02*
X63763523Y64599620D01*
X63430190Y64218667D01*
X63573047Y64218667D01*
X63668285Y64171048D01*
X63715904Y64123429D01*
X63763523Y64028191D01*
X63763523Y63790096D01*
X63715904Y63694858D01*
X63668285Y63647239D01*
X63573047Y63599620D01*
X63287333Y63599620D01*
X63192095Y63647239D01*
X63144476Y63694858D01*
%TO.C,JP3*%
X46791666Y62059620D02*
X46791666Y61345334D01*
X46744047Y61202477D01*
X46648809Y61107239D01*
X46505952Y61059620D01*
X46410714Y61059620D01*
X47267857Y61059620D02*
X47267857Y62059620D01*
X47648809Y62059620D01*
X47744047Y62012000D01*
X47791666Y61964381D01*
X47839285Y61869143D01*
X47839285Y61726286D01*
X47791666Y61631048D01*
X47744047Y61583429D01*
X47648809Y61535810D01*
X47267857Y61535810D01*
X48172619Y62059620D02*
X48791666Y62059620D01*
X48458333Y61678667D01*
X48601190Y61678667D01*
X48696428Y61631048D01*
X48744047Y61583429D01*
X48791666Y61488191D01*
X48791666Y61250096D01*
X48744047Y61154858D01*
X48696428Y61107239D01*
X48601190Y61059620D01*
X48315476Y61059620D01*
X48220238Y61107239D01*
X48172619Y61154858D01*
%TO.C,JP4*%
X51871666Y62059620D02*
X51871666Y61345334D01*
X51824047Y61202477D01*
X51728809Y61107239D01*
X51585952Y61059620D01*
X51490714Y61059620D01*
X52347857Y61059620D02*
X52347857Y62059620D01*
X52728809Y62059620D01*
X52824047Y62012000D01*
X52871666Y61964381D01*
X52919285Y61869143D01*
X52919285Y61726286D01*
X52871666Y61631048D01*
X52824047Y61583429D01*
X52728809Y61535810D01*
X52347857Y61535810D01*
X53776428Y61726286D02*
X53776428Y61059620D01*
X53538333Y62107239D02*
X53300238Y61392953D01*
X53919285Y61392953D01*
%TO.C,U2*%
X62293595Y16105120D02*
X62293595Y15295596D01*
X62341214Y15200358D01*
X62388833Y15152739D01*
X62484071Y15105120D01*
X62674547Y15105120D01*
X62769785Y15152739D01*
X62817404Y15200358D01*
X62865023Y15295596D01*
X62865023Y16105120D01*
X63293595Y16009881D02*
X63341214Y16057500D01*
X63436452Y16105120D01*
X63674547Y16105120D01*
X63769785Y16057500D01*
X63817404Y16009881D01*
X63865023Y15914643D01*
X63865023Y15819405D01*
X63817404Y15676548D01*
X63245976Y15105120D01*
X63865023Y15105120D01*
X67260261Y31809524D02*
X67307880Y31952381D01*
X67307880Y32190477D01*
X67260261Y32285715D01*
X67212642Y32333334D01*
X67117404Y32380953D01*
X67022166Y32380953D01*
X66926928Y32333334D01*
X66879309Y32285715D01*
X66831690Y32190477D01*
X66784071Y32000000D01*
X66736452Y31904762D01*
X66688833Y31857143D01*
X66593595Y31809524D01*
X66498357Y31809524D01*
X66403119Y31857143D01*
X66355500Y31904762D01*
X66307880Y32000000D01*
X66307880Y32238096D01*
X66355500Y32380953D01*
X67307880Y32809524D02*
X66307880Y32809524D01*
X66307880Y33047620D01*
X66355500Y33190477D01*
X66450738Y33285715D01*
X66545976Y33333334D01*
X66736452Y33380953D01*
X66879309Y33380953D01*
X67069785Y33333334D01*
X67165023Y33285715D01*
X67260261Y33190477D01*
X67307880Y33047620D01*
X67307880Y32809524D01*
X67022166Y33761905D02*
X67022166Y34238096D01*
X67307880Y33666667D02*
X66307880Y34000000D01*
X67307880Y34333334D01*
X67307880Y35190477D02*
X67307880Y34619048D01*
X67307880Y34904762D02*
X66307880Y34904762D01*
X66450738Y34809524D01*
X66545976Y34714286D01*
X66593595Y34619048D01*
X67688833Y36666667D02*
X67641214Y36619048D01*
X67498357Y36523810D01*
X67403119Y36476191D01*
X67260261Y36428572D01*
X67022166Y36380953D01*
X66831690Y36380953D01*
X66593595Y36428572D01*
X66450738Y36476191D01*
X66355500Y36523810D01*
X66212642Y36619048D01*
X66165023Y36666667D01*
X66355500Y37571429D02*
X66307880Y37476191D01*
X66307880Y37333334D01*
X66355500Y37190477D01*
X66450738Y37095239D01*
X66545976Y37047620D01*
X66736452Y37000000D01*
X66879309Y37000000D01*
X67069785Y37047620D01*
X67165023Y37095239D01*
X67260261Y37190477D01*
X67307880Y37333334D01*
X67307880Y37428572D01*
X67260261Y37571429D01*
X67212642Y37619048D01*
X66879309Y37619048D01*
X66879309Y37428572D01*
X67307880Y38047620D02*
X66307880Y38047620D01*
X66307880Y38428572D01*
X66355500Y38523810D01*
X66403119Y38571429D01*
X66498357Y38619048D01*
X66641214Y38619048D01*
X66736452Y38571429D01*
X66784071Y38523810D01*
X66831690Y38428572D01*
X66831690Y38047620D01*
X67307880Y39571429D02*
X67307880Y39000000D01*
X67307880Y39285715D02*
X66307880Y39285715D01*
X66450738Y39190477D01*
X66545976Y39095239D01*
X66593595Y39000000D01*
X66736452Y40142858D02*
X66688833Y40047620D01*
X66641214Y40000000D01*
X66545976Y39952381D01*
X66498357Y39952381D01*
X66403119Y40000000D01*
X66355500Y40047620D01*
X66307880Y40142858D01*
X66307880Y40333334D01*
X66355500Y40428572D01*
X66403119Y40476191D01*
X66498357Y40523810D01*
X66545976Y40523810D01*
X66641214Y40476191D01*
X66688833Y40428572D01*
X66736452Y40333334D01*
X66736452Y40142858D01*
X66784071Y40047620D01*
X66831690Y40000000D01*
X66926928Y39952381D01*
X67117404Y39952381D01*
X67212642Y40000000D01*
X67260261Y40047620D01*
X67307880Y40142858D01*
X67307880Y40333334D01*
X67260261Y40428572D01*
X67212642Y40476191D01*
X67117404Y40523810D01*
X66926928Y40523810D01*
X66831690Y40476191D01*
X66784071Y40428572D01*
X66736452Y40333334D01*
X67688833Y40857143D02*
X67641214Y40904762D01*
X67498357Y41000000D01*
X67403119Y41047620D01*
X67260261Y41095239D01*
X67022166Y41142858D01*
X66831690Y41142858D01*
X66593595Y41095239D01*
X66450738Y41047620D01*
X66355500Y41000000D01*
X66212642Y40904762D01*
X66165023Y40857143D01*
X64654761Y31833334D02*
X64702380Y31976191D01*
X64702380Y32214286D01*
X64654761Y32309524D01*
X64607142Y32357143D01*
X64511904Y32404762D01*
X64416666Y32404762D01*
X64321428Y32357143D01*
X64273809Y32309524D01*
X64226190Y32214286D01*
X64178571Y32023810D01*
X64130952Y31928572D01*
X64083333Y31880953D01*
X63988095Y31833334D01*
X63892857Y31833334D01*
X63797619Y31880953D01*
X63750000Y31928572D01*
X63702380Y32023810D01*
X63702380Y32261905D01*
X63750000Y32404762D01*
X64607142Y33404762D02*
X64654761Y33357143D01*
X64702380Y33214286D01*
X64702380Y33119048D01*
X64654761Y32976191D01*
X64559523Y32880953D01*
X64464285Y32833334D01*
X64273809Y32785715D01*
X64130952Y32785715D01*
X63940476Y32833334D01*
X63845238Y32880953D01*
X63750000Y32976191D01*
X63702380Y33119048D01*
X63702380Y33214286D01*
X63750000Y33357143D01*
X63797619Y33404762D01*
X64702380Y34309524D02*
X64702380Y33833334D01*
X63702380Y33833334D01*
X64702380Y35166667D02*
X64702380Y34595239D01*
X64702380Y34880953D02*
X63702380Y34880953D01*
X63845238Y34785715D01*
X63940476Y34690477D01*
X63988095Y34595239D01*
X65083333Y36642858D02*
X65035714Y36595239D01*
X64892857Y36500000D01*
X64797619Y36452381D01*
X64654761Y36404762D01*
X64416666Y36357143D01*
X64226190Y36357143D01*
X63988095Y36404762D01*
X63845238Y36452381D01*
X63750000Y36500000D01*
X63607142Y36595239D01*
X63559523Y36642858D01*
X63750000Y37547620D02*
X63702380Y37452381D01*
X63702380Y37309524D01*
X63750000Y37166667D01*
X63845238Y37071429D01*
X63940476Y37023810D01*
X64130952Y36976191D01*
X64273809Y36976191D01*
X64464285Y37023810D01*
X64559523Y37071429D01*
X64654761Y37166667D01*
X64702380Y37309524D01*
X64702380Y37404762D01*
X64654761Y37547620D01*
X64607142Y37595239D01*
X64273809Y37595239D01*
X64273809Y37404762D01*
X64702380Y38023810D02*
X63702380Y38023810D01*
X63702380Y38404762D01*
X63750000Y38500000D01*
X63797619Y38547620D01*
X63892857Y38595239D01*
X64035714Y38595239D01*
X64130952Y38547620D01*
X64178571Y38500000D01*
X64226190Y38404762D01*
X64226190Y38023810D01*
X64702380Y39547620D02*
X64702380Y38976191D01*
X64702380Y39261905D02*
X63702380Y39261905D01*
X63845238Y39166667D01*
X63940476Y39071429D01*
X63988095Y38976191D01*
X64702380Y40023810D02*
X64702380Y40214286D01*
X64654761Y40309524D01*
X64607142Y40357143D01*
X64464285Y40452381D01*
X64273809Y40500000D01*
X63892857Y40500000D01*
X63797619Y40452381D01*
X63750000Y40404762D01*
X63702380Y40309524D01*
X63702380Y40119048D01*
X63750000Y40023810D01*
X63797619Y39976191D01*
X63892857Y39928572D01*
X64130952Y39928572D01*
X64226190Y39976191D01*
X64273809Y40023810D01*
X64321428Y40119048D01*
X64321428Y40309524D01*
X64273809Y40404762D01*
X64226190Y40452381D01*
X64130952Y40500000D01*
X65083333Y40833334D02*
X65035714Y40880953D01*
X64892857Y40976191D01*
X64797619Y41023810D01*
X64654761Y41071429D01*
X64416666Y41119048D01*
X64226190Y41119048D01*
X63988095Y41071429D01*
X63845238Y41023810D01*
X63750000Y40976191D01*
X63607142Y40880953D01*
X63559523Y40833334D01*
X61202380Y38416667D02*
X62202380Y38750000D01*
X61202380Y39083334D01*
X62107142Y39988096D02*
X62154761Y39940477D01*
X62202380Y39797620D01*
X62202380Y39702381D01*
X62154761Y39559524D01*
X62059523Y39464286D01*
X61964285Y39416667D01*
X61773809Y39369048D01*
X61630952Y39369048D01*
X61440476Y39416667D01*
X61345238Y39464286D01*
X61250000Y39559524D01*
X61202380Y39702381D01*
X61202380Y39797620D01*
X61250000Y39940477D01*
X61297619Y39988096D01*
X62107142Y40988096D02*
X62154761Y40940477D01*
X62202380Y40797620D01*
X62202380Y40702381D01*
X62154761Y40559524D01*
X62059523Y40464286D01*
X61964285Y40416667D01*
X61773809Y40369048D01*
X61630952Y40369048D01*
X61440476Y40416667D01*
X61345238Y40464286D01*
X61250000Y40559524D01*
X61202380Y40702381D01*
X61202380Y40797620D01*
X61250000Y40940477D01*
X61297619Y40988096D01*
X58805500Y38968096D02*
X58757880Y38872858D01*
X58757880Y38730000D01*
X58805500Y38587143D01*
X58900738Y38491905D01*
X58995976Y38444286D01*
X59186452Y38396667D01*
X59329309Y38396667D01*
X59519785Y38444286D01*
X59615023Y38491905D01*
X59710261Y38587143D01*
X59757880Y38730000D01*
X59757880Y38825239D01*
X59710261Y38968096D01*
X59662642Y39015715D01*
X59329309Y39015715D01*
X59329309Y38825239D01*
X59757880Y39444286D02*
X58757880Y39444286D01*
X59757880Y40015715D01*
X58757880Y40015715D01*
X59757880Y40491905D02*
X58757880Y40491905D01*
X58757880Y40730000D01*
X58805500Y40872858D01*
X58900738Y40968096D01*
X58995976Y41015715D01*
X59186452Y41063334D01*
X59329309Y41063334D01*
X59519785Y41015715D01*
X59615023Y40968096D01*
X59710261Y40872858D01*
X59757880Y40730000D01*
X59757880Y40491905D01*
%TD*%
M02*
